{"glyphs":{"0":{"ha":692,"x_min":39,"x_max":653,"o":"m 346 -15 q 172 39 240 -15 q 72 204 104 93 q 39 488 39 315 q 72 770 39 658 q 172 938 104 882 q 346 994 240 994 q 520 939 453 994 q 620 771 588 883 q 653 489 653 658 q 620 207 653 318 q 520 40 588 96 q 346 -15 453 -15 m 346 154 q 432 232 406 154 q 458 488 458 310 q 432 745 458 665 q 346 825 406 825 q 260 745 286 825 q 233 486 233 665 q 259 232 233 310 q 346 154 285 154 z "},"1":{"ha":692,"x_min":47,"x_max":675,"o":"m 85 0 l 85 164 l 288 164 l 288 815 l 368 807 l 125 661 l 47 813 l 329 979 l 489 979 l 489 164 l 675 164 l 675 0 l 85 0 z "},"2":{"ha":692,"x_min":42,"x_max":639,"o":"m 79 0 l 79 146 l 332 476 q 379 549 360 513 q 408 621 399 585 q 417 693 417 657 q 384 790 417 756 q 294 825 351 825 q 197 804 251 825 q 101 743 143 783 l 42 893 q 174 969 97 943 q 331 994 251 994 q 483 960 419 994 q 580 863 546 926 q 614 717 614 800 q 599 617 614 665 q 560 525 583 568 q 510 444 536 482 q 464 376 485 407 l 336 179 l 328 164 l 639 164 l 639 0 l 79 0 z "},"3":{"ha":692,"x_min":32,"x_max":635,"o":"m 318 -15 q 211 -3 265 -15 q 110 31 157 8 q 32 83 64 53 l 92 236 q 195 176 136 197 q 306 154 254 154 q 378 169 347 154 q 425 212 408 183 q 442 281 442 240 q 406 381 442 347 q 310 414 371 414 l 178 414 l 178 575 l 293 575 q 361 590 332 575 q 406 636 390 606 q 421 708 421 667 q 390 796 421 767 q 303 825 360 825 q 203 804 257 825 q 106 740 150 783 l 44 890 q 176 968 97 942 q 335 994 254 994 q 483 963 421 994 q 579 875 546 932 q 613 740 613 818 q 577 597 613 657 q 478 506 542 538 l 478 500 q 556 456 521 486 q 613 380 592 425 q 635 271 635 335 q 595 120 635 185 q 485 20 556 56 q 318 -15 415 -15 z "},"4":{"ha":692,"x_min":36,"x_max":664,"o":"m 403 0 l 403 181 l 36 181 l 36 322 l 372 979 l 576 979 l 576 336 l 664 336 l 664 181 l 576 181 l 576 0 l 403 0 m 414 336 l 414 746 l 411 746 l 203 325 l 188 336 l 414 336 z "},"5":{"ha":692,"x_min":61,"x_max":651,"o":"m 332 -15 q 228 -3 278 -15 q 137 31 179 8 q 61 86 94 54 l 122 238 q 219 175 169 196 q 319 154 268 154 q 425 194 388 154 q 463 317 463 233 q 431 429 463 392 q 340 467 400 467 q 274 449 301 467 q 218 390 246 431 l 81 390 l 81 979 l 606 979 l 606 815 l 246 815 l 246 539 l 264 539 q 326 602 288 578 q 413 626 364 626 q 544 591 490 626 q 624 490 597 556 q 651 331 651 424 q 613 141 651 218 q 503 24 575 64 q 332 -15 431 -15 z "},"6":{"ha":692,"x_min":49,"x_max":653,"o":"m 361 -15 q 187 40 257 -15 q 83 203 117 96 q 49 468 49 311 q 90 758 49 642 q 210 935 131 875 q 404 994 289 994 q 499 983 456 994 q 581 951 543 972 q 653 897 618 931 l 593 750 q 508 808 553 790 q 415 826 463 826 q 322 799 358 826 q 263 726 285 772 q 233 624 242 681 q 224 504 224 567 l 224 458 l 232 458 q 269 553 244 515 q 330 610 293 592 q 415 629 367 629 q 540 592 488 629 q 620 484 592 554 q 649 318 649 414 q 615 141 649 217 q 516 25 581 65 q 361 -15 451 -15 m 365 144 q 425 163 401 144 q 460 219 449 182 q 472 311 472 257 q 460 401 472 365 q 425 454 449 436 q 365 472 401 472 q 308 454 332 472 q 271 399 283 436 q 258 308 258 363 q 270 217 258 254 q 306 163 282 181 q 365 144 329 144 z "},"7":{"ha":692,"x_min":53,"x_max":639,"o":"m 74 0 l 457 879 l 463 794 l 53 794 l 53 979 l 639 979 l 639 826 l 294 0 l 74 0 z "},"8":{"ha":692,"x_min":35,"x_max":657,"o":"m 346 -15 q 117 59 199 -15 q 35 261 35 133 q 59 387 35 335 q 124 468 83 439 q 214 500 164 497 l 214 501 q 137 537 172 508 q 79 613 101 565 q 57 726 57 660 q 134 922 57 850 q 346 994 211 994 q 558 922 481 994 q 635 726 635 850 q 613 615 635 663 q 553 538 590 567 q 475 500 517 510 l 475 500 q 565 471 524 500 q 632 389 607 442 q 657 261 657 336 q 575 59 657 133 q 346 -15 493 -15 m 346 144 q 443 181 410 144 q 476 281 476 218 q 443 381 476 344 q 346 417 410 417 q 249 381 282 417 q 215 281 215 344 q 249 181 215 218 q 346 144 283 144 m 346 574 q 426 607 397 574 q 454 706 454 640 q 426 802 454 769 q 346 835 399 835 q 266 802 294 835 q 238 706 238 769 q 266 607 238 640 q 346 574 294 574 z "},"9":{"ha":692,"x_min":40,"x_max":644,"o":"m 290 -15 q 194 -5 239 -15 q 113 27 150 6 q 40 79 75 49 l 100 226 q 188 169 143 186 q 279 153 232 153 q 372 180 335 153 q 430 253 408 207 q 460 356 451 299 q 468 475 468 414 l 468 521 l 461 521 q 424 427 449 464 q 363 372 400 390 q 276 354 326 354 q 154 392 207 354 q 72 497 101 429 q 43 661 43 565 q 78 838 43 764 q 177 953 113 913 q 332 994 242 994 q 508 939 438 994 q 611 776 578 883 q 644 511 644 669 q 603 222 644 339 q 483 44 563 104 q 290 -15 404 -15 m 328 507 q 386 526 363 507 q 422 581 410 544 q 435 671 435 618 q 423 762 435 726 q 388 816 411 797 q 328 835 364 835 q 268 815 292 835 q 233 760 244 796 q 222 669 222 724 q 234 580 222 617 q 269 525 246 543 q 328 507 293 507 z "},"A":{"ha":938,"x_min":10,"x_max":928,"o":"m 10 0 l 376 979 l 561 979 l 928 0 l 710 0 l 622 272 l 699 196 l 232 196 l 310 272 l 222 0 l 10 0 m 463 767 l 318 324 l 297 365 l 633 365 l 613 324 l 469 767 l 463 767 z "},"Á":{"ha":938,"x_min":10,"x_max":928,"o":"m 10 0 l 376 979 l 561 979 l 928 0 l 710 0 l 622 272 l 699 196 l 232 196 l 310 272 l 222 0 l 10 0 m 463 767 l 318 324 l 297 365 l 633 365 l 613 324 l 469 767 l 463 767 m 388 1063 l 522 1293 l 750 1293 l 549 1063 l 388 1063 z "},"Ă":{"ha":938,"x_min":10,"x_max":928,"o":"m 10 0 l 376 979 l 561 979 l 928 0 l 710 0 l 622 272 l 699 196 l 232 196 l 310 272 l 222 0 l 10 0 m 463 767 l 318 324 l 297 365 l 633 365 l 613 324 l 469 767 l 463 767 m 468 1056 q 307 1116 365 1056 q 246 1290 249 1176 l 368 1301 q 393 1222 371 1249 q 468 1196 415 1196 q 544 1222 521 1196 q 568 1301 567 1249 l 690 1290 q 629 1116 688 1176 q 468 1056 571 1056 z "},"Ắ":{"ha":938,"x_min":10,"x_max":928,"o":"m 10 0 l 376 979 l 561 979 l 928 0 l 710 0 l 622 272 l 699 196 l 232 196 l 310 272 l 222 0 l 10 0 m 463 767 l 318 324 l 297 365 l 633 365 l 613 324 l 469 767 l 463 767 m 468 1063 q 299 1117 356 1063 q 244 1265 242 1171 l 356 1275 q 386 1204 354 1228 q 468 1181 418 1181 q 550 1203 519 1181 q 581 1275 581 1226 l 693 1265 q 638 1117 694 1171 q 468 1063 582 1063 m 401 1271 l 479 1468 l 669 1468 l 525 1271 l 401 1271 z "},"Ặ":{"ha":938,"x_min":10,"x_max":928,"o":"m 10 0 l 376 979 l 561 979 l 928 0 l 710 0 l 622 272 l 699 196 l 232 196 l 310 272 l 222 0 l 10 0 m 463 767 l 318 324 l 297 365 l 633 365 l 613 324 l 469 767 l 463 767 m 374 -297 l 374 -114 l 563 -114 l 563 -297 l 374 -297 m 468 1056 q 307 1116 365 1056 q 246 1290 249 1176 l 368 1301 q 393 1222 371 1249 q 468 1196 415 1196 q 544 1222 521 1196 q 568 1301 567 1249 l 690 1290 q 629 1116 688 1176 q 468 1056 571 1056 z "},"Ằ":{"ha":938,"x_min":10,"x_max":928,"o":"m 10 0 l 376 979 l 561 979 l 928 0 l 710 0 l 622 272 l 699 196 l 232 196 l 310 272 l 222 0 l 10 0 m 463 767 l 318 324 l 297 365 l 633 365 l 613 324 l 469 767 l 463 767 m 468 1063 q 299 1117 356 1063 q 244 1265 242 1171 l 356 1275 q 386 1204 354 1228 q 468 1181 418 1181 q 550 1203 519 1181 q 581 1275 581 1226 l 693 1265 q 638 1117 694 1171 q 468 1063 582 1063 m 415 1271 l 274 1468 l 464 1468 l 540 1271 l 415 1271 z "},"Ẳ":{"ha":938,"x_min":10,"x_max":928,"o":"m 10 0 l 376 979 l 561 979 l 928 0 l 710 0 l 622 272 l 699 196 l 232 196 l 310 272 l 222 0 l 10 0 m 463 767 l 318 324 l 297 365 l 633 365 l 613 324 l 469 767 l 463 767 m 468 1063 q 299 1117 356 1063 q 244 1265 242 1171 l 356 1275 q 386 1204 354 1228 q 468 1181 418 1181 q 550 1203 519 1181 q 581 1275 581 1226 l 693 1265 q 638 1117 694 1171 q 468 1063 582 1063 m 413 1264 q 417 1299 413 1285 q 431 1324 422 1313 q 444 1347 439 1336 q 450 1369 450 1357 q 440 1391 450 1382 q 410 1400 431 1400 q 380 1394 396 1400 q 350 1379 364 1389 l 324 1461 q 389 1486 351 1478 q 471 1494 426 1494 q 569 1472 535 1494 q 604 1410 604 1450 q 592 1365 604 1383 q 565 1334 581 1347 q 538 1304 550 1321 q 525 1264 526 1288 l 413 1264 z "},"Ẵ":{"ha":938,"x_min":10,"x_max":928,"o":"m 10 0 l 376 979 l 561 979 l 928 0 l 710 0 l 622 272 l 699 196 l 232 196 l 310 272 l 222 0 l 10 0 m 463 767 l 318 324 l 297 365 l 633 365 l 613 324 l 469 767 l 463 767 m 468 1063 q 301 1117 358 1063 q 244 1263 244 1171 l 353 1267 q 392 1197 360 1219 q 468 1174 424 1174 q 545 1197 514 1174 q 583 1267 576 1219 l 693 1263 q 635 1117 693 1171 q 468 1063 578 1063 m 339 1318 l 239 1325 q 256 1408 243 1374 q 297 1463 268 1443 q 376 1483 325 1483 q 443 1469 415 1483 q 489 1443 471 1454 q 515 1428 497 1439 q 554 1418 533 1418 q 585 1437 574 1418 q 599 1485 596 1456 l 697 1479 q 661 1362 693 1404 q 554 1319 629 1319 q 490 1333 515 1319 q 449 1356 465 1347 q 415 1376 431 1368 q 383 1385 400 1385 q 352 1367 363 1385 q 339 1318 342 1349 z "},"Ǎ":{"ha":938,"x_min":10,"x_max":928,"o":"m 10 0 l 376 979 l 561 979 l 928 0 l 710 0 l 622 272 l 699 196 l 232 196 l 310 272 l 222 0 l 10 0 m 463 767 l 318 324 l 297 365 l 633 365 l 613 324 l 469 767 l 463 767 m 382 1063 l 239 1283 l 392 1283 l 468 1163 l 544 1283 l 697 1283 l 554 1063 l 382 1063 z "},"Â":{"ha":938,"x_min":10,"x_max":928,"o":"m 10 0 l 376 979 l 561 979 l 928 0 l 710 0 l 622 272 l 699 196 l 232 196 l 310 272 l 222 0 l 10 0 m 463 767 l 318 324 l 297 365 l 633 365 l 613 324 l 469 767 l 463 767 m 239 1063 l 382 1283 l 554 1283 l 697 1063 l 544 1063 l 468 1183 l 392 1063 l 239 1063 z "},"Ấ":{"ha":938,"x_min":10,"x_max":928,"o":"m 10 0 l 376 979 l 561 979 l 928 0 l 710 0 l 622 272 l 699 196 l 232 196 l 310 272 l 222 0 l 10 0 m 463 767 l 318 324 l 297 365 l 633 365 l 613 324 l 469 767 l 463 767 m 251 1064 l 385 1301 l 558 1301 l 692 1064 l 547 1064 l 472 1201 l 396 1064 l 251 1064 m 619 1251 l 689 1464 l 840 1464 l 733 1251 l 619 1251 z "},"Ậ":{"ha":938,"x_min":10,"x_max":928,"o":"m 10 0 l 376 979 l 561 979 l 928 0 l 710 0 l 622 272 l 699 196 l 232 196 l 310 272 l 222 0 l 10 0 m 463 767 l 318 324 l 297 365 l 633 365 l 613 324 l 469 767 l 463 767 m 374 -297 l 374 -114 l 563 -114 l 563 -297 l 374 -297 m 239 1063 l 382 1283 l 554 1283 l 697 1063 l 544 1063 l 468 1183 l 392 1063 l 239 1063 z "},"Ầ":{"ha":938,"x_min":10,"x_max":928,"o":"m 10 0 l 376 979 l 561 979 l 928 0 l 710 0 l 622 272 l 699 196 l 232 196 l 310 272 l 222 0 l 10 0 m 463 767 l 318 324 l 297 365 l 633 365 l 613 324 l 469 767 l 463 767 m 251 1064 l 385 1301 l 558 1301 l 692 1064 l 547 1064 l 472 1201 l 396 1064 l 251 1064 m 656 1251 l 551 1464 l 701 1464 l 769 1251 l 656 1251 z "},"Ẩ":{"ha":938,"x_min":10,"x_max":928,"o":"m 10 0 l 376 979 l 561 979 l 928 0 l 710 0 l 622 272 l 699 196 l 232 196 l 310 272 l 222 0 l 10 0 m 463 767 l 318 324 l 297 365 l 633 365 l 613 324 l 469 767 l 463 767 m 251 1064 l 385 1254 l 558 1254 l 692 1064 l 547 1064 l 472 1179 l 396 1064 l 251 1064 m 608 1246 q 615 1281 608 1265 q 630 1308 621 1296 q 646 1332 639 1321 q 653 1356 653 1343 q 644 1375 653 1369 q 615 1381 635 1381 q 587 1376 601 1381 q 560 1363 572 1371 l 535 1442 q 594 1465 560 1457 q 671 1474 629 1474 q 763 1452 731 1474 q 794 1393 794 1431 q 783 1350 794 1368 q 758 1317 772 1332 q 733 1285 744 1301 q 721 1246 721 1268 l 608 1246 z "},"Ẫ":{"ha":938,"x_min":10,"x_max":928,"o":"m 10 0 l 376 979 l 561 979 l 928 0 l 710 0 l 622 272 l 699 196 l 232 196 l 310 272 l 222 0 l 10 0 m 463 767 l 318 324 l 297 365 l 633 365 l 613 324 l 469 767 l 463 767 m 249 1064 l 382 1250 l 556 1250 l 689 1064 l 542 1064 l 469 1172 l 396 1064 l 249 1064 m 339 1300 l 239 1306 q 275 1421 244 1378 q 376 1464 306 1464 q 443 1449 415 1464 q 489 1425 471 1435 q 515 1409 497 1419 q 554 1399 533 1399 q 585 1417 574 1399 q 599 1467 596 1435 l 697 1460 q 658 1343 693 1385 q 554 1301 624 1301 q 490 1315 515 1301 q 449 1336 465 1328 q 415 1357 431 1349 q 383 1365 400 1365 q 353 1348 364 1365 q 339 1300 342 1331 z "},"Ȁ":{"ha":938,"x_min":10,"x_max":928,"o":"m 10 0 l 376 979 l 561 979 l 928 0 l 710 0 l 622 272 l 699 196 l 232 196 l 310 272 l 222 0 l 10 0 m 463 767 l 318 324 l 297 365 l 633 365 l 613 324 l 469 767 l 463 767 m 508 1063 l 353 1283 l 532 1283 l 626 1063 l 508 1063 m 310 1063 l 135 1283 l 313 1283 l 428 1063 l 310 1063 z "},"Ä":{"ha":938,"x_min":10,"x_max":928,"o":"m 10 0 l 376 979 l 561 979 l 928 0 l 710 0 l 622 272 l 699 196 l 232 196 l 310 272 l 222 0 l 10 0 m 463 767 l 318 324 l 297 365 l 633 365 l 613 324 l 469 767 l 463 767 m 513 1086 l 513 1264 l 700 1264 l 700 1086 l 513 1086 m 236 1086 l 236 1264 l 424 1264 l 424 1086 l 236 1086 z "},"Ȧ":{"ha":938,"x_min":10,"x_max":928,"o":"m 10 0 l 376 979 l 561 979 l 928 0 l 710 0 l 622 272 l 699 196 l 232 196 l 310 272 l 222 0 l 10 0 m 463 767 l 318 324 l 297 365 l 633 365 l 613 324 l 469 767 l 463 767 m 371 1089 l 371 1275 l 564 1275 l 564 1089 l 371 1089 z "},"Ạ":{"ha":938,"x_min":10,"x_max":928,"o":"m 10 0 l 376 979 l 561 979 l 928 0 l 710 0 l 622 272 l 699 196 l 232 196 l 310 272 l 222 0 l 10 0 m 463 767 l 318 324 l 297 365 l 633 365 l 613 324 l 469 767 l 463 767 m 374 -297 l 374 -114 l 563 -114 l 563 -297 l 374 -297 z "},"À":{"ha":938,"x_min":10,"x_max":928,"o":"m 10 0 l 376 979 l 561 979 l 928 0 l 710 0 l 622 272 l 699 196 l 232 196 l 310 272 l 222 0 l 10 0 m 463 767 l 318 324 l 297 365 l 633 365 l 613 324 l 469 767 l 463 767 m 397 1063 l 196 1283 l 407 1283 l 540 1063 l 397 1063 z "},"Ả":{"ha":938,"x_min":10,"x_max":928,"o":"m 10 0 l 376 979 l 561 979 l 928 0 l 710 0 l 622 272 l 699 196 l 232 196 l 310 272 l 222 0 l 10 0 m 463 767 l 318 324 l 297 365 l 633 365 l 613 324 l 469 767 l 463 767 m 408 1063 l 408 1089 q 417 1123 408 1108 q 435 1149 425 1138 q 453 1171 446 1160 q 461 1194 461 1182 q 453 1214 461 1208 q 426 1219 444 1219 q 394 1216 411 1219 q 360 1204 376 1213 l 332 1288 q 394 1311 358 1303 q 472 1319 431 1319 q 576 1295 540 1319 q 613 1226 613 1271 q 600 1178 613 1197 q 571 1146 588 1160 q 541 1118 554 1132 q 528 1085 528 1104 l 528 1063 l 408 1063 z "},"Ȃ":{"ha":938,"x_min":10,"x_max":928,"o":"m 10 0 l 376 979 l 561 979 l 928 0 l 710 0 l 622 272 l 699 196 l 232 196 l 310 272 l 222 0 l 10 0 m 463 767 l 318 324 l 297 365 l 633 365 l 613 324 l 469 767 l 463 767 m 368 1056 l 246 1065 q 307 1242 249 1183 q 468 1301 365 1301 q 629 1242 571 1301 q 690 1065 688 1182 l 568 1056 q 545 1133 567 1106 q 469 1161 524 1161 q 395 1135 419 1161 q 368 1056 371 1108 z "},"Ā":{"ha":938,"x_min":10,"x_max":928,"o":"m 10 0 l 376 979 l 561 979 l 928 0 l 710 0 l 622 272 l 699 196 l 232 196 l 310 272 l 222 0 l 10 0 m 463 767 l 318 324 l 297 365 l 633 365 l 613 324 l 469 767 l 463 767 m 257 1113 l 257 1258 l 679 1258 l 679 1113 l 257 1113 z "},"Ą":{"ha":938,"x_min":10,"x_max":928,"o":"m 10 0 l 376 979 l 561 979 l 928 0 l 710 0 l 622 272 l 699 196 l 232 196 l 310 272 l 222 0 l 10 0 m 463 767 l 318 324 l 297 365 l 633 365 l 613 324 l 469 767 l 463 767 m 799 -287 q 683 -253 725 -287 q 642 -156 642 -218 q 676 -40 642 -97 q 769 58 710 17 l 833 0 q 803 -32 817 -14 q 783 -70 790 -50 q 775 -111 775 -90 q 788 -155 775 -140 q 826 -169 801 -169 q 853 -166 839 -169 q 885 -157 868 -162 l 908 -264 q 853 -282 878 -276 q 799 -287 828 -287 z "},"Å":{"ha":938,"x_min":10,"x_max":928,"o":"m 10 0 l 376 979 l 561 979 l 928 0 l 710 0 l 622 272 l 699 196 l 232 196 l 310 272 l 222 0 l 10 0 m 463 767 l 318 324 l 297 365 l 633 365 l 613 324 l 469 767 l 463 767 m 468 1044 q 381 1067 419 1044 q 321 1128 343 1090 q 299 1213 299 1167 q 321 1299 299 1261 q 381 1358 343 1336 q 468 1379 419 1379 q 555 1358 517 1379 q 615 1299 593 1336 q 638 1213 638 1261 q 615 1127 638 1165 q 555 1067 593 1089 q 468 1044 517 1044 m 467 1124 q 526 1149 503 1124 q 550 1213 550 1175 q 526 1276 550 1251 q 468 1301 503 1301 q 410 1276 433 1301 q 386 1214 386 1251 q 410 1149 386 1174 q 467 1124 433 1124 z "},"Ǻ":{"ha":938,"x_min":10,"x_max":928,"o":"m 10 0 l 376 979 l 561 979 l 928 0 l 710 0 l 622 272 l 699 196 l 232 196 l 310 272 l 222 0 l 10 0 m 463 767 l 318 324 l 297 365 l 633 365 l 613 324 l 469 767 l 463 767 m 468 1057 q 371 1082 414 1057 q 302 1151 328 1107 q 276 1247 276 1194 q 301 1343 276 1300 q 370 1411 326 1386 q 468 1436 414 1436 q 515 1431 493 1436 q 558 1414 538 1425 l 600 1489 l 772 1489 l 635 1343 q 653 1298 646 1322 q 661 1247 661 1274 q 635 1150 661 1193 q 566 1082 610 1107 q 468 1057 522 1057 m 468 1149 q 533 1176 507 1149 q 558 1246 558 1204 q 533 1318 558 1292 q 468 1344 507 1344 q 404 1317 431 1344 q 378 1247 378 1290 q 403 1176 378 1204 q 468 1149 429 1149 z "},"Ã":{"ha":938,"x_min":10,"x_max":928,"o":"m 10 0 l 376 979 l 561 979 l 928 0 l 710 0 l 622 272 l 699 196 l 232 196 l 310 272 l 222 0 l 10 0 m 463 767 l 318 324 l 297 365 l 633 365 l 613 324 l 469 767 l 463 767 m 310 1058 l 200 1065 q 238 1212 199 1156 q 350 1268 278 1268 q 429 1251 394 1268 q 485 1226 464 1233 q 524 1208 501 1219 q 571 1197 547 1197 q 614 1219 600 1197 q 625 1274 628 1240 l 736 1268 q 699 1122 738 1178 q 585 1065 660 1065 q 506 1081 542 1065 q 454 1106 471 1097 q 414 1124 439 1113 q 365 1135 389 1135 q 323 1115 336 1135 q 310 1058 310 1094 z "},"Æ":{"ha":1228,"x_min":-36,"x_max":1131,"o":"m -36 0 l 428 979 l 1131 979 l 1131 807 l 649 807 l 721 874 l 779 521 l 676 581 l 1108 581 l 1108 410 l 711 410 l 788 472 l 849 100 l 751 172 l 1131 172 l 1131 0 l 654 0 l 607 275 l 672 193 l 238 193 l 317 269 l 193 0 l -36 0 m 521 763 l 329 328 l 326 364 l 640 364 l 600 322 l 526 763 l 521 763 z "},"Ǽ":{"ha":1228,"x_min":-36,"x_max":1131,"o":"m -36 0 l 428 979 l 1131 979 l 1131 807 l 649 807 l 721 874 l 779 521 l 676 581 l 1108 581 l 1108 410 l 711 410 l 788 472 l 849 100 l 751 172 l 1131 172 l 1131 0 l 654 0 l 607 275 l 672 193 l 238 193 l 317 269 l 193 0 l -36 0 m 521 763 l 329 328 l 326 364 l 640 364 l 600 322 l 526 763 l 521 763 m 513 1063 l 647 1293 l 875 1293 l 674 1063 l 513 1063 z "},"B":{"ha":888,"x_min":108,"x_max":811,"o":"m 108 0 l 108 979 l 485 979 q 706 914 624 979 q 789 725 789 849 q 757 584 789 639 q 678 508 725 529 l 678 504 q 744 466 714 494 q 792 392 774 438 q 811 278 811 346 q 772 129 811 192 q 663 33 733 67 q 494 0 592 0 l 108 0 m 313 165 l 488 165 q 527 171 508 165 q 560 186 546 176 q 585 212 575 196 q 601 247 596 228 q 606 289 606 267 q 601 333 606 314 q 585 368 596 353 q 560 393 575 383 q 528 408 546 403 q 489 413 510 413 l 313 413 l 313 165 m 313 575 l 469 575 q 555 608 525 575 q 585 699 585 640 q 556 784 585 754 q 467 814 526 814 l 313 814 l 313 575 z "},"Ɓ":{"ha":1067,"x_min":10,"x_max":990,"o":"m 288 0 l 288 829 l 265 829 q 194 804 214 829 q 174 717 174 779 l 174 644 l 10 644 l 10 722 q 72 917 10 856 q 265 979 135 979 l 672 979 q 889 914 810 979 q 968 725 968 849 q 936 584 968 639 q 857 508 904 529 l 857 504 q 923 466 893 494 q 972 392 953 438 q 990 278 990 346 q 951 129 990 192 q 842 33 913 67 q 674 0 771 0 l 288 0 m 492 161 l 667 161 q 753 195 721 161 q 785 288 785 229 q 753 383 785 351 q 668 414 721 414 l 492 414 l 492 161 m 492 574 l 647 574 q 734 606 704 574 q 764 699 764 639 q 735 788 764 757 q 646 818 706 818 l 492 818 l 492 574 z "},"C":{"ha":838,"x_min":82,"x_max":764,"o":"m 488 -15 q 273 42 364 -15 q 132 213 182 100 q 82 490 82 326 q 133 767 82 654 q 274 937 183 879 q 488 994 365 994 q 645 973 576 994 q 764 900 714 951 l 704 739 q 608 797 656 781 q 504 813 561 813 q 351 738 407 813 q 296 492 296 663 q 351 243 296 321 q 506 165 406 165 q 608 182 561 165 q 704 240 656 199 l 764 79 q 644 7 713 29 q 488 -15 576 -15 z "},"Ć":{"ha":838,"x_min":82,"x_max":764,"o":"m 488 -15 q 273 42 364 -15 q 132 213 182 100 q 82 490 82 326 q 133 767 82 654 q 274 937 183 879 q 488 994 365 994 q 645 973 576 994 q 764 900 714 951 l 704 739 q 608 797 656 781 q 504 813 561 813 q 351 738 407 813 q 296 492 296 663 q 351 243 296 321 q 506 165 406 165 q 608 182 561 165 q 704 240 656 199 l 764 79 q 644 7 713 29 q 488 -15 576 -15 m 396 1063 l 531 1293 l 758 1293 l 557 1063 l 396 1063 z "},"Č":{"ha":838,"x_min":82,"x_max":764,"o":"m 488 -15 q 273 42 364 -15 q 132 213 182 100 q 82 490 82 326 q 133 767 82 654 q 274 937 183 879 q 488 994 365 994 q 645 973 576 994 q 764 900 714 951 l 704 739 q 608 797 656 781 q 504 813 561 813 q 351 738 407 813 q 296 492 296 663 q 351 243 296 321 q 506 165 406 165 q 608 182 561 165 q 704 240 656 199 l 764 79 q 644 7 713 29 q 488 -15 576 -15 m 390 1063 l 247 1283 l 400 1283 l 476 1163 l 553 1283 l 706 1283 l 563 1063 l 390 1063 z "},"Ç":{"ha":838,"x_min":82,"x_max":764,"o":"m 488 -15 q 273 42 364 -15 q 132 213 182 100 q 82 490 82 326 q 133 767 82 654 q 274 937 183 879 q 488 994 365 994 q 645 973 576 994 q 764 900 714 951 l 704 739 q 608 797 656 781 q 504 813 561 813 q 351 738 407 813 q 296 492 296 663 q 351 243 296 321 q 506 165 406 165 q 608 182 561 165 q 704 240 656 199 l 764 79 q 644 7 713 29 q 488 -15 576 -15 m 486 -287 q 411 -280 454 -287 q 342 -258 368 -272 l 371 -171 q 422 -190 393 -182 q 488 -199 451 -199 q 528 -190 514 -199 q 542 -160 542 -181 q 526 -130 542 -139 q 492 -121 511 -121 q 463 -124 482 -121 q 435 -129 444 -126 l 407 -103 l 428 28 l 518 28 l 501 -89 l 461 -62 q 496 -53 472 -56 q 547 -50 519 -50 q 601 -60 575 -50 q 645 -95 628 -71 q 663 -160 663 -119 q 641 -233 663 -204 q 580 -274 619 -261 q 486 -287 540 -287 z "},"Ḉ":{"ha":838,"x_min":82,"x_max":764,"o":"m 488 -15 q 273 42 364 -15 q 132 213 182 100 q 82 490 82 326 q 133 767 82 654 q 274 937 183 879 q 488 994 365 994 q 645 973 576 994 q 764 900 714 951 l 704 739 q 608 797 656 781 q 504 813 561 813 q 351 738 407 813 q 296 492 296 663 q 351 243 296 321 q 506 165 406 165 q 608 182 561 165 q 704 240 656 199 l 764 79 q 644 7 713 29 q 488 -15 576 -15 m 486 -287 q 411 -280 454 -287 q 342 -258 368 -272 l 371 -171 q 422 -190 393 -182 q 488 -199 451 -199 q 528 -190 514 -199 q 542 -160 542 -181 q 526 -130 542 -139 q 492 -121 511 -121 q 463 -124 482 -121 q 435 -129 444 -126 l 407 -103 l 428 28 l 518 28 l 501 -89 l 461 -62 q 496 -53 472 -56 q 547 -50 519 -50 q 601 -60 575 -50 q 645 -95 628 -71 q 663 -160 663 -119 q 641 -233 663 -204 q 580 -274 619 -261 q 486 -287 540 -287 m 396 1063 l 531 1293 l 758 1293 l 557 1063 l 396 1063 z "},"Ĉ":{"ha":838,"x_min":82,"x_max":764,"o":"m 488 -15 q 273 42 364 -15 q 132 213 182 100 q 82 490 82 326 q 133 767 82 654 q 274 937 183 879 q 488 994 365 994 q 645 973 576 994 q 764 900 714 951 l 704 739 q 608 797 656 781 q 504 813 561 813 q 351 738 407 813 q 296 492 296 663 q 351 243 296 321 q 506 165 406 165 q 608 182 561 165 q 704 240 656 199 l 764 79 q 644 7 713 29 q 488 -15 576 -15 m 247 1063 l 390 1283 l 563 1283 l 706 1063 l 553 1063 l 476 1183 l 400 1063 l 247 1063 z "},"Ċ":{"ha":838,"x_min":82,"x_max":764,"o":"m 488 -15 q 273 42 364 -15 q 132 213 182 100 q 82 490 82 326 q 133 767 82 654 q 274 937 183 879 q 488 994 365 994 q 645 973 576 994 q 764 900 714 951 l 704 739 q 608 797 656 781 q 504 813 561 813 q 351 738 407 813 q 296 492 296 663 q 351 243 296 321 q 506 165 406 165 q 608 182 561 165 q 704 240 656 199 l 764 79 q 644 7 713 29 q 488 -15 576 -15 m 379 1089 l 379 1275 l 572 1275 l 572 1089 l 379 1089 z "},"D":{"ha":956,"x_min":108,"x_max":872,"o":"m 108 0 l 108 979 l 463 979 q 687 923 596 979 q 825 758 778 867 q 872 490 872 650 q 825 222 872 331 q 687 56 778 113 q 463 0 596 0 l 108 0 m 318 178 l 449 178 q 606 253 553 178 q 658 490 658 328 q 606 726 658 651 q 449 801 554 801 l 318 801 l 318 178 z "},"Ǆ":{"ha":1708,"x_min":108,"x_max":1653,"o":"m 108 0 l 108 979 l 463 979 q 687 923 596 979 q 825 758 778 867 q 872 490 872 650 q 825 222 872 331 q 687 56 778 113 q 463 0 596 0 l 108 0 m 318 178 l 449 178 q 606 253 553 178 q 658 490 658 328 q 606 726 658 651 q 449 801 554 801 l 318 801 l 318 178 m 1014 0 l 1014 144 l 1439 875 l 1458 803 l 1014 803 l 1014 979 l 1639 979 l 1639 838 l 1211 104 l 1192 176 l 1653 176 l 1653 0 l 1014 0 m 1236 1063 l 1093 1283 l 1246 1283 l 1322 1163 l 1399 1283 l 1551 1283 l 1408 1063 l 1236 1063 z "},"Ð":{"ha":956,"x_min":11,"x_max":872,"o":"m 108 0 l 108 979 l 463 979 q 687 923 596 979 q 825 758 778 867 q 872 490 872 650 q 825 222 872 331 q 687 56 778 113 q 463 0 596 0 l 108 0 m 318 178 l 449 178 q 606 253 553 178 q 658 490 658 328 q 606 726 658 651 q 449 801 554 801 l 318 801 l 318 178 m 11 417 l 11 574 l 532 574 l 532 417 l 11 417 z "},"Ď":{"ha":956,"x_min":108,"x_max":872,"o":"m 108 0 l 108 979 l 463 979 q 687 923 596 979 q 825 758 778 867 q 872 490 872 650 q 825 222 872 331 q 687 56 778 113 q 463 0 596 0 l 108 0 m 318 178 l 449 178 q 606 253 553 178 q 658 490 658 328 q 606 726 658 651 q 449 801 554 801 l 318 801 l 318 178 m 385 1063 l 242 1283 l 394 1283 l 471 1163 l 547 1283 l 700 1283 l 557 1063 l 385 1063 z "},"Đ":{"ha":956,"x_min":11,"x_max":872,"o":"m 108 0 l 108 979 l 463 979 q 687 923 596 979 q 825 758 778 867 q 872 490 872 650 q 825 222 872 331 q 687 56 778 113 q 463 0 596 0 l 108 0 m 318 178 l 449 178 q 606 253 553 178 q 658 490 658 328 q 606 726 658 651 q 449 801 554 801 l 318 801 l 318 178 m 11 417 l 11 574 l 532 574 l 532 417 l 11 417 z "},"Ḍ":{"ha":956,"x_min":108,"x_max":872,"o":"m 108 0 l 108 979 l 463 979 q 687 923 596 979 q 825 758 778 867 q 872 490 872 650 q 825 222 872 331 q 687 56 778 113 q 463 0 596 0 l 108 0 m 318 178 l 449 178 q 606 253 553 178 q 658 490 658 328 q 606 726 658 651 q 449 801 554 801 l 318 801 l 318 178 m 378 -297 l 378 -114 l 567 -114 l 567 -297 l 378 -297 z "},"Ɗ":{"ha":1133,"x_min":10,"x_max":1050,"o":"m 288 0 l 288 829 l 265 829 q 194 804 214 829 q 174 717 174 779 l 174 644 l 10 644 l 10 722 q 72 917 10 856 q 268 979 135 979 l 642 979 q 866 923 775 979 q 1003 758 957 867 q 1050 490 1050 650 q 1003 222 1050 331 q 866 56 957 113 q 642 0 775 0 l 288 0 m 497 178 l 626 178 q 785 253 732 178 q 838 490 838 328 q 785 726 838 651 q 626 801 732 801 l 497 801 l 497 178 z "},"Ḏ":{"ha":956,"x_min":108,"x_max":872,"o":"m 108 0 l 108 979 l 463 979 q 687 923 596 979 q 825 758 778 867 q 872 490 872 650 q 825 222 872 331 q 687 56 778 113 q 463 0 596 0 l 108 0 m 318 178 l 449 178 q 606 253 553 178 q 658 490 658 328 q 606 726 658 651 q 449 801 554 801 l 318 801 l 318 178 m 261 -261 l 261 -117 l 685 -117 l 685 -261 l 261 -261 z "},"ǅ":{"ha":1607,"x_min":108,"x_max":1553,"o":"m 108 0 l 108 979 l 463 979 q 687 923 596 979 q 825 758 778 867 q 872 490 872 650 q 825 222 872 331 q 687 56 778 113 q 463 0 596 0 l 108 0 m 318 178 l 449 178 q 606 253 553 178 q 658 490 658 328 q 606 726 658 651 q 449 801 554 801 l 318 801 l 318 178 m 1026 0 l 1026 139 l 1346 599 l 1343 540 l 1029 540 l 1029 699 l 1542 699 l 1542 565 l 1217 106 l 1218 158 l 1554 158 l 1554 0 l 1026 0 m 1200 779 l 1067 1049 l 1217 1049 l 1290 890 l 1365 1049 l 1514 1049 l 1381 779 l 1200 779 z "},"E":{"ha":788,"x_min":108,"x_max":692,"o":"m 108 0 l 108 979 l 692 979 l 692 807 l 313 807 l 313 581 l 663 581 l 663 410 l 313 410 l 313 172 l 692 172 l 692 0 l 108 0 z "},"É":{"ha":788,"x_min":108,"x_max":692,"o":"m 108 0 l 108 979 l 692 979 l 692 807 l 313 807 l 313 581 l 663 581 l 663 410 l 313 410 l 313 172 l 692 172 l 692 0 l 108 0 m 329 1063 l 464 1293 l 692 1293 l 490 1063 l 329 1063 z "},"Ĕ":{"ha":788,"x_min":108,"x_max":692,"o":"m 108 0 l 108 979 l 692 979 l 692 807 l 313 807 l 313 581 l 663 581 l 663 410 l 313 410 l 313 172 l 692 172 l 692 0 l 108 0 m 410 1056 q 249 1116 307 1056 q 188 1290 190 1176 l 310 1301 q 335 1222 313 1249 q 410 1196 357 1196 q 485 1222 463 1196 q 510 1301 508 1249 l 632 1290 q 571 1116 629 1176 q 410 1056 513 1056 z "},"Ě":{"ha":788,"x_min":108,"x_max":692,"o":"m 108 0 l 108 979 l 692 979 l 692 807 l 313 807 l 313 581 l 663 581 l 663 410 l 313 410 l 313 172 l 692 172 l 692 0 l 108 0 m 324 1063 l 181 1283 l 333 1283 l 410 1163 l 486 1283 l 639 1283 l 496 1063 l 324 1063 z "},"Ȩ":{"ha":788,"x_min":108,"x_max":692,"o":"m 108 0 l 108 979 l 692 979 l 692 807 l 313 807 l 313 581 l 663 581 l 663 410 l 313 410 l 313 172 l 692 172 l 692 0 l 108 0 m 419 -287 q 344 -280 388 -287 q 275 -258 301 -272 l 304 -171 q 356 -190 326 -182 q 421 -199 385 -199 q 461 -190 447 -199 q 475 -160 475 -181 q 460 -130 475 -139 q 425 -121 444 -121 q 397 -124 415 -121 q 368 -129 378 -126 l 340 -103 l 361 28 l 451 28 l 435 -89 l 394 -62 q 429 -53 406 -56 q 481 -50 453 -50 q 535 -60 508 -50 q 578 -95 561 -71 q 596 -160 596 -119 q 574 -233 596 -204 q 513 -274 553 -261 q 419 -287 474 -287 z "},"Ḝ":{"ha":788,"x_min":108,"x_max":692,"o":"m 108 0 l 108 979 l 692 979 l 692 807 l 313 807 l 313 581 l 663 581 l 663 410 l 313 410 l 313 172 l 692 172 l 692 0 l 108 0 m 419 -287 q 344 -280 388 -287 q 275 -258 301 -272 l 304 -171 q 356 -190 326 -182 q 421 -199 385 -199 q 461 -190 447 -199 q 475 -160 475 -181 q 460 -130 475 -139 q 425 -121 444 -121 q 397 -124 415 -121 q 368 -129 378 -126 l 340 -103 l 361 28 l 451 28 l 435 -89 l 394 -62 q 429 -53 406 -56 q 481 -50 453 -50 q 535 -60 508 -50 q 578 -95 561 -71 q 596 -160 596 -119 q 574 -233 596 -204 q 513 -274 553 -261 q 419 -287 474 -287 m 410 1056 q 249 1116 307 1056 q 188 1290 190 1176 l 310 1301 q 335 1222 313 1249 q 410 1196 357 1196 q 485 1222 463 1196 q 510 1301 508 1249 l 632 1290 q 571 1116 629 1176 q 410 1056 513 1056 z "},"Ê":{"ha":788,"x_min":108,"x_max":692,"o":"m 108 0 l 108 979 l 692 979 l 692 807 l 313 807 l 313 581 l 663 581 l 663 410 l 313 410 l 313 172 l 692 172 l 692 0 l 108 0 m 181 1063 l 324 1283 l 496 1283 l 639 1063 l 486 1063 l 410 1183 l 333 1063 l 181 1063 z "},"Ế":{"ha":788,"x_min":108,"x_max":782,"o":"m 108 0 l 108 979 l 692 979 l 692 807 l 313 807 l 313 581 l 663 581 l 663 410 l 313 410 l 313 172 l 692 172 l 692 0 l 108 0 m 193 1064 l 326 1301 l 500 1301 l 633 1064 l 489 1064 l 414 1201 l 338 1064 l 193 1064 m 561 1251 l 631 1464 l 782 1464 l 675 1251 l 561 1251 z "},"Ệ":{"ha":788,"x_min":108,"x_max":692,"o":"m 108 0 l 108 979 l 692 979 l 692 807 l 313 807 l 313 581 l 663 581 l 663 410 l 313 410 l 313 172 l 692 172 l 692 0 l 108 0 m 315 -297 l 315 -114 l 504 -114 l 504 -297 l 315 -297 m 181 1063 l 324 1283 l 496 1283 l 639 1063 l 486 1063 l 410 1183 l 333 1063 l 181 1063 z "},"Ề":{"ha":788,"x_min":108,"x_max":713,"o":"m 108 0 l 108 979 l 692 979 l 692 807 l 313 807 l 313 581 l 663 581 l 663 410 l 313 410 l 313 172 l 692 172 l 692 0 l 108 0 m 193 1064 l 326 1301 l 500 1301 l 633 1064 l 489 1064 l 414 1201 l 338 1064 l 193 1064 m 597 1251 l 493 1464 l 643 1464 l 711 1251 l 597 1251 z "},"Ể":{"ha":788,"x_min":108,"x_max":736,"o":"m 108 0 l 108 979 l 692 979 l 692 807 l 313 807 l 313 581 l 663 581 l 663 410 l 313 410 l 313 172 l 692 172 l 692 0 l 108 0 m 193 1064 l 326 1254 l 500 1254 l 633 1064 l 489 1064 l 414 1179 l 338 1064 l 193 1064 m 550 1246 q 556 1281 550 1265 q 572 1308 563 1296 q 588 1332 581 1321 q 594 1356 594 1343 q 585 1375 594 1369 q 557 1381 576 1381 q 528 1376 543 1381 q 501 1363 514 1371 l 476 1442 q 536 1465 501 1457 q 613 1474 571 1474 q 704 1452 672 1474 q 736 1393 736 1431 q 725 1350 736 1368 q 700 1317 714 1332 q 674 1285 686 1301 q 663 1246 663 1268 l 550 1246 z "},"Ễ":{"ha":788,"x_min":108,"x_max":692,"o":"m 108 0 l 108 979 l 692 979 l 692 807 l 313 807 l 313 581 l 663 581 l 663 410 l 313 410 l 313 172 l 692 172 l 692 0 l 108 0 m 190 1064 l 324 1250 l 497 1250 l 631 1064 l 483 1064 l 411 1172 l 338 1064 l 190 1064 m 281 1300 l 181 1306 q 217 1421 186 1378 q 318 1464 247 1464 q 385 1449 357 1464 q 431 1425 413 1435 q 457 1409 439 1419 q 496 1399 475 1399 q 526 1417 515 1399 q 540 1467 538 1435 l 639 1460 q 600 1343 635 1385 q 496 1301 565 1301 q 432 1315 457 1301 q 390 1336 407 1328 q 357 1357 372 1349 q 325 1365 342 1365 q 294 1348 306 1365 q 281 1300 283 1331 z "},"Ȅ":{"ha":788,"x_min":76,"x_max":692,"o":"m 108 0 l 108 979 l 692 979 l 692 807 l 313 807 l 313 581 l 663 581 l 663 410 l 313 410 l 313 172 l 692 172 l 692 0 l 108 0 m 450 1063 l 294 1283 l 474 1283 l 568 1063 l 450 1063 m 251 1063 l 76 1283 l 254 1283 l 369 1063 l 251 1063 z "},"Ë":{"ha":788,"x_min":108,"x_max":692,"o":"m 108 0 l 108 979 l 692 979 l 692 807 l 313 807 l 313 581 l 663 581 l 663 410 l 313 410 l 313 172 l 692 172 l 692 0 l 108 0 m 454 1086 l 454 1264 l 642 1264 l 642 1086 l 454 1086 m 178 1086 l 178 1264 l 365 1264 l 365 1086 l 178 1086 z "},"Ė":{"ha":788,"x_min":108,"x_max":692,"o":"m 108 0 l 108 979 l 692 979 l 692 807 l 313 807 l 313 581 l 663 581 l 663 410 l 313 410 l 313 172 l 692 172 l 692 0 l 108 0 m 313 1089 l 313 1275 l 506 1275 l 506 1089 l 313 1089 z "},"Ẹ":{"ha":788,"x_min":108,"x_max":692,"o":"m 108 0 l 108 979 l 692 979 l 692 807 l 313 807 l 313 581 l 663 581 l 663 410 l 313 410 l 313 172 l 692 172 l 692 0 l 108 0 m 315 -297 l 315 -114 l 504 -114 l 504 -297 l 315 -297 z "},"È":{"ha":788,"x_min":108,"x_max":692,"o":"m 108 0 l 108 979 l 692 979 l 692 807 l 313 807 l 313 581 l 663 581 l 663 410 l 313 410 l 313 172 l 692 172 l 692 0 l 108 0 m 339 1063 l 138 1283 l 349 1283 l 482 1063 l 339 1063 z "},"Ẻ":{"ha":788,"x_min":108,"x_max":692,"o":"m 108 0 l 108 979 l 692 979 l 692 807 l 313 807 l 313 581 l 663 581 l 663 410 l 313 410 l 313 172 l 692 172 l 692 0 l 108 0 m 350 1063 l 350 1089 q 358 1123 350 1108 q 377 1149 367 1138 q 395 1171 388 1160 q 403 1194 403 1182 q 394 1214 403 1208 q 368 1219 386 1219 q 335 1216 353 1219 q 301 1204 318 1213 l 274 1288 q 336 1311 300 1303 q 414 1319 372 1319 q 518 1295 482 1319 q 554 1226 554 1271 q 542 1178 554 1197 q 513 1146 529 1160 q 483 1118 496 1132 q 469 1085 469 1104 l 469 1063 l 350 1063 z "},"Ȇ":{"ha":788,"x_min":108,"x_max":692,"o":"m 108 0 l 108 979 l 692 979 l 692 807 l 313 807 l 313 581 l 663 581 l 663 410 l 313 410 l 313 172 l 692 172 l 692 0 l 108 0 m 310 1056 l 188 1065 q 249 1242 190 1183 q 410 1301 307 1301 q 571 1242 513 1301 q 632 1065 629 1182 l 510 1056 q 487 1133 508 1106 q 411 1161 465 1161 q 337 1135 361 1161 q 310 1056 313 1108 z "},"Ē":{"ha":788,"x_min":108,"x_max":692,"o":"m 108 0 l 108 979 l 692 979 l 692 807 l 313 807 l 313 581 l 663 581 l 663 410 l 313 410 l 313 172 l 692 172 l 692 0 l 108 0 m 199 1113 l 199 1258 l 621 1258 l 621 1113 l 199 1113 z "},"Ḗ":{"ha":788,"x_min":108,"x_max":692,"o":"m 108 0 l 108 979 l 692 979 l 692 807 l 313 807 l 313 581 l 663 581 l 663 410 l 313 410 l 313 172 l 692 172 l 692 0 l 108 0 m 201 1094 l 201 1221 l 618 1221 l 618 1094 l 201 1094 m 317 1279 l 413 1476 l 622 1476 l 460 1279 l 317 1279 z "},"Ḕ":{"ha":788,"x_min":108,"x_max":692,"o":"m 108 0 l 108 979 l 692 979 l 692 807 l 313 807 l 313 581 l 663 581 l 663 410 l 313 410 l 313 172 l 692 172 l 692 0 l 108 0 m 360 1279 l 197 1476 l 407 1476 l 503 1279 l 360 1279 m 201 1094 l 201 1221 l 618 1221 l 618 1094 l 201 1094 z "},"Ę":{"ha":788,"x_min":108,"x_max":703,"o":"m 108 0 l 108 979 l 692 979 l 692 807 l 313 807 l 313 581 l 663 581 l 663 410 l 313 410 l 313 172 l 692 172 l 692 0 l 108 0 m 593 -287 q 478 -253 519 -287 q 436 -156 436 -218 q 470 -40 436 -97 q 564 58 504 17 l 628 0 q 598 -32 611 -14 q 577 -70 585 -50 q 569 -111 569 -90 q 583 -155 569 -140 q 621 -169 596 -169 q 648 -166 633 -169 q 679 -157 663 -162 l 703 -264 q 647 -282 672 -276 q 593 -287 622 -287 z "},"Ẽ":{"ha":788,"x_min":108,"x_max":692,"o":"m 108 0 l 108 979 l 692 979 l 692 807 l 313 807 l 313 581 l 663 581 l 663 410 l 313 410 l 313 172 l 692 172 l 692 0 l 108 0 m 251 1058 l 142 1065 q 180 1212 140 1156 q 292 1268 219 1268 q 371 1251 336 1268 q 426 1226 406 1233 q 466 1208 443 1219 q 513 1197 489 1197 q 556 1219 542 1197 q 567 1274 569 1240 l 678 1268 q 640 1122 679 1178 q 526 1065 601 1065 q 448 1081 483 1065 q 396 1106 413 1097 q 356 1124 381 1113 q 307 1135 331 1135 q 265 1115 278 1135 q 251 1058 251 1094 z "},"Ə":{"ha":985,"x_min":82,"x_max":901,"o":"m 483 -15 q 281 40 371 -15 q 136 205 190 96 q 82 479 82 314 l 82 571 l 751 571 l 751 414 l 260 414 l 299 439 q 353 233 303 303 q 489 163 403 163 q 636 244 582 163 q 690 481 690 325 q 632 730 690 653 q 447 807 574 807 q 356 798 400 807 q 273 772 313 789 q 200 731 233 756 l 139 907 q 233 953 176 933 q 351 984 289 974 q 465 994 413 994 q 713 938 617 994 q 856 772 810 882 q 901 497 901 661 q 872 283 901 378 q 789 122 843 189 q 658 20 735 56 q 483 -15 581 -15 z "},"F":{"ha":749,"x_min":108,"x_max":690,"o":"m 108 0 l 108 979 l 690 979 l 690 807 l 318 807 l 318 567 l 668 567 l 668 394 l 318 394 l 318 0 l 108 0 z "},"G":{"ha":924,"x_min":82,"x_max":825,"o":"m 501 -15 q 279 42 374 -15 q 133 212 185 100 q 82 490 82 324 q 131 767 82 656 q 275 937 181 879 q 500 994 369 994 q 619 984 563 994 q 723 953 675 974 q 804 900 771 933 l 747 740 q 635 797 693 781 q 515 813 576 813 q 353 740 411 813 q 294 493 294 667 q 349 240 294 319 q 515 160 403 160 q 618 167 574 160 q 704 190 663 174 l 646 132 l 646 393 l 492 393 l 492 551 l 825 551 l 825 53 q 732 17 785 32 q 621 -7 679 1 q 501 -15 563 -15 z "},"Ğ":{"ha":924,"x_min":82,"x_max":825,"o":"m 501 -15 q 279 42 374 -15 q 133 212 185 100 q 82 490 82 324 q 131 767 82 656 q 275 937 181 879 q 500 994 369 994 q 619 984 563 994 q 723 953 675 974 q 804 900 771 933 l 747 740 q 635 797 693 781 q 515 813 576 813 q 353 740 411 813 q 294 493 294 667 q 349 240 294 319 q 515 160 403 160 q 618 167 574 160 q 704 190 663 174 l 646 132 l 646 393 l 492 393 l 492 551 l 825 551 l 825 53 q 732 17 785 32 q 621 -7 679 1 q 501 -15 563 -15 m 504 1056 q 343 1116 401 1056 q 282 1290 285 1176 l 404 1301 q 429 1222 407 1249 q 504 1196 451 1196 q 580 1222 557 1196 q 604 1301 603 1249 l 726 1290 q 665 1116 724 1176 q 504 1056 607 1056 z "},"Ǧ":{"ha":924,"x_min":82,"x_max":825,"o":"m 501 -15 q 279 42 374 -15 q 133 212 185 100 q 82 490 82 324 q 131 767 82 656 q 275 937 181 879 q 500 994 369 994 q 619 984 563 994 q 723 953 675 974 q 804 900 771 933 l 747 740 q 635 797 693 781 q 515 813 576 813 q 353 740 411 813 q 294 493 294 667 q 349 240 294 319 q 515 160 403 160 q 618 167 574 160 q 704 190 663 174 l 646 132 l 646 393 l 492 393 l 492 551 l 825 551 l 825 53 q 732 17 785 32 q 621 -7 679 1 q 501 -15 563 -15 m 418 1063 l 275 1283 l 428 1283 l 504 1163 l 581 1283 l 733 1283 l 590 1063 l 418 1063 z "},"Ĝ":{"ha":924,"x_min":82,"x_max":825,"o":"m 501 -15 q 279 42 374 -15 q 133 212 185 100 q 82 490 82 324 q 131 767 82 656 q 275 937 181 879 q 500 994 369 994 q 619 984 563 994 q 723 953 675 974 q 804 900 771 933 l 747 740 q 635 797 693 781 q 515 813 576 813 q 353 740 411 813 q 294 493 294 667 q 349 240 294 319 q 515 160 403 160 q 618 167 574 160 q 704 190 663 174 l 646 132 l 646 393 l 492 393 l 492 551 l 825 551 l 825 53 q 732 17 785 32 q 621 -7 679 1 q 501 -15 563 -15 m 275 1063 l 418 1283 l 590 1283 l 733 1063 l 581 1063 l 504 1183 l 428 1063 l 275 1063 z "},"Ģ":{"ha":924,"x_min":82,"x_max":825,"o":"m 501 -15 q 279 42 374 -15 q 133 212 185 100 q 82 490 82 324 q 131 767 82 656 q 275 937 181 879 q 500 994 369 994 q 619 984 563 994 q 723 953 675 974 q 804 900 771 933 l 747 740 q 635 797 693 781 q 515 813 576 813 q 353 740 411 813 q 294 493 294 667 q 349 240 294 319 q 515 160 403 160 q 618 167 574 160 q 704 190 663 174 l 646 132 l 646 393 l 492 393 l 492 551 l 825 551 l 825 53 q 732 17 785 32 q 621 -7 679 1 q 501 -15 563 -15 m 515 -431 l 440 -381 q 481 -312 468 -350 q 494 -239 494 -274 l 531 -258 l 410 -258 l 410 -97 l 592 -97 l 592 -221 q 575 -335 592 -282 q 515 -431 558 -389 z "},"Ġ":{"ha":924,"x_min":82,"x_max":825,"o":"m 501 -15 q 279 42 374 -15 q 133 212 185 100 q 82 490 82 324 q 131 767 82 656 q 275 937 181 879 q 500 994 369 994 q 619 984 563 994 q 723 953 675 974 q 804 900 771 933 l 747 740 q 635 797 693 781 q 515 813 576 813 q 353 740 411 813 q 294 493 294 667 q 349 240 294 319 q 515 160 403 160 q 618 167 574 160 q 704 190 663 174 l 646 132 l 646 393 l 492 393 l 492 551 l 825 551 l 825 53 q 732 17 785 32 q 621 -7 679 1 q 501 -15 563 -15 m 407 1089 l 407 1275 l 600 1275 l 600 1089 l 407 1089 z "},"Ḡ":{"ha":924,"x_min":82,"x_max":825,"o":"m 501 -15 q 279 42 374 -15 q 133 212 185 100 q 82 490 82 324 q 131 767 82 656 q 275 937 181 879 q 500 994 369 994 q 619 984 563 994 q 723 953 675 974 q 804 900 771 933 l 747 740 q 635 797 693 781 q 515 813 576 813 q 353 740 411 813 q 294 493 294 667 q 349 240 294 319 q 515 160 403 160 q 618 167 574 160 q 704 190 663 174 l 646 132 l 646 393 l 492 393 l 492 551 l 825 551 l 825 53 q 732 17 785 32 q 621 -7 679 1 q 501 -15 563 -15 m 293 1113 l 293 1258 l 715 1258 l 715 1113 l 293 1113 z "},"H":{"ha":960,"x_min":108,"x_max":851,"o":"m 108 0 l 108 979 l 318 979 l 318 585 l 642 585 l 642 979 l 851 979 l 851 0 l 642 0 l 642 406 l 318 406 l 318 0 l 108 0 z "},"Ħ":{"ha":1001,"x_min":35,"x_max":967,"o":"m 129 0 l 129 703 l 35 703 l 35 853 l 129 853 l 129 979 l 339 979 l 339 847 l 663 847 l 663 979 l 872 979 l 872 853 l 967 853 l 967 703 l 872 703 l 872 0 l 663 0 l 663 389 l 339 389 l 339 0 l 129 0 m 339 568 l 663 568 l 663 708 l 339 708 l 339 568 z "},"Ḫ":{"ha":960,"x_min":108,"x_max":851,"o":"m 108 0 l 108 979 l 318 979 l 318 585 l 642 585 l 642 979 l 851 979 l 851 0 l 642 0 l 642 406 l 318 406 l 318 0 l 108 0 m 479 -292 q 314 -236 371 -292 q 254 -86 257 -181 l 376 -76 q 405 -142 379 -121 q 479 -162 431 -162 q 553 -142 528 -162 q 582 -76 579 -122 l 704 -86 q 645 -236 703 -181 q 479 -292 588 -292 z "},"Ĥ":{"ha":960,"x_min":108,"x_max":851,"o":"m 108 0 l 108 979 l 318 979 l 318 585 l 642 585 l 642 979 l 851 979 l 851 0 l 642 0 l 642 406 l 318 406 l 318 0 l 108 0 m 250 1063 l 393 1283 l 565 1283 l 708 1063 l 556 1063 l 479 1183 l 403 1063 l 250 1063 z "},"Ḥ":{"ha":960,"x_min":108,"x_max":851,"o":"m 108 0 l 108 979 l 318 979 l 318 585 l 642 585 l 642 979 l 851 979 l 851 0 l 642 0 l 642 406 l 318 406 l 318 0 l 108 0 m 385 -297 l 385 -114 l 574 -114 l 574 -297 l 385 -297 z "},"I":{"ha":426,"x_min":108,"x_max":318,"o":"m 108 0 l 108 979 l 318 979 l 318 0 l 108 0 z "},"Ĳ":{"ha":963,"x_min":108,"x_max":854,"o":"m 108 0 l 108 979 l 318 979 l 318 0 l 108 0 m 458 -14 l 443 163 l 557 169 q 604 185 585 171 q 634 224 624 199 q 644 283 644 249 l 644 979 l 854 979 l 854 263 q 824 122 854 181 q 738 31 794 64 q 594 -7 681 -3 l 458 -14 z "},"Í":{"ha":426,"x_min":108,"x_max":494,"o":"m 108 0 l 108 979 l 318 979 l 318 0 l 108 0 m 132 1063 l 267 1293 l 494 1293 l 293 1063 l 132 1063 z "},"Ĭ":{"ha":426,"x_min":-8,"x_max":435,"o":"m 108 0 l 108 979 l 318 979 l 318 0 l 108 0 m 213 1056 q 51 1116 110 1056 q -10 1290 -7 1176 l 113 1301 q 138 1222 115 1249 q 213 1196 160 1196 q 288 1222 265 1196 q 313 1301 311 1249 l 435 1290 q 374 1116 432 1176 q 213 1056 315 1056 z "},"Î":{"ha":426,"x_min":-17,"x_max":443,"o":"m 108 0 l 108 979 l 318 979 l 318 0 l 108 0 m -17 1063 l 126 1283 l 299 1283 l 442 1063 l 289 1063 l 213 1183 l 136 1063 l -17 1063 z "},"Ȉ":{"ha":426,"x_min":-121,"x_max":371,"o":"m 108 0 l 108 979 l 318 979 l 318 0 l 108 0 m 253 1063 l 97 1283 l 276 1283 l 371 1063 l 253 1063 m 54 1063 l -121 1283 l 57 1283 l 172 1063 l 54 1063 z "},"Ï":{"ha":426,"x_min":-19,"x_max":446,"o":"m 108 0 l 108 979 l 318 979 l 318 0 l 108 0 m 257 1086 l 257 1264 l 444 1264 l 444 1086 l 257 1086 m -19 1086 l -19 1264 l 168 1264 l 168 1086 l -19 1086 z "},"Ḯ":{"ha":426,"x_min":-10,"x_max":438,"o":"m 108 0 l 108 979 l 318 979 l 318 0 l 108 0 m 132 1258 l 229 1457 l 438 1457 l 275 1258 l 132 1258 m -10 1061 l -10 1210 l 181 1210 l 181 1061 l -10 1061 m 244 1061 l 244 1210 l 435 1210 l 435 1061 l 244 1061 z "},"İ":{"ha":426,"x_min":108,"x_max":318,"o":"m 108 0 l 108 979 l 318 979 l 318 0 l 108 0 m 115 1089 l 115 1275 l 308 1275 l 308 1089 l 115 1089 z "},"Ị":{"ha":426,"x_min":108,"x_max":318,"o":"m 108 0 l 108 979 l 318 979 l 318 0 l 108 0 m 118 -297 l 118 -114 l 307 -114 l 307 -297 l 118 -297 z "},"Ì":{"ha":426,"x_min":-60,"x_max":318,"o":"m 108 0 l 108 979 l 318 979 l 318 0 l 108 0 m 142 1063 l -60 1283 l 151 1283 l 285 1063 l 142 1063 z "},"Ỉ":{"ha":426,"x_min":76,"x_max":358,"o":"m 108 0 l 108 979 l 318 979 l 318 0 l 108 0 m 153 1063 l 153 1089 q 161 1123 153 1108 q 180 1149 169 1138 q 198 1171 190 1160 q 206 1194 206 1182 q 197 1214 206 1208 q 171 1219 189 1219 q 138 1216 156 1219 q 104 1204 121 1213 l 76 1288 q 139 1311 103 1303 q 217 1319 175 1319 q 321 1295 285 1319 q 357 1226 357 1271 q 344 1178 357 1197 q 315 1146 332 1160 q 285 1118 299 1132 q 272 1085 272 1104 l 272 1063 l 153 1063 z "},"Ȋ":{"ha":426,"x_min":-8,"x_max":435,"o":"m 108 0 l 108 979 l 318 979 l 318 0 l 108 0 m 113 1056 l -10 1065 q 51 1242 -7 1183 q 213 1301 110 1301 q 374 1242 315 1301 q 435 1065 432 1182 l 313 1056 q 290 1133 311 1106 q 214 1161 268 1161 q 140 1135 164 1161 q 113 1056 115 1108 z "},"Ī":{"ha":426,"x_min":1,"x_max":424,"o":"m 108 0 l 108 979 l 318 979 l 318 0 l 108 0 m 1 1113 l 1 1258 l 424 1258 l 424 1113 l 1 1113 z "},"Į":{"ha":426,"x_min":81,"x_max":347,"o":"m 108 0 l 108 979 l 318 979 l 318 0 l 108 0 m 238 -287 q 122 -253 164 -287 q 81 -156 81 -218 q 115 -40 81 -97 q 208 58 149 17 l 272 0 q 242 -32 256 -14 q 222 -70 229 -50 q 214 -111 214 -90 q 227 -155 214 -140 q 265 -169 240 -169 q 292 -166 278 -169 q 324 -157 307 -162 l 347 -264 q 292 -282 317 -276 q 238 -287 267 -287 z "},"Ĩ":{"ha":426,"x_min":-57,"x_max":482,"o":"m 108 0 l 108 979 l 318 979 l 318 0 l 108 0 m 54 1058 l -56 1065 q -17 1212 -57 1156 q 94 1268 22 1268 q 174 1251 139 1268 q 229 1226 208 1233 q 269 1208 246 1219 q 315 1197 292 1197 q 358 1219 344 1197 q 369 1274 372 1240 l 481 1268 q 443 1122 482 1178 q 329 1065 404 1065 q 251 1081 286 1065 q 199 1106 215 1097 q 158 1124 183 1113 q 110 1135 133 1135 q 67 1115 81 1135 q 54 1058 54 1094 z "},"J":{"ha":536,"x_min":17,"x_max":428,"o":"m 32 -14 l 17 163 l 131 169 q 178 185 158 171 q 208 224 197 199 q 218 283 218 249 l 218 979 l 428 979 l 428 263 q 398 122 428 181 q 311 31 368 64 q 168 -7 254 -3 l 32 -14 z "},"Ĵ":{"ha":536,"x_min":17,"x_max":551,"o":"m 32 -14 l 17 163 l 131 169 q 178 185 158 171 q 208 224 197 199 q 218 283 218 249 l 218 979 l 428 979 l 428 263 q 398 122 428 181 q 311 31 368 64 q 168 -7 254 -3 l 32 -14 m 93 1063 l 236 1283 l 408 1283 l 551 1063 l 399 1063 l 322 1183 l 246 1063 l 93 1063 z "},"K":{"ha":893,"x_min":108,"x_max":901,"o":"m 108 0 l 108 979 l 318 979 l 318 560 l 326 560 l 628 979 l 874 979 l 471 453 l 490 556 l 901 0 l 636 0 l 326 446 l 318 446 l 318 0 l 108 0 z "},"Ķ":{"ha":893,"x_min":108,"x_max":901,"o":"m 108 0 l 108 979 l 318 979 l 318 560 l 326 560 l 628 979 l 874 979 l 471 453 l 490 556 l 901 0 l 636 0 l 326 446 l 318 446 l 318 0 l 108 0 m 457 -431 l 382 -381 q 423 -312 410 -350 q 436 -239 436 -274 l 472 -258 l 351 -258 l 351 -97 l 533 -97 l 533 -221 q 517 -335 533 -282 q 457 -431 500 -389 z "},"L":{"ha":736,"x_min":108,"x_max":678,"o":"m 108 0 l 108 979 l 318 979 l 318 178 l 678 178 l 678 0 l 108 0 z "},"Ǉ":{"ha":1317,"x_min":108,"x_max":1208,"o":"m 108 0 l 108 979 l 318 979 l 318 178 l 678 178 l 678 0 l 108 0 m 813 -14 l 797 163 l 911 169 q 958 185 939 171 q 988 224 978 199 q 999 283 999 249 l 999 979 l 1208 979 l 1208 263 q 1178 122 1208 181 q 1092 31 1149 64 q 949 -7 1035 -3 l 813 -14 z "},"Ĺ":{"ha":736,"x_min":108,"x_max":678,"o":"m 108 0 l 108 979 l 318 979 l 318 178 l 678 178 l 678 0 l 108 0 m 129 1063 l 264 1293 l 492 1293 l 290 1063 l 129 1063 z "},"Ľ":{"ha":736,"x_min":108,"x_max":678,"o":"m 108 0 l 108 979 l 318 979 l 318 178 l 678 178 l 678 0 l 108 0 m 419 638 l 419 979 l 588 979 l 558 638 l 419 638 z "},"Ļ":{"ha":736,"x_min":108,"x_max":678,"o":"m 108 0 l 108 979 l 318 979 l 318 178 l 678 178 l 678 0 l 108 0 m 404 -431 l 329 -381 q 370 -312 357 -350 q 383 -239 383 -274 l 419 -258 l 299 -258 l 299 -97 l 481 -97 l 481 -221 q 464 -335 481 -282 q 404 -431 447 -389 z "},"Ŀ":{"ha":736,"x_min":108,"x_max":678,"o":"m 108 0 l 108 979 l 318 979 l 318 178 l 678 178 l 678 0 l 108 0 m 422 458 l 422 650 l 642 650 l 642 458 l 422 458 z "},"Ḷ":{"ha":736,"x_min":108,"x_max":678,"o":"m 108 0 l 108 979 l 318 979 l 318 178 l 678 178 l 678 0 l 108 0 m 296 -297 l 296 -114 l 485 -114 l 485 -297 l 296 -297 z "},"ǈ":{"ha":1099,"x_min":108,"x_max":1029,"o":"m 108 0 l 108 979 l 318 979 l 318 178 l 678 178 l 678 0 l 108 0 m 810 831 l 810 1028 l 1029 1028 l 1029 831 l 810 831 m 701 -268 l 683 -108 l 740 -100 q 794 -76 772 -94 q 815 1 815 -57 l 815 699 l 1024 699 l 1024 4 q 1014 -101 1024 -54 q 978 -179 1004 -147 q 900 -231 951 -211 q 767 -261 849 -250 l 701 -268 z "},"Ḻ":{"ha":736,"x_min":108,"x_max":678,"o":"m 108 0 l 108 979 l 318 979 l 318 178 l 678 178 l 678 0 l 108 0 m 179 -261 l 179 -117 l 603 -117 l 603 -261 l 179 -261 z "},"Ł":{"ha":746,"x_min":-31,"x_max":686,"o":"m 118 0 l 118 979 l 328 979 l 328 178 l 688 178 l 688 0 l 118 0 m 60 306 l -32 440 l 486 778 l 578 643 l 60 306 z "},"M":{"ha":1122,"x_min":111,"x_max":1011,"o":"m 111 0 l 111 979 l 367 979 l 567 403 l 558 403 l 758 979 l 1011 979 l 1011 0 l 810 0 l 810 679 l 800 679 l 622 178 l 497 178 l 322 681 l 311 681 l 311 0 l 111 0 z "},"Ṃ":{"ha":1122,"x_min":111,"x_max":1011,"o":"m 111 0 l 111 979 l 367 979 l 567 403 l 558 403 l 758 979 l 1011 979 l 1011 0 l 810 0 l 810 679 l 800 679 l 622 178 l 497 178 l 322 681 l 311 681 l 311 0 l 111 0 m 440 -297 l 440 -114 l 629 -114 l 629 -297 l 440 -297 z "},"N":{"ha":965,"x_min":108,"x_max":857,"o":"m 108 0 l 108 979 l 276 979 l 682 297 l 661 297 l 661 979 l 857 979 l 857 0 l 676 0 l 283 671 l 306 671 l 306 0 l 108 0 z "},"Ǌ":{"ha":1501,"x_min":108,"x_max":1393,"o":"m 108 0 l 108 979 l 276 979 l 682 297 l 661 297 l 661 979 l 857 979 l 857 0 l 676 0 l 283 671 l 306 671 l 306 0 l 108 0 m 997 -14 l 982 163 l 1096 169 q 1143 185 1124 171 q 1173 224 1163 199 q 1183 283 1183 249 l 1183 979 l 1393 979 l 1393 263 q 1363 122 1393 181 q 1276 31 1333 64 q 1133 -7 1219 -3 l 997 -14 z "},"Ń":{"ha":965,"x_min":108,"x_max":857,"o":"m 108 0 l 108 979 l 276 979 l 682 297 l 661 297 l 661 979 l 857 979 l 857 0 l 676 0 l 283 671 l 306 671 l 306 0 l 108 0 m 411 1063 l 546 1293 l 774 1293 l 572 1063 l 411 1063 z "},"Ň":{"ha":965,"x_min":108,"x_max":857,"o":"m 108 0 l 108 979 l 276 979 l 682 297 l 661 297 l 661 979 l 857 979 l 857 0 l 676 0 l 283 671 l 306 671 l 306 0 l 108 0 m 406 1063 l 263 1283 l 415 1283 l 492 1163 l 568 1283 l 721 1283 l 578 1063 l 406 1063 z "},"Ņ":{"ha":965,"x_min":108,"x_max":857,"o":"m 108 0 l 108 979 l 276 979 l 682 297 l 661 297 l 661 979 l 857 979 l 857 0 l 676 0 l 283 671 l 306 671 l 306 0 l 108 0 m 499 -431 l 424 -381 q 465 -312 451 -350 q 478 -239 478 -274 l 514 -258 l 393 -258 l 393 -97 l 575 -97 l 575 -221 q 558 -335 575 -282 q 499 -431 542 -389 z "},"Ṅ":{"ha":965,"x_min":108,"x_max":857,"o":"m 108 0 l 108 979 l 276 979 l 682 297 l 661 297 l 661 979 l 857 979 l 857 0 l 676 0 l 283 671 l 306 671 l 306 0 l 108 0 m 394 1089 l 394 1275 l 588 1275 l 588 1089 l 394 1089 z "},"Ṇ":{"ha":965,"x_min":108,"x_max":857,"o":"m 108 0 l 108 979 l 276 979 l 682 297 l 661 297 l 661 979 l 857 979 l 857 0 l 676 0 l 283 671 l 306 671 l 306 0 l 108 0 m 390 -297 l 390 -114 l 579 -114 l 579 -297 l 390 -297 z "},"ǋ":{"ha":1328,"x_min":108,"x_max":1258,"o":"m 108 0 l 108 979 l 276 979 l 682 297 l 661 297 l 661 979 l 857 979 l 857 0 l 676 0 l 283 671 l 306 671 l 306 0 l 108 0 m 1039 831 l 1039 1028 l 1258 1028 l 1258 831 l 1039 831 m 931 -268 l 913 -108 l 969 -100 q 1023 -76 1001 -94 q 1044 1 1044 -57 l 1044 699 l 1253 699 l 1253 4 q 1243 -101 1253 -54 q 1207 -179 1233 -147 q 1129 -231 1181 -211 q 996 -261 1078 -250 l 931 -268 z "},"Ṉ":{"ha":965,"x_min":108,"x_max":857,"o":"m 108 0 l 108 979 l 276 979 l 682 297 l 661 297 l 661 979 l 857 979 l 857 0 l 676 0 l 283 671 l 306 671 l 306 0 l 108 0 m 274 -261 l 274 -117 l 697 -117 l 697 -261 l 274 -261 z "},"Ñ":{"ha":965,"x_min":108,"x_max":857,"o":"m 108 0 l 108 979 l 276 979 l 682 297 l 661 297 l 661 979 l 857 979 l 857 0 l 676 0 l 283 671 l 306 671 l 306 0 l 108 0 m 333 1058 l 224 1065 q 262 1212 222 1156 q 374 1268 301 1268 q 453 1251 418 1268 q 508 1226 488 1233 q 548 1208 525 1219 q 594 1197 571 1197 q 638 1219 624 1197 q 649 1274 651 1240 l 760 1268 q 722 1122 761 1178 q 608 1065 683 1065 q 530 1081 565 1065 q 478 1106 494 1097 q 438 1124 463 1113 q 389 1135 413 1135 q 347 1115 360 1135 q 333 1058 333 1094 z "},"Ŋ":{"ha":965,"x_min":108,"x_max":857,"o":"m 550 -264 l 533 -114 l 585 -106 q 643 -87 621 -100 q 665 -31 665 -75 l 665 133 l 679 4 l 283 671 l 306 671 l 306 0 l 108 0 l 108 979 l 275 979 l 682 297 l 661 297 l 661 979 l 857 979 l 857 0 q 854 -71 857 -36 q 839 -137 851 -106 q 799 -193 826 -168 q 723 -235 771 -218 q 600 -258 675 -253 l 550 -264 z "},"O":{"ha":986,"x_min":82,"x_max":903,"o":"m 493 -15 q 322 18 397 -15 q 192 117 246 51 q 110 276 139 182 q 82 489 82 369 q 111 702 82 608 q 194 862 140 796 q 322 961 247 928 q 493 994 397 994 q 665 960 589 994 q 793 862 740 926 q 874 703 846 797 q 903 490 903 610 q 874 278 903 372 q 793 118 846 183 q 665 19 740 53 q 493 -15 589 -15 m 493 165 q 602 201 560 165 q 667 310 644 238 q 690 490 690 382 q 668 672 690 600 q 602 778 646 743 q 493 814 558 814 q 384 778 428 814 q 318 671 340 743 q 296 489 296 599 q 318 309 296 381 q 384 201 340 238 q 493 165 428 165 z "},"Ó":{"ha":986,"x_min":82,"x_max":903,"o":"m 493 -15 q 322 18 397 -15 q 192 117 246 51 q 110 276 139 182 q 82 489 82 369 q 111 702 82 608 q 194 862 140 796 q 322 961 247 928 q 493 994 397 994 q 665 960 589 994 q 793 862 740 926 q 874 703 846 797 q 903 490 903 610 q 874 278 903 372 q 793 118 846 183 q 665 19 740 53 q 493 -15 589 -15 m 493 165 q 602 201 560 165 q 667 310 644 238 q 690 490 690 382 q 668 672 690 600 q 602 778 646 743 q 493 814 558 814 q 384 778 428 814 q 318 671 340 743 q 296 489 296 599 q 318 309 296 381 q 384 201 340 238 q 493 165 428 165 m 413 1063 l 547 1293 l 775 1293 l 574 1063 l 413 1063 z "},"Ŏ":{"ha":986,"x_min":82,"x_max":903,"o":"m 493 -15 q 322 18 397 -15 q 192 117 246 51 q 110 276 139 182 q 82 489 82 369 q 111 702 82 608 q 194 862 140 796 q 322 961 247 928 q 493 994 397 994 q 665 960 589 994 q 793 862 740 926 q 874 703 846 797 q 903 490 903 610 q 874 278 903 372 q 793 118 846 183 q 665 19 740 53 q 493 -15 589 -15 m 493 165 q 602 201 560 165 q 667 310 644 238 q 690 490 690 382 q 668 672 690 600 q 602 778 646 743 q 493 814 558 814 q 384 778 428 814 q 318 671 340 743 q 296 489 296 599 q 318 309 296 381 q 384 201 340 238 q 493 165 428 165 m 493 1056 q 332 1116 390 1056 q 271 1290 274 1176 l 393 1301 q 418 1222 396 1249 q 493 1196 440 1196 q 569 1222 546 1196 q 593 1301 592 1249 l 715 1290 q 654 1116 713 1176 q 493 1056 596 1056 z "},"Ô":{"ha":986,"x_min":82,"x_max":903,"o":"m 493 -15 q 322 18 397 -15 q 192 117 246 51 q 110 276 139 182 q 82 489 82 369 q 111 702 82 608 q 194 862 140 796 q 322 961 247 928 q 493 994 397 994 q 665 960 589 994 q 793 862 740 926 q 874 703 846 797 q 903 490 903 610 q 874 278 903 372 q 793 118 846 183 q 665 19 740 53 q 493 -15 589 -15 m 493 165 q 602 201 560 165 q 667 310 644 238 q 690 490 690 382 q 668 672 690 600 q 602 778 646 743 q 493 814 558 814 q 384 778 428 814 q 318 671 340 743 q 296 489 296 599 q 318 309 296 381 q 384 201 340 238 q 493 165 428 165 m 264 1063 l 407 1283 l 579 1283 l 722 1063 l 569 1063 l 493 1183 l 417 1063 l 264 1063 z "},"Ố":{"ha":986,"x_min":82,"x_max":903,"o":"m 493 -15 q 322 18 397 -15 q 192 117 246 51 q 110 276 139 182 q 82 489 82 369 q 111 702 82 608 q 194 862 140 796 q 322 961 247 928 q 493 994 397 994 q 665 960 589 994 q 793 862 740 926 q 874 703 846 797 q 903 490 903 610 q 874 278 903 372 q 793 118 846 183 q 665 19 740 53 q 493 -15 589 -15 m 493 165 q 602 201 560 165 q 667 310 644 238 q 690 490 690 382 q 668 672 690 600 q 602 778 646 743 q 493 814 558 814 q 384 778 428 814 q 318 671 340 743 q 296 489 296 599 q 318 309 296 381 q 384 201 340 238 q 493 165 428 165 m 276 1064 l 410 1301 l 583 1301 l 717 1064 l 572 1064 l 497 1201 l 421 1064 l 276 1064 m 644 1251 l 714 1464 l 865 1464 l 758 1251 l 644 1251 z "},"Ộ":{"ha":986,"x_min":82,"x_max":903,"o":"m 493 -15 q 322 18 397 -15 q 192 117 246 51 q 110 276 139 182 q 82 489 82 369 q 111 702 82 608 q 194 862 140 796 q 322 961 247 928 q 493 994 397 994 q 665 960 589 994 q 793 862 740 926 q 874 703 846 797 q 903 490 903 610 q 874 278 903 372 q 793 118 846 183 q 665 19 740 53 q 493 -15 589 -15 m 493 165 q 602 201 560 165 q 667 310 644 238 q 690 490 690 382 q 668 672 690 600 q 602 778 646 743 q 493 814 558 814 q 384 778 428 814 q 318 671 340 743 q 296 489 296 599 q 318 309 296 381 q 384 201 340 238 q 493 165 428 165 m 400 -297 l 400 -114 l 589 -114 l 589 -297 l 400 -297 m 264 1063 l 407 1283 l 579 1283 l 722 1063 l 569 1063 l 493 1183 l 417 1063 l 264 1063 z "},"Ồ":{"ha":986,"x_min":82,"x_max":903,"o":"m 493 -15 q 322 18 397 -15 q 192 117 246 51 q 110 276 139 182 q 82 489 82 369 q 111 702 82 608 q 194 862 140 796 q 322 961 247 928 q 493 994 397 994 q 665 960 589 994 q 793 862 740 926 q 874 703 846 797 q 903 490 903 610 q 874 278 903 372 q 793 118 846 183 q 665 19 740 53 q 493 -15 589 -15 m 493 165 q 602 201 560 165 q 667 310 644 238 q 690 490 690 382 q 668 672 690 600 q 602 778 646 743 q 493 814 558 814 q 384 778 428 814 q 318 671 340 743 q 296 489 296 599 q 318 309 296 381 q 384 201 340 238 q 493 165 428 165 m 276 1064 l 410 1301 l 583 1301 l 717 1064 l 572 1064 l 497 1201 l 421 1064 l 276 1064 m 681 1251 l 576 1464 l 726 1464 l 794 1251 l 681 1251 z "},"Ổ":{"ha":986,"x_min":82,"x_max":903,"o":"m 493 -15 q 322 18 397 -15 q 192 117 246 51 q 110 276 139 182 q 82 489 82 369 q 111 702 82 608 q 194 862 140 796 q 322 961 247 928 q 493 994 397 994 q 665 960 589 994 q 793 862 740 926 q 874 703 846 797 q 903 490 903 610 q 874 278 903 372 q 793 118 846 183 q 665 19 740 53 q 493 -15 589 -15 m 493 165 q 602 201 560 165 q 667 310 644 238 q 690 490 690 382 q 668 672 690 600 q 602 778 646 743 q 493 814 558 814 q 384 778 428 814 q 318 671 340 743 q 296 489 296 599 q 318 309 296 381 q 384 201 340 238 q 493 165 428 165 m 276 1064 l 410 1254 l 583 1254 l 717 1064 l 572 1064 l 497 1179 l 421 1064 l 276 1064 m 633 1246 q 640 1281 633 1265 q 655 1308 646 1296 q 671 1332 664 1321 q 678 1356 678 1343 q 669 1375 678 1369 q 640 1381 660 1381 q 612 1376 626 1381 q 585 1363 597 1371 l 560 1442 q 619 1465 585 1457 q 696 1474 654 1474 q 788 1452 756 1474 q 819 1393 819 1431 q 808 1350 819 1368 q 783 1317 797 1332 q 758 1285 769 1301 q 746 1246 746 1268 l 633 1246 z "},"Ỗ":{"ha":986,"x_min":82,"x_max":903,"o":"m 493 -15 q 322 18 397 -15 q 192 117 246 51 q 110 276 139 182 q 82 489 82 369 q 111 702 82 608 q 194 862 140 796 q 322 961 247 928 q 493 994 397 994 q 665 960 589 994 q 793 862 740 926 q 874 703 846 797 q 903 490 903 610 q 874 278 903 372 q 793 118 846 183 q 665 19 740 53 q 493 -15 589 -15 m 493 165 q 602 201 560 165 q 667 310 644 238 q 690 490 690 382 q 668 672 690 600 q 602 778 646 743 q 493 814 558 814 q 384 778 428 814 q 318 671 340 743 q 296 489 296 599 q 318 309 296 381 q 384 201 340 238 q 493 165 428 165 m 274 1064 l 407 1250 l 581 1250 l 714 1064 l 567 1064 l 494 1172 l 421 1064 l 274 1064 m 364 1300 l 264 1306 q 300 1421 269 1378 q 401 1464 331 1464 q 468 1449 440 1464 q 514 1425 496 1435 q 540 1409 522 1419 q 579 1399 558 1399 q 610 1417 599 1399 q 624 1467 621 1435 l 722 1460 q 683 1343 718 1385 q 579 1301 649 1301 q 515 1315 540 1301 q 474 1336 490 1328 q 440 1357 456 1349 q 408 1365 425 1365 q 378 1348 389 1365 q 364 1300 367 1331 z "},"Ȍ":{"ha":986,"x_min":82,"x_max":903,"o":"m 493 -15 q 322 18 397 -15 q 192 117 246 51 q 110 276 139 182 q 82 489 82 369 q 111 702 82 608 q 194 862 140 796 q 322 961 247 928 q 493 994 397 994 q 665 960 589 994 q 793 862 740 926 q 874 703 846 797 q 903 490 903 610 q 874 278 903 372 q 793 118 846 183 q 665 19 740 53 q 493 -15 589 -15 m 493 165 q 602 201 560 165 q 667 310 644 238 q 690 490 690 382 q 668 672 690 600 q 602 778 646 743 q 493 814 558 814 q 384 778 428 814 q 318 671 340 743 q 296 489 296 599 q 318 309 296 381 q 384 201 340 238 q 493 165 428 165 m 533 1063 l 378 1283 l 557 1283 l 651 1063 l 533 1063 m 335 1063 l 160 1283 l 338 1283 l 453 1063 l 335 1063 z "},"Ö":{"ha":986,"x_min":82,"x_max":903,"o":"m 493 -15 q 322 18 397 -15 q 192 117 246 51 q 110 276 139 182 q 82 489 82 369 q 111 702 82 608 q 194 862 140 796 q 322 961 247 928 q 493 994 397 994 q 665 960 589 994 q 793 862 740 926 q 874 703 846 797 q 903 490 903 610 q 874 278 903 372 q 793 118 846 183 q 665 19 740 53 q 493 -15 589 -15 m 493 165 q 602 201 560 165 q 667 310 644 238 q 690 490 690 382 q 668 672 690 600 q 602 778 646 743 q 493 814 558 814 q 384 778 428 814 q 318 671 340 743 q 296 489 296 599 q 318 309 296 381 q 384 201 340 238 q 493 165 428 165 m 538 1086 l 538 1264 l 725 1264 l 725 1086 l 538 1086 m 261 1086 l 261 1264 l 449 1264 l 449 1086 l 261 1086 z "},"Ȫ":{"ha":986,"x_min":82,"x_max":903,"o":"m 493 -15 q 322 18 397 -15 q 192 117 246 51 q 110 276 139 182 q 82 489 82 369 q 111 702 82 608 q 194 862 140 796 q 322 961 247 928 q 493 994 397 994 q 665 960 589 994 q 793 862 740 926 q 874 703 846 797 q 903 490 903 610 q 874 278 903 372 q 793 118 846 183 q 665 19 740 53 q 493 -15 589 -15 m 493 165 q 602 201 560 165 q 667 310 644 238 q 690 490 690 382 q 668 672 690 600 q 602 778 646 743 q 493 814 558 814 q 384 778 428 814 q 318 671 340 743 q 296 489 296 599 q 318 309 296 381 q 384 201 340 238 q 493 165 428 165 m 282 1301 l 282 1435 l 706 1435 l 706 1301 l 282 1301 m 269 1075 l 269 1224 l 458 1224 l 458 1075 l 269 1075 m 528 1075 l 528 1224 l 717 1224 l 717 1075 l 528 1075 z "},"Ȱ":{"ha":986,"x_min":82,"x_max":903,"o":"m 493 -15 q 322 18 397 -15 q 192 117 246 51 q 110 276 139 182 q 82 489 82 369 q 111 702 82 608 q 194 862 140 796 q 322 961 247 928 q 493 994 397 994 q 665 960 589 994 q 793 862 740 926 q 874 703 846 797 q 903 490 903 610 q 874 278 903 372 q 793 118 846 183 q 665 19 740 53 q 493 -15 589 -15 m 493 165 q 602 201 560 165 q 667 310 644 238 q 690 490 690 382 q 668 672 690 600 q 602 778 646 743 q 493 814 558 814 q 384 778 428 814 q 318 671 340 743 q 296 489 296 599 q 318 309 296 381 q 384 201 340 238 q 493 165 428 165 m 301 1293 l 301 1419 l 685 1419 l 685 1293 l 301 1293 m 404 1082 l 404 1228 l 582 1228 l 582 1082 l 404 1082 z "},"Ọ":{"ha":986,"x_min":82,"x_max":903,"o":"m 493 -15 q 322 18 397 -15 q 192 117 246 51 q 110 276 139 182 q 82 489 82 369 q 111 702 82 608 q 194 862 140 796 q 322 961 247 928 q 493 994 397 994 q 665 960 589 994 q 793 862 740 926 q 874 703 846 797 q 903 490 903 610 q 874 278 903 372 q 793 118 846 183 q 665 19 740 53 q 493 -15 589 -15 m 493 165 q 602 201 560 165 q 667 310 644 238 q 690 490 690 382 q 668 672 690 600 q 602 778 646 743 q 493 814 558 814 q 384 778 428 814 q 318 671 340 743 q 296 489 296 599 q 318 309 296 381 q 384 201 340 238 q 493 165 428 165 m 400 -297 l 400 -114 l 589 -114 l 589 -297 l 400 -297 z "},"Ò":{"ha":986,"x_min":82,"x_max":903,"o":"m 493 -15 q 322 18 397 -15 q 192 117 246 51 q 110 276 139 182 q 82 489 82 369 q 111 702 82 608 q 194 862 140 796 q 322 961 247 928 q 493 994 397 994 q 665 960 589 994 q 793 862 740 926 q 874 703 846 797 q 903 490 903 610 q 874 278 903 372 q 793 118 846 183 q 665 19 740 53 q 493 -15 589 -15 m 493 165 q 602 201 560 165 q 667 310 644 238 q 690 490 690 382 q 668 672 690 600 q 602 778 646 743 q 493 814 558 814 q 384 778 428 814 q 318 671 340 743 q 296 489 296 599 q 318 309 296 381 q 384 201 340 238 q 493 165 428 165 m 422 1063 l 221 1283 l 432 1283 l 565 1063 l 422 1063 z "},"Ỏ":{"ha":986,"x_min":82,"x_max":903,"o":"m 493 -15 q 322 18 397 -15 q 192 117 246 51 q 110 276 139 182 q 82 489 82 369 q 111 702 82 608 q 194 862 140 796 q 322 961 247 928 q 493 994 397 994 q 665 960 589 994 q 793 862 740 926 q 874 703 846 797 q 903 490 903 610 q 874 278 903 372 q 793 118 846 183 q 665 19 740 53 q 493 -15 589 -15 m 493 165 q 602 201 560 165 q 667 310 644 238 q 690 490 690 382 q 668 672 690 600 q 602 778 646 743 q 493 814 558 814 q 384 778 428 814 q 318 671 340 743 q 296 489 296 599 q 318 309 296 381 q 384 201 340 238 q 493 165 428 165 m 433 1063 l 433 1089 q 442 1123 433 1108 q 460 1149 450 1138 q 478 1171 471 1160 q 486 1194 486 1182 q 478 1214 486 1208 q 451 1219 469 1219 q 419 1216 436 1219 q 385 1204 401 1213 l 357 1288 q 419 1311 383 1303 q 497 1319 456 1319 q 601 1295 565 1319 q 638 1226 638 1271 q 625 1178 638 1197 q 596 1146 613 1160 q 566 1118 579 1132 q 553 1085 553 1104 l 553 1063 l 433 1063 z "},"Ơ":{"ha":986,"x_min":82,"x_max":921,"o":"m 493 -15 q 322 18 397 -15 q 192 117 246 51 q 110 276 139 182 q 82 489 82 369 q 111 702 82 608 q 194 862 140 796 q 322 961 247 928 q 493 994 397 994 q 665 960 589 994 q 793 862 740 926 q 874 703 846 797 q 903 490 903 610 q 874 278 903 372 q 793 118 846 183 q 665 19 740 53 q 493 -15 589 -15 m 493 165 q 602 201 560 165 q 667 310 644 238 q 690 490 690 382 q 668 672 690 600 q 602 778 646 743 q 493 814 558 814 q 384 778 428 814 q 318 671 340 743 q 296 489 296 599 q 318 309 296 381 q 384 201 340 238 q 493 165 428 165 m 624 876 l 585 985 q 619 981 604 982 q 646 979 635 979 q 697 994 678 979 q 726 1038 717 1008 q 736 1110 736 1067 l 736 1153 l 919 1153 l 919 1094 q 898 985 919 1035 q 840 906 876 935 q 758 876 804 876 l 624 876 z "},"Ớ":{"ha":986,"x_min":82,"x_max":921,"o":"m 493 -15 q 322 18 397 -15 q 192 117 246 51 q 110 276 139 182 q 82 489 82 369 q 111 702 82 608 q 194 862 140 796 q 322 961 247 928 q 493 994 397 994 q 665 960 589 994 q 793 862 740 926 q 874 703 846 797 q 903 490 903 610 q 874 278 903 372 q 793 118 846 183 q 665 19 740 53 q 493 -15 589 -15 m 493 165 q 602 201 560 165 q 667 310 644 238 q 690 490 690 382 q 668 672 690 600 q 602 778 646 743 q 493 814 558 814 q 384 778 428 814 q 318 671 340 743 q 296 489 296 599 q 318 309 296 381 q 384 201 340 238 q 493 165 428 165 m 624 876 l 585 985 q 619 981 604 982 q 646 979 635 979 q 697 994 678 979 q 726 1038 717 1008 q 736 1110 736 1067 l 736 1153 l 919 1153 l 919 1094 q 898 985 919 1035 q 840 906 876 935 q 758 876 804 876 l 624 876 m 361 1063 l 496 1293 l 724 1293 l 522 1063 l 361 1063 z "},"Ợ":{"ha":986,"x_min":82,"x_max":921,"o":"m 493 -15 q 322 18 397 -15 q 192 117 246 51 q 110 276 139 182 q 82 489 82 369 q 111 702 82 608 q 194 862 140 796 q 322 961 247 928 q 493 994 397 994 q 665 960 589 994 q 793 862 740 926 q 874 703 846 797 q 903 490 903 610 q 874 278 903 372 q 793 118 846 183 q 665 19 740 53 q 493 -15 589 -15 m 493 165 q 602 201 560 165 q 667 310 644 238 q 690 490 690 382 q 668 672 690 600 q 602 778 646 743 q 493 814 558 814 q 384 778 428 814 q 318 671 340 743 q 296 489 296 599 q 318 309 296 381 q 384 201 340 238 q 493 165 428 165 m 624 876 l 585 985 q 619 981 604 982 q 646 979 635 979 q 697 994 678 979 q 726 1038 717 1008 q 736 1110 736 1067 l 736 1153 l 919 1153 l 919 1094 q 898 985 919 1035 q 840 906 876 935 q 758 876 804 876 l 624 876 m 403 -297 l 403 -114 l 592 -114 l 592 -297 l 403 -297 z "},"Ờ":{"ha":986,"x_min":82,"x_max":921,"o":"m 493 -15 q 322 18 397 -15 q 192 117 246 51 q 110 276 139 182 q 82 489 82 369 q 111 702 82 608 q 194 862 140 796 q 322 961 247 928 q 493 994 397 994 q 665 960 589 994 q 793 862 740 926 q 874 703 846 797 q 903 490 903 610 q 874 278 903 372 q 793 118 846 183 q 665 19 740 53 q 493 -15 589 -15 m 493 165 q 602 201 560 165 q 667 310 644 238 q 690 490 690 382 q 668 672 690 600 q 602 778 646 743 q 493 814 558 814 q 384 778 428 814 q 318 671 340 743 q 296 489 296 599 q 318 309 296 381 q 384 201 340 238 q 493 165 428 165 m 624 876 l 585 985 q 619 981 604 982 q 646 979 635 979 q 697 994 678 979 q 726 1038 717 1008 q 736 1110 736 1067 l 736 1153 l 919 1153 l 919 1094 q 898 985 919 1035 q 840 906 876 935 q 758 876 804 876 l 624 876 m 371 1063 l 169 1283 l 381 1283 l 514 1063 l 371 1063 z "},"Ở":{"ha":986,"x_min":82,"x_max":921,"o":"m 493 -15 q 322 18 397 -15 q 192 117 246 51 q 110 276 139 182 q 82 489 82 369 q 111 702 82 608 q 194 862 140 796 q 322 961 247 928 q 493 994 397 994 q 665 960 589 994 q 793 862 740 926 q 874 703 846 797 q 903 490 903 610 q 874 278 903 372 q 793 118 846 183 q 665 19 740 53 q 493 -15 589 -15 m 493 165 q 602 201 560 165 q 667 310 644 238 q 690 490 690 382 q 668 672 690 600 q 602 778 646 743 q 493 814 558 814 q 384 778 428 814 q 318 671 340 743 q 296 489 296 599 q 318 309 296 381 q 384 201 340 238 q 493 165 428 165 m 624 876 l 585 985 q 619 981 604 982 q 646 979 635 979 q 697 994 678 979 q 726 1038 717 1008 q 736 1110 736 1067 l 736 1153 l 919 1153 l 919 1094 q 898 985 919 1035 q 840 906 876 935 q 758 876 804 876 l 624 876 m 382 1063 l 382 1089 q 390 1123 382 1108 q 409 1149 399 1138 q 427 1171 419 1160 q 435 1194 435 1182 q 426 1214 435 1208 q 400 1219 418 1219 q 367 1216 385 1219 q 333 1204 350 1213 l 306 1288 q 368 1311 332 1303 q 446 1319 404 1319 q 550 1295 514 1319 q 586 1226 586 1271 q 574 1178 586 1197 q 544 1146 561 1160 q 515 1118 528 1132 q 501 1085 501 1104 l 501 1063 l 382 1063 z "},"Ỡ":{"ha":986,"x_min":82,"x_max":921,"o":"m 493 -15 q 322 18 397 -15 q 192 117 246 51 q 110 276 139 182 q 82 489 82 369 q 111 702 82 608 q 194 862 140 796 q 322 961 247 928 q 493 994 397 994 q 665 960 589 994 q 793 862 740 926 q 874 703 846 797 q 903 490 903 610 q 874 278 903 372 q 793 118 846 183 q 665 19 740 53 q 493 -15 589 -15 m 493 165 q 602 201 560 165 q 667 310 644 238 q 690 490 690 382 q 668 672 690 600 q 602 778 646 743 q 493 814 558 814 q 384 778 428 814 q 318 671 340 743 q 296 489 296 599 q 318 309 296 381 q 384 201 340 238 q 493 165 428 165 m 624 876 l 585 985 q 619 981 604 982 q 646 979 635 979 q 697 994 678 979 q 726 1038 717 1008 q 736 1110 736 1067 l 736 1153 l 919 1153 l 919 1094 q 898 985 919 1035 q 840 906 876 935 q 758 876 804 876 l 624 876 m 257 1058 l 147 1067 q 165 1172 147 1125 q 219 1243 183 1218 q 306 1268 256 1268 q 373 1252 344 1268 q 422 1224 401 1236 q 456 1205 438 1215 q 496 1194 475 1194 q 541 1217 526 1194 q 554 1274 556 1240 l 663 1268 q 644 1162 663 1207 q 590 1092 625 1117 q 506 1067 554 1067 q 435 1082 464 1067 q 390 1108 407 1097 q 356 1128 375 1117 q 314 1139 338 1139 q 269 1115 281 1139 q 257 1058 257 1090 z "},"Ő":{"ha":986,"x_min":82,"x_max":903,"o":"m 493 -15 q 322 18 397 -15 q 192 117 246 51 q 110 276 139 182 q 82 489 82 369 q 111 702 82 608 q 194 862 140 796 q 322 961 247 928 q 493 994 397 994 q 665 960 589 994 q 793 862 740 926 q 874 703 846 797 q 903 490 903 610 q 874 278 903 372 q 793 118 846 183 q 665 19 740 53 q 493 -15 589 -15 m 493 165 q 602 201 560 165 q 667 310 644 238 q 690 490 690 382 q 668 672 690 600 q 602 778 646 743 q 493 814 558 814 q 384 778 428 814 q 318 671 340 743 q 296 489 296 599 q 318 309 296 381 q 384 201 340 238 q 493 165 428 165 m 336 1063 l 431 1283 l 608 1283 l 454 1063 l 336 1063 m 533 1063 l 650 1283 l 826 1283 l 651 1063 l 533 1063 z "},"Ȏ":{"ha":986,"x_min":82,"x_max":903,"o":"m 493 -15 q 322 18 397 -15 q 192 117 246 51 q 110 276 139 182 q 82 489 82 369 q 111 702 82 608 q 194 862 140 796 q 322 961 247 928 q 493 994 397 994 q 665 960 589 994 q 793 862 740 926 q 874 703 846 797 q 903 490 903 610 q 874 278 903 372 q 793 118 846 183 q 665 19 740 53 q 493 -15 589 -15 m 493 165 q 602 201 560 165 q 667 310 644 238 q 690 490 690 382 q 668 672 690 600 q 602 778 646 743 q 493 814 558 814 q 384 778 428 814 q 318 671 340 743 q 296 489 296 599 q 318 309 296 381 q 384 201 340 238 q 493 165 428 165 m 393 1056 l 271 1065 q 332 1242 274 1183 q 493 1301 390 1301 q 654 1242 596 1301 q 715 1065 713 1182 l 593 1056 q 570 1133 592 1106 q 494 1161 549 1161 q 420 1135 444 1161 q 393 1056 396 1108 z "},"Ō":{"ha":986,"x_min":82,"x_max":903,"o":"m 493 -15 q 322 18 397 -15 q 192 117 246 51 q 110 276 139 182 q 82 489 82 369 q 111 702 82 608 q 194 862 140 796 q 322 961 247 928 q 493 994 397 994 q 665 960 589 994 q 793 862 740 926 q 874 703 846 797 q 903 490 903 610 q 874 278 903 372 q 793 118 846 183 q 665 19 740 53 q 493 -15 589 -15 m 493 165 q 602 201 560 165 q 667 310 644 238 q 690 490 690 382 q 668 672 690 600 q 602 778 646 743 q 493 814 558 814 q 384 778 428 814 q 318 671 340 743 q 296 489 296 599 q 318 309 296 381 q 384 201 340 238 q 493 165 428 165 m 282 1113 l 282 1258 l 704 1258 l 704 1113 l 282 1113 z "},"Ṓ":{"ha":986,"x_min":82,"x_max":903,"o":"m 493 -15 q 322 18 397 -15 q 192 117 246 51 q 110 276 139 182 q 82 489 82 369 q 111 702 82 608 q 194 862 140 796 q 322 961 247 928 q 493 994 397 994 q 665 960 589 994 q 793 862 740 926 q 874 703 846 797 q 903 490 903 610 q 874 278 903 372 q 793 118 846 183 q 665 19 740 53 q 493 -15 589 -15 m 493 165 q 602 201 560 165 q 667 310 644 238 q 690 490 690 382 q 668 672 690 600 q 602 778 646 743 q 493 814 558 814 q 384 778 428 814 q 318 671 340 743 q 296 489 296 599 q 318 309 296 381 q 384 201 340 238 q 493 165 428 165 m 285 1094 l 285 1221 l 701 1221 l 701 1094 l 285 1094 m 400 1279 l 496 1476 l 706 1476 l 543 1279 l 400 1279 z "},"Ṑ":{"ha":986,"x_min":82,"x_max":903,"o":"m 493 -15 q 322 18 397 -15 q 192 117 246 51 q 110 276 139 182 q 82 489 82 369 q 111 702 82 608 q 194 862 140 796 q 322 961 247 928 q 493 994 397 994 q 665 960 589 994 q 793 862 740 926 q 874 703 846 797 q 903 490 903 610 q 874 278 903 372 q 793 118 846 183 q 665 19 740 53 q 493 -15 589 -15 m 493 165 q 602 201 560 165 q 667 310 644 238 q 690 490 690 382 q 668 672 690 600 q 602 778 646 743 q 493 814 558 814 q 384 778 428 814 q 318 671 340 743 q 296 489 296 599 q 318 309 296 381 q 384 201 340 238 q 493 165 428 165 m 443 1279 l 281 1476 l 490 1476 l 586 1279 l 443 1279 m 285 1094 l 285 1221 l 701 1221 l 701 1094 l 285 1094 z "},"Ǫ":{"ha":986,"x_min":82,"x_max":903,"o":"m 493 -15 q 322 18 397 -15 q 192 117 246 51 q 110 276 139 182 q 82 489 82 369 q 111 702 82 608 q 194 862 140 796 q 322 961 247 928 q 493 994 397 994 q 665 960 589 994 q 793 862 740 926 q 874 703 846 797 q 903 490 903 610 q 874 278 903 372 q 793 118 846 183 q 665 19 740 53 q 493 -15 589 -15 m 493 165 q 602 201 560 165 q 667 310 644 238 q 690 490 690 382 q 668 672 690 600 q 602 778 646 743 q 493 814 558 814 q 384 778 428 814 q 318 671 340 743 q 296 489 296 599 q 318 309 296 381 q 384 201 340 238 q 493 165 428 165 m 535 -287 q 419 -253 461 -287 q 378 -156 378 -218 q 412 -40 378 -97 q 506 58 446 17 l 569 0 q 540 -32 553 -14 q 519 -70 526 -50 q 511 -111 511 -90 q 524 -155 511 -140 q 563 -169 538 -169 q 590 -166 575 -169 q 621 -157 604 -162 l 644 -264 q 589 -282 614 -276 q 535 -287 564 -287 z "},"Ø":{"ha":986,"x_min":82,"x_max":903,"o":"m 493 -15 q 322 18 397 -15 q 192 117 246 51 q 110 276 139 182 q 82 489 82 369 q 111 702 82 608 q 194 862 140 796 q 322 961 247 928 q 493 994 397 994 q 665 960 589 994 q 793 862 740 926 q 874 703 846 797 q 903 490 903 610 q 874 278 903 372 q 793 118 846 183 q 665 19 740 53 q 493 -15 589 -15 m 493 165 q 602 201 560 165 q 667 310 644 238 q 690 490 690 382 q 668 672 690 600 q 602 778 646 743 q 493 814 558 814 q 384 778 428 814 q 318 671 340 743 q 296 489 296 599 q 318 309 296 381 q 384 201 340 238 q 493 165 428 165 m 314 -93 l 169 -19 l 251 149 l 313 244 l 576 822 l 597 911 l 679 1078 l 825 1004 l 742 838 l 682 742 l 418 163 l 394 74 l 314 -93 z "},"Ǿ":{"ha":986,"x_min":82,"x_max":903,"o":"m 493 -15 q 322 18 397 -15 q 192 117 246 51 q 110 276 139 182 q 82 489 82 369 q 111 702 82 608 q 194 862 140 796 q 322 961 247 928 q 493 994 397 994 q 665 960 589 994 q 793 862 740 926 q 874 703 846 797 q 903 490 903 610 q 874 278 903 372 q 793 118 846 183 q 665 19 740 53 q 493 -15 589 -15 m 493 165 q 602 201 560 165 q 667 310 644 238 q 690 490 690 382 q 668 672 690 600 q 602 778 646 743 q 493 814 558 814 q 384 778 428 814 q 318 671 340 743 q 296 489 296 599 q 318 309 296 381 q 384 201 340 238 q 493 165 428 165 m 314 -93 l 169 -19 l 251 149 l 313 244 l 576 822 l 597 911 l 679 1078 l 825 1004 l 742 838 l 682 742 l 418 163 l 394 74 l 314 -93 m 413 1063 l 547 1293 l 775 1293 l 574 1063 l 413 1063 z "},"Õ":{"ha":986,"x_min":82,"x_max":903,"o":"m 493 -15 q 322 18 397 -15 q 192 117 246 51 q 110 276 139 182 q 82 489 82 369 q 111 702 82 608 q 194 862 140 796 q 322 961 247 928 q 493 994 397 994 q 665 960 589 994 q 793 862 740 926 q 874 703 846 797 q 903 490 903 610 q 874 278 903 372 q 793 118 846 183 q 665 19 740 53 q 493 -15 589 -15 m 493 165 q 602 201 560 165 q 667 310 644 238 q 690 490 690 382 q 668 672 690 600 q 602 778 646 743 q 493 814 558 814 q 384 778 428 814 q 318 671 340 743 q 296 489 296 599 q 318 309 296 381 q 384 201 340 238 q 493 165 428 165 m 335 1058 l 225 1065 q 263 1212 224 1156 q 375 1268 303 1268 q 454 1251 419 1268 q 510 1226 489 1233 q 549 1208 526 1219 q 596 1197 572 1197 q 639 1219 625 1197 q 650 1274 653 1240 l 761 1268 q 724 1122 763 1178 q 610 1065 685 1065 q 531 1081 567 1065 q 479 1106 496 1097 q 439 1124 464 1113 q 390 1135 414 1135 q 348 1115 361 1135 q 335 1058 335 1094 z "},"Ṍ":{"ha":986,"x_min":82,"x_max":903,"o":"m 493 -15 q 322 18 397 -15 q 192 117 246 51 q 110 276 139 182 q 82 489 82 369 q 111 702 82 608 q 194 862 140 796 q 322 961 247 928 q 493 994 397 994 q 665 960 589 994 q 793 862 740 926 q 874 703 846 797 q 903 490 903 610 q 874 278 903 372 q 793 118 846 183 q 665 19 740 53 q 493 -15 589 -15 m 493 165 q 602 201 560 165 q 667 310 644 238 q 690 490 690 382 q 668 672 690 600 q 602 778 646 743 q 493 814 558 814 q 384 778 428 814 q 318 671 340 743 q 296 489 296 599 q 318 309 296 381 q 384 201 340 238 q 493 165 428 165 m 419 1275 l 515 1474 l 725 1474 l 563 1275 l 419 1275 m 579 1064 q 513 1078 539 1064 q 471 1101 488 1092 q 445 1117 461 1107 q 408 1128 429 1128 q 376 1108 386 1128 q 364 1063 367 1089 l 264 1069 q 281 1158 268 1119 q 322 1219 293 1197 q 401 1242 351 1242 q 474 1227 444 1242 q 517 1201 503 1213 q 544 1187 528 1196 q 579 1178 560 1178 q 611 1197 601 1178 q 624 1242 621 1217 l 722 1238 q 686 1111 718 1158 q 579 1064 654 1064 z "},"Ṏ":{"ha":986,"x_min":82,"x_max":903,"o":"m 493 -15 q 322 18 397 -15 q 192 117 246 51 q 110 276 139 182 q 82 489 82 369 q 111 702 82 608 q 194 862 140 796 q 322 961 247 928 q 493 994 397 994 q 665 960 589 994 q 793 862 740 926 q 874 703 846 797 q 903 490 903 610 q 874 278 903 372 q 793 118 846 183 q 665 19 740 53 q 493 -15 589 -15 m 493 165 q 602 201 560 165 q 667 310 644 238 q 690 490 690 382 q 668 672 690 600 q 602 778 646 743 q 493 814 558 814 q 384 778 428 814 q 318 671 340 743 q 296 489 296 599 q 318 309 296 381 q 384 201 340 238 q 493 165 428 165 m 579 1064 q 513 1078 539 1064 q 471 1101 488 1092 q 445 1117 461 1107 q 408 1128 429 1128 q 378 1109 388 1128 q 364 1063 368 1090 l 264 1069 q 281 1158 268 1119 q 322 1219 293 1197 q 401 1242 351 1242 q 474 1227 444 1242 q 517 1201 503 1213 q 544 1187 528 1196 q 579 1178 560 1178 q 611 1197 601 1178 q 624 1242 621 1217 l 722 1238 q 686 1111 718 1158 q 579 1064 654 1064 m 269 1296 l 269 1442 l 458 1442 l 458 1296 l 269 1296 m 528 1296 l 528 1442 l 717 1442 l 717 1296 l 528 1296 z "},"Ȭ":{"ha":986,"x_min":82,"x_max":903,"o":"m 493 -15 q 322 18 397 -15 q 192 117 246 51 q 110 276 139 182 q 82 489 82 369 q 111 702 82 608 q 194 862 140 796 q 322 961 247 928 q 493 994 397 994 q 665 960 589 994 q 793 862 740 926 q 874 703 846 797 q 903 490 903 610 q 874 278 903 372 q 793 118 846 183 q 665 19 740 53 q 493 -15 589 -15 m 493 165 q 602 201 560 165 q 667 310 644 238 q 690 490 690 382 q 668 672 690 600 q 602 778 646 743 q 493 814 558 814 q 384 778 428 814 q 318 671 340 743 q 296 489 296 599 q 318 309 296 381 q 384 201 340 238 q 493 165 428 165 m 282 1308 l 282 1436 l 706 1436 l 706 1308 l 282 1308 m 579 1064 q 513 1078 539 1064 q 471 1103 488 1092 q 445 1118 461 1108 q 408 1128 429 1128 q 376 1109 386 1128 q 364 1064 367 1090 l 264 1069 q 281 1160 268 1121 q 322 1220 293 1199 q 401 1242 351 1242 q 474 1227 444 1242 q 517 1201 503 1213 q 544 1188 528 1197 q 579 1178 560 1178 q 611 1197 601 1178 q 624 1242 621 1217 l 722 1238 q 686 1111 718 1158 q 579 1064 654 1064 z "},"Œ":{"ha":1294,"x_min":82,"x_max":1197,"o":"m 508 0 q 324 35 404 0 q 190 135 243 69 q 109 290 136 200 q 82 489 82 379 q 109 690 82 600 q 190 844 136 779 q 324 944 244 910 q 508 979 404 979 l 1197 979 l 1197 807 l 819 807 l 819 581 l 1174 581 l 1174 410 l 819 410 l 819 172 l 1197 172 l 1197 0 l 508 0 m 518 174 l 615 174 l 615 806 l 518 806 q 351 726 406 806 q 296 489 296 646 q 351 252 296 331 q 518 174 407 174 z "},"P":{"ha":860,"x_min":108,"x_max":794,"o":"m 108 0 l 108 979 l 501 979 q 656 942 590 979 q 758 834 721 904 q 794 668 794 764 q 757 501 794 572 q 655 390 719 431 q 501 350 590 350 l 318 350 l 318 0 l 108 0 m 318 518 l 464 518 q 556 555 524 518 q 588 664 588 592 q 556 774 588 736 q 464 813 524 813 l 318 813 l 318 518 z "},"Þ":{"ha":853,"x_min":108,"x_max":792,"o":"m 108 0 l 108 979 l 318 979 l 318 819 l 499 819 q 653 782 588 819 q 755 675 718 744 q 792 508 792 606 q 754 342 792 414 q 652 232 717 271 q 499 193 588 193 l 318 193 l 318 0 l 108 0 m 318 360 l 460 360 q 553 396 521 360 q 585 506 585 432 q 553 615 585 578 q 460 651 521 651 l 318 651 l 318 360 z "},"Q":{"ha":986,"x_min":82,"x_max":903,"o":"m 714 -304 l 586 -69 q 551 -27 571 -40 q 499 -14 531 -14 l 646 44 q 717 36 686 44 q 770 8 747 28 q 810 -42 793 -11 l 900 -214 l 714 -304 m 493 -15 q 322 18 397 -15 q 192 117 246 51 q 110 276 139 182 q 82 489 82 369 q 111 702 82 608 q 194 861 140 796 q 322 960 247 926 q 493 994 397 994 q 665 960 589 994 q 793 862 740 926 q 874 703 846 797 q 903 492 903 610 q 874 278 903 372 q 793 118 846 183 q 665 19 740 53 q 493 -15 589 -15 m 493 165 q 602 201 560 165 q 667 310 644 238 q 690 490 690 382 q 668 672 690 600 q 602 778 646 743 q 493 814 558 814 q 384 778 428 814 q 318 671 340 743 q 296 489 296 599 q 318 308 296 381 q 384 201 340 236 q 493 165 428 165 z "},"R":{"ha":883,"x_min":108,"x_max":843,"o":"m 108 0 l 108 979 l 490 979 q 713 901 633 979 q 793 682 793 824 q 769 550 793 606 q 706 460 744 494 q 624 414 667 426 l 625 410 l 640 406 q 678 374 660 397 q 717 304 697 351 l 843 0 l 613 0 l 497 283 q 473 329 486 313 q 442 353 460 346 q 397 360 425 360 l 318 360 l 318 0 l 108 0 m 318 522 l 468 522 q 558 560 528 522 q 588 669 588 599 q 557 776 588 739 q 464 813 526 813 l 318 813 l 318 522 z "},"Ŕ":{"ha":883,"x_min":108,"x_max":843,"o":"m 108 0 l 108 979 l 490 979 q 713 901 633 979 q 793 682 793 824 q 769 550 793 606 q 706 460 744 494 q 624 414 667 426 l 625 410 l 640 406 q 678 374 660 397 q 717 304 697 351 l 843 0 l 613 0 l 497 283 q 473 329 486 313 q 442 353 460 346 q 397 360 425 360 l 318 360 l 318 0 l 108 0 m 318 522 l 468 522 q 558 560 528 522 q 588 669 588 599 q 557 776 588 739 q 464 813 526 813 l 318 813 l 318 522 m 360 1063 l 494 1293 l 722 1293 l 521 1063 l 360 1063 z "},"Ř":{"ha":883,"x_min":108,"x_max":843,"o":"m 108 0 l 108 979 l 490 979 q 713 901 633 979 q 793 682 793 824 q 769 550 793 606 q 706 460 744 494 q 624 414 667 426 l 625 410 l 640 406 q 678 374 660 397 q 717 304 697 351 l 843 0 l 613 0 l 497 283 q 473 329 486 313 q 442 353 460 346 q 397 360 425 360 l 318 360 l 318 0 l 108 0 m 318 522 l 468 522 q 558 560 528 522 q 588 669 588 599 q 557 776 588 739 q 464 813 526 813 l 318 813 l 318 522 m 354 1063 l 211 1283 l 364 1283 l 440 1163 l 517 1283 l 669 1283 l 526 1063 l 354 1063 z "},"Ŗ":{"ha":883,"x_min":108,"x_max":843,"o":"m 108 0 l 108 979 l 490 979 q 713 901 633 979 q 793 682 793 824 q 769 550 793 606 q 706 460 744 494 q 624 414 667 426 l 625 410 l 640 406 q 678 374 660 397 q 717 304 697 351 l 843 0 l 613 0 l 497 283 q 473 329 486 313 q 442 353 460 346 q 397 360 425 360 l 318 360 l 318 0 l 108 0 m 318 522 l 468 522 q 558 560 528 522 q 588 669 588 599 q 557 776 588 739 q 464 813 526 813 l 318 813 l 318 522 m 456 -431 l 381 -381 q 422 -312 408 -350 q 435 -239 435 -274 l 471 -258 l 350 -258 l 350 -97 l 532 -97 l 532 -221 q 515 -335 532 -282 q 456 -431 499 -389 z "},"Ȑ":{"ha":883,"x_min":107,"x_max":843,"o":"m 108 0 l 108 979 l 490 979 q 713 901 633 979 q 793 682 793 824 q 769 550 793 606 q 706 460 744 494 q 624 414 667 426 l 625 410 l 640 406 q 678 374 660 397 q 717 304 697 351 l 843 0 l 613 0 l 497 283 q 473 329 486 313 q 442 353 460 346 q 397 360 425 360 l 318 360 l 318 0 l 108 0 m 318 522 l 468 522 q 558 560 528 522 q 588 669 588 599 q 557 776 588 739 q 464 813 526 813 l 318 813 l 318 522 m 481 1063 l 325 1283 l 504 1283 l 599 1063 l 481 1063 m 282 1063 l 107 1283 l 285 1283 l 400 1063 l 282 1063 z "},"Ṛ":{"ha":883,"x_min":108,"x_max":843,"o":"m 108 0 l 108 979 l 490 979 q 713 901 633 979 q 793 682 793 824 q 769 550 793 606 q 706 460 744 494 q 624 414 667 426 l 625 410 l 640 406 q 678 374 660 397 q 717 304 697 351 l 843 0 l 613 0 l 497 283 q 473 329 486 313 q 442 353 460 346 q 397 360 425 360 l 318 360 l 318 0 l 108 0 m 318 522 l 468 522 q 558 560 528 522 q 588 669 588 599 q 557 776 588 739 q 464 813 526 813 l 318 813 l 318 522 m 347 -297 l 347 -114 l 536 -114 l 536 -297 l 347 -297 z "},"Ȓ":{"ha":883,"x_min":108,"x_max":843,"o":"m 108 0 l 108 979 l 490 979 q 713 901 633 979 q 793 682 793 824 q 769 550 793 606 q 706 460 744 494 q 624 414 667 426 l 625 410 l 640 406 q 678 374 660 397 q 717 304 697 351 l 843 0 l 613 0 l 497 283 q 473 329 486 313 q 442 353 460 346 q 397 360 425 360 l 318 360 l 318 0 l 108 0 m 318 522 l 468 522 q 558 560 528 522 q 588 669 588 599 q 557 776 588 739 q 464 813 526 813 l 318 813 l 318 522 m 340 1056 l 218 1065 q 279 1242 221 1183 q 440 1301 338 1301 q 601 1242 543 1301 q 663 1065 660 1182 l 540 1056 q 517 1133 539 1106 q 442 1161 496 1161 q 367 1135 392 1161 q 340 1056 343 1108 z "},"Ṟ":{"ha":883,"x_min":108,"x_max":843,"o":"m 108 0 l 108 979 l 490 979 q 713 901 633 979 q 793 682 793 824 q 769 550 793 606 q 706 460 744 494 q 624 414 667 426 l 625 410 l 640 406 q 678 374 660 397 q 717 304 697 351 l 843 0 l 613 0 l 497 283 q 473 329 486 313 q 442 353 460 346 q 397 360 425 360 l 318 360 l 318 0 l 108 0 m 318 522 l 468 522 q 558 560 528 522 q 588 669 588 599 q 557 776 588 739 q 464 813 526 813 l 318 813 l 318 522 m 231 -261 l 231 -117 l 654 -117 l 654 -261 l 231 -261 z "},"S":{"ha":824,"x_min":75,"x_max":763,"o":"m 413 -15 q 288 -6 350 -15 q 170 22 225 4 q 75 67 115 40 l 135 233 q 220 192 174 208 q 317 169 267 176 q 411 163 367 163 q 515 190 475 163 q 556 279 556 217 q 543 333 556 313 q 506 367 531 354 q 447 389 482 379 l 313 418 q 144 515 197 443 q 90 694 90 586 q 135 852 90 785 q 260 957 181 919 q 444 994 340 994 q 556 984 501 994 q 657 955 611 974 q 736 907 703 936 l 676 742 q 572 799 632 781 q 456 817 511 817 q 374 803 410 817 q 319 766 339 790 q 299 701 299 742 q 324 628 299 656 q 403 588 350 600 l 533 558 q 706 468 649 536 q 763 293 763 400 q 719 131 763 200 q 597 23 675 61 q 413 -15 518 -15 z "},"Ś":{"ha":824,"x_min":75,"x_max":763,"o":"m 413 -15 q 288 -6 350 -15 q 170 22 225 4 q 75 67 115 40 l 135 233 q 220 192 174 208 q 317 169 267 176 q 411 163 367 163 q 515 190 475 163 q 556 279 556 217 q 543 333 556 313 q 506 367 531 354 q 447 389 482 379 l 313 418 q 144 515 197 443 q 90 694 90 586 q 135 852 90 785 q 260 957 181 919 q 444 994 340 994 q 556 984 501 994 q 657 955 611 974 q 736 907 703 936 l 676 742 q 572 799 632 781 q 456 817 511 817 q 374 803 410 817 q 319 766 339 790 q 299 701 299 742 q 324 628 299 656 q 403 588 350 600 l 533 558 q 706 468 649 536 q 763 293 763 400 q 719 131 763 200 q 597 23 675 61 q 413 -15 518 -15 m 351 1063 l 486 1293 l 714 1293 l 513 1063 l 351 1063 z "},"Ṥ":{"ha":824,"x_min":75,"x_max":763,"o":"m 413 -15 q 288 -6 350 -15 q 170 22 225 4 q 75 67 115 40 l 135 233 q 220 192 174 208 q 317 169 267 176 q 411 163 367 163 q 515 190 475 163 q 556 279 556 217 q 543 333 556 313 q 506 367 531 354 q 447 389 482 379 l 313 418 q 144 515 197 443 q 90 694 90 586 q 135 852 90 785 q 260 957 181 919 q 444 994 340 994 q 556 984 501 994 q 657 955 611 974 q 736 907 703 936 l 676 742 q 572 799 632 781 q 456 817 511 817 q 374 803 410 817 q 319 766 339 790 q 299 701 299 742 q 324 628 299 656 q 403 588 350 600 l 533 558 q 706 468 649 536 q 763 293 763 400 q 719 131 763 200 q 597 23 675 61 q 413 -15 518 -15 m 247 1310 l 247 1458 l 425 1458 l 425 1310 l 247 1310 m 360 1061 l 472 1338 l 678 1338 l 506 1061 l 360 1061 z "},"Š":{"ha":824,"x_min":75,"x_max":763,"o":"m 413 -15 q 288 -6 350 -15 q 170 22 225 4 q 75 67 115 40 l 135 233 q 220 192 174 208 q 317 169 267 176 q 411 163 367 163 q 515 190 475 163 q 556 279 556 217 q 543 333 556 313 q 506 367 531 354 q 447 389 482 379 l 313 418 q 144 515 197 443 q 90 694 90 586 q 135 852 90 785 q 260 957 181 919 q 444 994 340 994 q 556 984 501 994 q 657 955 611 974 q 736 907 703 936 l 676 742 q 572 799 632 781 q 456 817 511 817 q 374 803 410 817 q 319 766 339 790 q 299 701 299 742 q 324 628 299 656 q 403 588 350 600 l 533 558 q 706 468 649 536 q 763 293 763 400 q 719 131 763 200 q 597 23 675 61 q 413 -15 518 -15 m 346 1063 l 203 1283 l 356 1283 l 432 1163 l 508 1283 l 661 1283 l 518 1063 l 346 1063 z "},"Ṧ":{"ha":824,"x_min":75,"x_max":763,"o":"m 413 -15 q 288 -6 350 -15 q 170 22 225 4 q 75 67 115 40 l 135 233 q 220 192 174 208 q 317 169 267 176 q 411 163 367 163 q 515 190 475 163 q 556 279 556 217 q 543 333 556 313 q 506 367 531 354 q 447 389 482 379 l 313 418 q 144 515 197 443 q 90 694 90 586 q 135 852 90 785 q 260 957 181 919 q 444 994 340 994 q 556 984 501 994 q 657 955 611 974 q 736 907 703 936 l 676 742 q 572 799 632 781 q 456 817 511 817 q 374 803 410 817 q 319 766 339 790 q 299 701 299 742 q 324 628 299 656 q 403 588 350 600 l 533 558 q 706 468 649 536 q 763 293 763 400 q 719 131 763 200 q 597 23 675 61 q 413 -15 518 -15 m 344 1068 l 221 1288 l 367 1288 l 432 1161 l 499 1288 l 643 1288 l 519 1068 l 344 1068 m 335 1346 l 335 1493 l 529 1493 l 529 1346 l 335 1346 z "},"Ş":{"ha":824,"x_min":75,"x_max":763,"o":"m 413 -15 q 288 -6 350 -15 q 170 22 225 4 q 75 67 115 40 l 135 233 q 220 192 174 208 q 317 169 267 176 q 411 163 367 163 q 515 190 475 163 q 556 279 556 217 q 543 333 556 313 q 506 367 531 354 q 447 389 482 379 l 313 418 q 144 515 197 443 q 90 694 90 586 q 135 852 90 785 q 260 957 181 919 q 444 994 340 994 q 556 984 501 994 q 657 955 611 974 q 736 907 703 936 l 676 742 q 572 799 632 781 q 456 817 511 817 q 374 803 410 817 q 319 766 339 790 q 299 701 299 742 q 324 628 299 656 q 403 588 350 600 l 533 558 q 706 468 649 536 q 763 293 763 400 q 719 131 763 200 q 597 23 675 61 q 413 -15 518 -15 m 424 -287 q 349 -280 392 -287 q 279 -258 306 -272 l 308 -171 q 360 -190 331 -182 q 425 -199 389 -199 q 465 -190 451 -199 q 479 -160 479 -181 q 464 -130 479 -139 q 429 -121 449 -121 q 401 -124 419 -121 q 372 -129 382 -126 l 344 -103 l 365 28 l 456 28 l 439 -89 l 399 -62 q 433 -53 410 -56 q 485 -50 457 -50 q 539 -60 513 -50 q 583 -95 565 -71 q 600 -160 600 -119 q 578 -233 600 -204 q 517 -274 557 -261 q 424 -287 478 -287 z "},"Ŝ":{"ha":824,"x_min":75,"x_max":763,"o":"m 413 -15 q 288 -6 350 -15 q 170 22 225 4 q 75 67 115 40 l 135 233 q 220 192 174 208 q 317 169 267 176 q 411 163 367 163 q 515 190 475 163 q 556 279 556 217 q 543 333 556 313 q 506 367 531 354 q 447 389 482 379 l 313 418 q 144 515 197 443 q 90 694 90 586 q 135 852 90 785 q 260 957 181 919 q 444 994 340 994 q 556 984 501 994 q 657 955 611 974 q 736 907 703 936 l 676 742 q 572 799 632 781 q 456 817 511 817 q 374 803 410 817 q 319 766 339 790 q 299 701 299 742 q 324 628 299 656 q 403 588 350 600 l 533 558 q 706 468 649 536 q 763 293 763 400 q 719 131 763 200 q 597 23 675 61 q 413 -15 518 -15 m 203 1063 l 346 1283 l 518 1283 l 661 1063 l 508 1063 l 432 1183 l 356 1063 l 203 1063 z "},"Ș":{"ha":824,"x_min":75,"x_max":763,"o":"m 413 -15 q 288 -6 350 -15 q 170 22 225 4 q 75 67 115 40 l 135 233 q 220 192 174 208 q 317 169 267 176 q 411 163 367 163 q 515 190 475 163 q 556 279 556 217 q 543 333 556 313 q 506 367 531 354 q 447 389 482 379 l 313 418 q 144 515 197 443 q 90 694 90 586 q 135 852 90 785 q 260 957 181 919 q 444 994 340 994 q 556 984 501 994 q 657 955 611 974 q 736 907 703 936 l 676 742 q 572 799 632 781 q 456 817 511 817 q 374 803 410 817 q 319 766 339 790 q 299 701 299 742 q 324 628 299 656 q 403 588 350 600 l 533 558 q 706 468 649 536 q 763 293 763 400 q 719 131 763 200 q 597 23 675 61 q 413 -15 518 -15 m 428 -431 l 353 -381 q 394 -312 381 -350 q 407 -239 407 -274 l 443 -258 l 322 -258 l 322 -97 l 504 -97 l 504 -221 q 488 -335 504 -282 q 428 -431 471 -389 z "},"Ṡ":{"ha":824,"x_min":75,"x_max":763,"o":"m 413 -15 q 288 -6 350 -15 q 170 22 225 4 q 75 67 115 40 l 135 233 q 220 192 174 208 q 317 169 267 176 q 411 163 367 163 q 515 190 475 163 q 556 279 556 217 q 543 333 556 313 q 506 367 531 354 q 447 389 482 379 l 313 418 q 144 515 197 443 q 90 694 90 586 q 135 852 90 785 q 260 957 181 919 q 444 994 340 994 q 556 984 501 994 q 657 955 611 974 q 736 907 703 936 l 676 742 q 572 799 632 781 q 456 817 511 817 q 374 803 410 817 q 319 766 339 790 q 299 701 299 742 q 324 628 299 656 q 403 588 350 600 l 533 558 q 706 468 649 536 q 763 293 763 400 q 719 131 763 200 q 597 23 675 61 q 413 -15 518 -15 m 335 1089 l 335 1275 l 528 1275 l 528 1089 l 335 1089 z "},"Ṣ":{"ha":824,"x_min":75,"x_max":763,"o":"m 413 -15 q 288 -6 350 -15 q 170 22 225 4 q 75 67 115 40 l 135 233 q 220 192 174 208 q 317 169 267 176 q 411 163 367 163 q 515 190 475 163 q 556 279 556 217 q 543 333 556 313 q 506 367 531 354 q 447 389 482 379 l 313 418 q 144 515 197 443 q 90 694 90 586 q 135 852 90 785 q 260 957 181 919 q 444 994 340 994 q 556 984 501 994 q 657 955 611 974 q 736 907 703 936 l 676 742 q 572 799 632 781 q 456 817 511 817 q 374 803 410 817 q 319 766 339 790 q 299 701 299 742 q 324 628 299 656 q 403 588 350 600 l 533 558 q 706 468 649 536 q 763 293 763 400 q 719 131 763 200 q 597 23 675 61 q 413 -15 518 -15 m 319 -297 l 319 -114 l 508 -114 l 508 -297 l 319 -297 z "},"Ṩ":{"ha":824,"x_min":75,"x_max":763,"o":"m 413 -15 q 288 -6 350 -15 q 170 22 225 4 q 75 67 115 40 l 135 233 q 220 192 174 208 q 317 169 267 176 q 411 163 367 163 q 515 190 475 163 q 556 279 556 217 q 543 333 556 313 q 506 367 531 354 q 447 389 482 379 l 313 418 q 144 515 197 443 q 90 694 90 586 q 135 852 90 785 q 260 957 181 919 q 444 994 340 994 q 556 984 501 994 q 657 955 611 974 q 736 907 703 936 l 676 742 q 572 799 632 781 q 456 817 511 817 q 374 803 410 817 q 319 766 339 790 q 299 701 299 742 q 324 628 299 656 q 403 588 350 600 l 533 558 q 706 468 649 536 q 763 293 763 400 q 719 131 763 200 q 597 23 675 61 q 413 -15 518 -15 m 319 -297 l 319 -114 l 508 -114 l 508 -297 l 319 -297 m 335 1089 l 335 1275 l 528 1275 l 528 1089 l 335 1089 z "},"ẞ":{"ha":940,"x_min":108,"x_max":863,"o":"m 586 -15 q 478 -1 529 -15 q 382 40 426 13 l 429 194 q 486 164 460 172 q 542 156 513 156 q 630 188 600 156 q 660 286 660 221 q 627 384 660 354 q 539 414 594 414 l 438 414 l 438 568 l 500 568 q 554 584 529 568 q 593 628 579 600 q 607 697 607 657 q 576 790 607 758 q 476 821 544 821 q 358 772 397 821 q 318 619 318 724 l 318 0 l 108 0 l 108 617 q 147 820 108 736 q 266 949 185 904 q 475 994 347 994 q 657 962 582 994 q 772 870 732 929 q 813 729 813 811 q 800 638 813 679 q 765 565 788 596 q 714 513 743 533 l 714 507 q 822 422 782 485 q 863 267 863 360 q 829 123 863 186 q 734 22 796 60 q 586 -15 672 -15 z "},"T":{"ha":804,"x_min":43,"x_max":761,"o":"m 297 0 l 297 800 l 43 800 l 43 979 l 761 979 l 761 800 l 507 800 l 507 0 l 297 0 z "},"Ŧ":{"ha":804,"x_min":43,"x_max":761,"o":"m 297 0 l 297 800 l 43 800 l 43 979 l 761 979 l 761 800 l 507 800 l 507 0 l 297 0 m 142 364 l 142 521 l 663 521 l 663 364 l 142 364 z "},"Ť":{"ha":804,"x_min":43,"x_max":761,"o":"m 297 0 l 297 800 l 43 800 l 43 979 l 761 979 l 761 800 l 507 800 l 507 0 l 297 0 m 317 1063 l 174 1283 l 326 1283 l 403 1163 l 479 1283 l 632 1283 l 489 1063 l 317 1063 z "},"Ţ":{"ha":804,"x_min":43,"x_max":761,"o":"m 297 0 l 297 800 l 43 800 l 43 979 l 761 979 l 761 800 l 507 800 l 507 0 l 297 0 m 413 -287 q 338 -280 381 -287 q 268 -258 294 -272 l 297 -171 q 349 -190 319 -182 q 414 -199 378 -199 q 454 -190 440 -199 q 468 -160 468 -181 q 453 -130 468 -139 q 418 -121 438 -121 q 390 -124 408 -121 q 361 -129 371 -126 l 333 -103 l 354 28 l 444 28 l 428 -89 l 388 -62 q 422 -53 399 -56 q 474 -50 446 -50 q 528 -60 501 -50 q 572 -95 554 -71 q 589 -160 589 -119 q 567 -233 589 -204 q 506 -274 546 -261 q 413 -287 467 -287 z "},"Ț":{"ha":804,"x_min":43,"x_max":761,"o":"m 297 0 l 297 800 l 43 800 l 43 979 l 761 979 l 761 800 l 507 800 l 507 0 l 297 0 m 417 -431 l 342 -381 q 383 -312 369 -350 q 396 -239 396 -274 l 432 -258 l 311 -258 l 311 -97 l 493 -97 l 493 -221 q 476 -335 493 -282 q 417 -431 460 -389 z "},"Ṭ":{"ha":804,"x_min":43,"x_max":761,"o":"m 297 0 l 297 800 l 43 800 l 43 979 l 761 979 l 761 800 l 507 800 l 507 0 l 297 0 m 308 -297 l 308 -114 l 497 -114 l 497 -297 l 308 -297 z "},"Ṯ":{"ha":804,"x_min":43,"x_max":761,"o":"m 297 0 l 297 800 l 43 800 l 43 979 l 761 979 l 761 800 l 507 800 l 507 0 l 297 0 m 192 -261 l 192 -117 l 615 -117 l 615 -261 l 192 -261 z "},"U":{"ha":911,"x_min":97,"x_max":813,"o":"m 456 -15 q 187 75 276 -15 q 97 350 97 165 l 97 979 l 307 979 l 307 363 q 343 217 307 260 q 456 174 379 174 q 570 217 536 174 q 604 363 604 260 l 604 979 l 813 979 l 813 350 q 722 76 813 167 q 456 -15 632 -15 z "},"Ú":{"ha":911,"x_min":97,"x_max":813,"o":"m 456 -15 q 187 75 276 -15 q 97 350 97 165 l 97 979 l 307 979 l 307 363 q 343 217 307 260 q 456 174 379 174 q 570 217 536 174 q 604 363 604 260 l 604 979 l 813 979 l 813 350 q 722 76 813 167 q 456 -15 632 -15 m 374 1063 l 508 1293 l 736 1293 l 535 1063 l 374 1063 z "},"Ŭ":{"ha":911,"x_min":97,"x_max":813,"o":"m 456 -15 q 187 75 276 -15 q 97 350 97 165 l 97 979 l 307 979 l 307 363 q 343 217 307 260 q 456 174 379 174 q 570 217 536 174 q 604 363 604 260 l 604 979 l 813 979 l 813 350 q 722 76 813 167 q 456 -15 632 -15 m 454 1056 q 293 1116 351 1056 q 232 1290 235 1176 l 354 1301 q 379 1222 357 1249 q 454 1196 401 1196 q 530 1222 507 1196 q 554 1301 553 1249 l 676 1290 q 615 1116 674 1176 q 454 1056 557 1056 z "},"Û":{"ha":911,"x_min":97,"x_max":813,"o":"m 456 -15 q 187 75 276 -15 q 97 350 97 165 l 97 979 l 307 979 l 307 363 q 343 217 307 260 q 456 174 379 174 q 570 217 536 174 q 604 363 604 260 l 604 979 l 813 979 l 813 350 q 722 76 813 167 q 456 -15 632 -15 m 225 1063 l 368 1283 l 540 1283 l 683 1063 l 531 1063 l 454 1183 l 378 1063 l 225 1063 z "},"Ȕ":{"ha":911,"x_min":97,"x_max":813,"o":"m 456 -15 q 187 75 276 -15 q 97 350 97 165 l 97 979 l 307 979 l 307 363 q 343 217 307 260 q 456 174 379 174 q 570 217 536 174 q 604 363 604 260 l 604 979 l 813 979 l 813 350 q 722 76 813 167 q 456 -15 632 -15 m 494 1063 l 339 1283 l 518 1283 l 613 1063 l 494 1063 m 296 1063 l 121 1283 l 299 1283 l 414 1063 l 296 1063 z "},"Ü":{"ha":911,"x_min":97,"x_max":813,"o":"m 456 -15 q 187 75 276 -15 q 97 350 97 165 l 97 979 l 307 979 l 307 363 q 343 217 307 260 q 456 174 379 174 q 570 217 536 174 q 604 363 604 260 l 604 979 l 813 979 l 813 350 q 722 76 813 167 q 456 -15 632 -15 m 499 1086 l 499 1264 l 686 1264 l 686 1086 l 499 1086 m 222 1086 l 222 1264 l 410 1264 l 410 1086 l 222 1086 z "},"Ụ":{"ha":911,"x_min":97,"x_max":813,"o":"m 456 -15 q 187 75 276 -15 q 97 350 97 165 l 97 979 l 307 979 l 307 363 q 343 217 307 260 q 456 174 379 174 q 570 217 536 174 q 604 363 604 260 l 604 979 l 813 979 l 813 350 q 722 76 813 167 q 456 -15 632 -15 m 360 -297 l 360 -114 l 549 -114 l 549 -297 l 360 -297 z "},"Ù":{"ha":911,"x_min":97,"x_max":813,"o":"m 456 -15 q 187 75 276 -15 q 97 350 97 165 l 97 979 l 307 979 l 307 363 q 343 217 307 260 q 456 174 379 174 q 570 217 536 174 q 604 363 604 260 l 604 979 l 813 979 l 813 350 q 722 76 813 167 q 456 -15 632 -15 m 383 1063 l 182 1283 l 393 1283 l 526 1063 l 383 1063 z "},"Ủ":{"ha":911,"x_min":97,"x_max":813,"o":"m 456 -15 q 187 75 276 -15 q 97 350 97 165 l 97 979 l 307 979 l 307 363 q 343 217 307 260 q 456 174 379 174 q 570 217 536 174 q 604 363 604 260 l 604 979 l 813 979 l 813 350 q 722 76 813 167 q 456 -15 632 -15 m 394 1063 l 394 1089 q 403 1123 394 1108 q 422 1149 411 1138 q 440 1171 432 1160 q 447 1194 447 1182 q 439 1214 447 1208 q 413 1219 431 1219 q 380 1216 397 1219 q 346 1204 363 1213 l 318 1288 q 381 1311 344 1303 q 458 1319 417 1319 q 563 1295 526 1319 q 599 1226 599 1271 q 586 1178 599 1197 q 557 1146 574 1160 q 527 1118 540 1132 q 514 1085 514 1104 l 514 1063 l 394 1063 z "},"Ư":{"ha":911,"x_min":97,"x_max":928,"o":"m 456 -15 q 187 75 276 -15 q 97 350 97 165 l 97 979 l 307 979 l 307 363 q 343 217 307 260 q 456 174 379 174 q 570 217 536 174 q 604 363 604 260 l 604 979 l 813 979 l 813 350 q 722 76 813 167 q 456 -15 632 -15 m 786 876 l 657 957 l 657 979 q 709 992 689 979 q 738 1036 729 1006 q 747 1118 747 1067 l 747 1151 l 928 1151 l 928 1093 q 910 989 928 1035 q 861 914 893 943 q 786 876 829 885 z "},"Ứ":{"ha":911,"x_min":97,"x_max":928,"o":"m 456 -15 q 187 75 276 -15 q 97 350 97 165 l 97 979 l 307 979 l 307 363 q 343 217 307 260 q 456 174 379 174 q 570 217 536 174 q 604 363 604 260 l 604 979 l 813 979 l 813 350 q 722 76 813 167 q 456 -15 632 -15 m 786 876 l 657 957 l 657 979 q 709 992 689 979 q 738 1036 729 1006 q 747 1118 747 1067 l 747 1151 l 928 1151 l 928 1093 q 910 989 928 1035 q 861 914 893 943 q 786 876 829 885 m 375 1063 l 510 1293 l 738 1293 l 536 1063 l 375 1063 z "},"Ự":{"ha":911,"x_min":97,"x_max":928,"o":"m 456 -15 q 187 75 276 -15 q 97 350 97 165 l 97 979 l 307 979 l 307 363 q 343 217 307 260 q 456 174 379 174 q 570 217 536 174 q 604 363 604 260 l 604 979 l 813 979 l 813 350 q 722 76 813 167 q 456 -15 632 -15 m 786 876 l 657 957 l 657 979 q 709 992 689 979 q 738 1036 729 1006 q 747 1118 747 1067 l 747 1151 l 928 1151 l 928 1093 q 910 989 928 1035 q 861 914 893 943 q 786 876 829 885 m 361 -297 l 361 -114 l 550 -114 l 550 -297 l 361 -297 z "},"Ừ":{"ha":911,"x_min":97,"x_max":928,"o":"m 456 -15 q 187 75 276 -15 q 97 350 97 165 l 97 979 l 307 979 l 307 363 q 343 217 307 260 q 456 174 379 174 q 570 217 536 174 q 604 363 604 260 l 604 979 l 813 979 l 813 350 q 722 76 813 167 q 456 -15 632 -15 m 786 876 l 657 957 l 657 979 q 709 992 689 979 q 738 1036 729 1006 q 747 1118 747 1067 l 747 1151 l 928 1151 l 928 1093 q 910 989 928 1035 q 861 914 893 943 q 786 876 829 885 m 385 1063 l 183 1283 l 394 1283 l 528 1063 l 385 1063 z "},"Ử":{"ha":911,"x_min":97,"x_max":928,"o":"m 456 -15 q 187 75 276 -15 q 97 350 97 165 l 97 979 l 307 979 l 307 363 q 343 217 307 260 q 456 174 379 174 q 570 217 536 174 q 604 363 604 260 l 604 979 l 813 979 l 813 350 q 722 76 813 167 q 456 -15 632 -15 m 786 876 l 657 957 l 657 979 q 709 992 689 979 q 738 1036 729 1006 q 747 1118 747 1067 l 747 1151 l 928 1151 l 928 1093 q 910 989 928 1035 q 861 914 893 943 q 786 876 829 885 m 396 1063 l 396 1089 q 404 1123 396 1108 q 423 1149 413 1138 q 441 1171 433 1160 q 449 1194 449 1182 q 440 1214 449 1208 q 414 1219 432 1219 q 381 1216 399 1219 q 347 1204 364 1213 l 319 1288 q 382 1311 346 1303 q 460 1319 418 1319 q 564 1295 528 1319 q 600 1226 600 1271 q 588 1178 600 1197 q 558 1146 575 1160 q 528 1118 542 1132 q 515 1085 515 1104 l 515 1063 l 396 1063 z "},"Ữ":{"ha":911,"x_min":97,"x_max":928,"o":"m 456 -15 q 187 75 276 -15 q 97 350 97 165 l 97 979 l 307 979 l 307 363 q 343 217 307 260 q 456 174 379 174 q 570 217 536 174 q 604 363 604 260 l 604 979 l 813 979 l 813 350 q 722 76 813 167 q 456 -15 632 -15 m 786 876 l 657 957 l 657 979 q 709 992 689 979 q 738 1036 729 1006 q 747 1118 747 1067 l 747 1151 l 928 1151 l 928 1093 q 910 989 928 1035 q 861 914 893 943 q 786 876 829 885 m 271 1058 l 161 1067 q 179 1172 161 1125 q 233 1243 197 1218 q 319 1268 269 1268 q 387 1252 358 1268 q 436 1224 415 1236 q 470 1205 451 1215 q 510 1194 489 1194 q 555 1217 540 1194 q 568 1274 569 1240 l 676 1268 q 658 1162 676 1207 q 603 1092 639 1117 q 519 1067 568 1067 q 449 1082 478 1067 q 404 1108 421 1097 q 370 1128 389 1117 q 328 1139 351 1139 q 283 1115 294 1139 q 271 1058 271 1090 z "},"Ű":{"ha":911,"x_min":97,"x_max":813,"o":"m 456 -15 q 187 75 276 -15 q 97 350 97 165 l 97 979 l 307 979 l 307 363 q 343 217 307 260 q 456 174 379 174 q 570 217 536 174 q 604 363 604 260 l 604 979 l 813 979 l 813 350 q 722 76 813 167 q 456 -15 632 -15 m 297 1063 l 392 1283 l 569 1283 l 415 1063 l 297 1063 m 494 1063 l 611 1283 l 788 1283 l 613 1063 l 494 1063 z "},"Ȗ":{"ha":911,"x_min":97,"x_max":813,"o":"m 456 -15 q 187 75 276 -15 q 97 350 97 165 l 97 979 l 307 979 l 307 363 q 343 217 307 260 q 456 174 379 174 q 570 217 536 174 q 604 363 604 260 l 604 979 l 813 979 l 813 350 q 722 76 813 167 q 456 -15 632 -15 m 354 1056 l 232 1065 q 293 1242 235 1183 q 454 1301 351 1301 q 615 1242 557 1301 q 676 1065 674 1182 l 554 1056 q 531 1133 553 1106 q 456 1161 510 1161 q 381 1135 406 1161 q 354 1056 357 1108 z "},"Ū":{"ha":911,"x_min":97,"x_max":813,"o":"m 456 -15 q 187 75 276 -15 q 97 350 97 165 l 97 979 l 307 979 l 307 363 q 343 217 307 260 q 456 174 379 174 q 570 217 536 174 q 604 363 604 260 l 604 979 l 813 979 l 813 350 q 722 76 813 167 q 456 -15 632 -15 m 243 1113 l 243 1258 l 665 1258 l 665 1113 l 243 1113 z "},"Ṻ":{"ha":911,"x_min":97,"x_max":813,"o":"m 456 -15 q 187 75 276 -15 q 97 350 97 165 l 97 979 l 307 979 l 307 363 q 343 217 307 260 q 456 174 379 174 q 570 217 536 174 q 604 363 604 260 l 604 979 l 813 979 l 813 350 q 722 76 813 167 q 456 -15 632 -15 m 243 1099 l 243 1233 l 667 1233 l 667 1099 l 243 1099 m 231 1311 l 231 1458 l 419 1458 l 419 1311 l 231 1311 m 489 1311 l 489 1458 l 678 1458 l 678 1311 l 489 1311 z "},"Ų":{"ha":911,"x_min":97,"x_max":813,"o":"m 456 -15 q 187 75 276 -15 q 97 350 97 165 l 97 979 l 307 979 l 307 363 q 343 217 307 260 q 456 174 379 174 q 570 217 536 174 q 604 363 604 260 l 604 979 l 813 979 l 813 350 q 722 76 813 167 q 456 -15 632 -15 m 486 -287 q 371 -253 413 -287 q 329 -156 329 -218 q 363 -40 329 -97 q 457 58 397 17 l 521 0 q 491 -32 504 -14 q 470 -70 478 -50 q 463 -111 463 -90 q 476 -155 463 -140 q 514 -169 489 -169 q 541 -166 526 -169 q 572 -157 556 -162 l 596 -264 q 540 -282 565 -276 q 486 -287 515 -287 z "},"Ů":{"ha":911,"x_min":97,"x_max":813,"o":"m 456 -15 q 187 75 276 -15 q 97 350 97 165 l 97 979 l 307 979 l 307 363 q 343 217 307 260 q 456 174 379 174 q 570 217 536 174 q 604 363 604 260 l 604 979 l 813 979 l 813 350 q 722 76 813 167 q 456 -15 632 -15 m 454 1044 q 367 1067 406 1044 q 307 1128 329 1090 q 285 1213 285 1167 q 307 1299 285 1261 q 367 1358 329 1336 q 454 1379 406 1379 q 541 1358 503 1379 q 601 1299 579 1336 q 624 1213 624 1261 q 601 1127 624 1165 q 541 1067 579 1089 q 454 1044 503 1044 m 453 1124 q 513 1149 489 1124 q 536 1213 536 1175 q 513 1276 536 1251 q 454 1301 489 1301 q 396 1276 419 1301 q 372 1214 372 1251 q 396 1149 372 1174 q 453 1124 419 1124 z "},"Ũ":{"ha":911,"x_min":97,"x_max":813,"o":"m 456 -15 q 187 75 276 -15 q 97 350 97 165 l 97 979 l 307 979 l 307 363 q 343 217 307 260 q 456 174 379 174 q 570 217 536 174 q 604 363 604 260 l 604 979 l 813 979 l 813 350 q 722 76 813 167 q 456 -15 632 -15 m 296 1058 l 186 1065 q 224 1212 185 1156 q 336 1268 264 1268 q 415 1251 381 1268 q 471 1226 450 1233 q 510 1208 488 1219 q 557 1197 533 1197 q 600 1219 586 1197 q 611 1274 614 1240 l 722 1268 q 685 1122 724 1178 q 571 1065 646 1065 q 492 1081 528 1065 q 440 1106 457 1097 q 400 1124 425 1113 q 351 1135 375 1135 q 309 1115 322 1135 q 296 1058 296 1094 z "},"Ṹ":{"ha":911,"x_min":97,"x_max":813,"o":"m 456 -15 q 187 75 276 -15 q 97 350 97 165 l 97 979 l 307 979 l 307 363 q 343 217 307 260 q 456 174 379 174 q 570 217 536 174 q 604 363 604 260 l 604 979 l 813 979 l 813 350 q 722 76 813 167 q 456 -15 632 -15 m 381 1275 l 476 1474 l 686 1474 l 524 1275 l 381 1275 m 540 1064 q 474 1078 500 1064 q 432 1101 449 1092 q 406 1117 422 1107 q 369 1128 390 1128 q 338 1108 347 1128 q 325 1063 328 1089 l 225 1069 q 242 1158 229 1119 q 283 1219 254 1197 q 363 1242 313 1242 q 435 1227 406 1242 q 478 1201 464 1213 q 505 1187 489 1196 q 540 1178 521 1178 q 572 1197 563 1178 q 585 1242 582 1217 l 683 1238 q 647 1111 679 1158 q 540 1064 615 1064 z "},"V":{"ha":857,"x_min":-10,"x_max":867,"o":"m 342 0 l -10 979 l 215 979 l 431 267 l 428 267 l 643 979 l 867 979 l 515 0 l 342 0 z "},"W":{"ha":1315,"x_min":50,"x_max":1264,"o":"m 294 0 l 50 979 l 272 979 l 406 265 l 418 265 l 585 979 l 740 979 l 911 264 l 919 264 l 1054 979 l 1264 979 l 1019 0 l 825 0 l 663 686 l 651 686 l 482 0 l 294 0 z "},"Ẃ":{"ha":1315,"x_min":50,"x_max":1264,"o":"m 294 0 l 50 979 l 272 979 l 406 265 l 418 265 l 585 979 l 740 979 l 911 264 l 919 264 l 1054 979 l 1264 979 l 1019 0 l 825 0 l 663 686 l 651 686 l 482 0 l 294 0 m 576 1063 l 711 1293 l 939 1293 l 738 1063 l 576 1063 z "},"Ŵ":{"ha":1315,"x_min":50,"x_max":1264,"o":"m 294 0 l 50 979 l 272 979 l 406 265 l 418 265 l 585 979 l 740 979 l 911 264 l 919 264 l 1054 979 l 1264 979 l 1019 0 l 825 0 l 663 686 l 651 686 l 482 0 l 294 0 m 428 1063 l 571 1283 l 743 1283 l 886 1063 l 733 1063 l 657 1183 l 581 1063 l 428 1063 z "},"Ẅ":{"ha":1315,"x_min":50,"x_max":1264,"o":"m 294 0 l 50 979 l 272 979 l 406 265 l 418 265 l 585 979 l 740 979 l 911 264 l 919 264 l 1054 979 l 1264 979 l 1019 0 l 825 0 l 663 686 l 651 686 l 482 0 l 294 0 m 701 1086 l 701 1264 l 889 1264 l 889 1086 l 701 1086 m 425 1086 l 425 1264 l 613 1264 l 613 1086 l 425 1086 z "},"Ẁ":{"ha":1315,"x_min":50,"x_max":1264,"o":"m 294 0 l 50 979 l 272 979 l 406 265 l 418 265 l 585 979 l 740 979 l 911 264 l 919 264 l 1054 979 l 1264 979 l 1019 0 l 825 0 l 663 686 l 651 686 l 482 0 l 294 0 m 586 1063 l 385 1283 l 596 1283 l 729 1063 l 586 1063 z "},"X":{"ha":846,"x_min":22,"x_max":825,"o":"m 22 0 l 288 542 l 289 454 l 32 979 l 271 979 l 422 607 l 422 607 l 578 979 l 815 979 l 557 456 l 557 542 l 825 0 l 586 0 l 425 388 l 422 388 l 258 0 l 22 0 z "},"Y":{"ha":785,"x_min":-12,"x_max":797,"o":"m 288 0 l 288 510 l 325 364 l -12 979 l 217 979 l 392 600 l 397 600 l 572 979 l 797 979 l 460 364 l 497 510 l 497 0 l 288 0 z "},"Ý":{"ha":785,"x_min":-12,"x_max":797,"o":"m 288 0 l 288 510 l 325 364 l -12 979 l 217 979 l 392 600 l 397 600 l 572 979 l 797 979 l 460 364 l 497 510 l 497 0 l 288 0 m 313 1063 l 447 1293 l 675 1293 l 474 1063 l 313 1063 z "},"Ŷ":{"ha":785,"x_min":-12,"x_max":797,"o":"m 288 0 l 288 510 l 325 364 l -12 979 l 217 979 l 392 600 l 397 600 l 572 979 l 797 979 l 460 364 l 497 510 l 497 0 l 288 0 m 164 1063 l 307 1283 l 479 1283 l 622 1063 l 469 1063 l 393 1183 l 317 1063 l 164 1063 z "},"Ÿ":{"ha":785,"x_min":-12,"x_max":797,"o":"m 288 0 l 288 510 l 325 364 l -12 979 l 217 979 l 392 600 l 397 600 l 572 979 l 797 979 l 460 364 l 497 510 l 497 0 l 288 0 m 438 1086 l 438 1264 l 625 1264 l 625 1086 l 438 1086 m 161 1086 l 161 1264 l 349 1264 l 349 1086 l 161 1086 z "},"Ẏ":{"ha":785,"x_min":-12,"x_max":797,"o":"m 288 0 l 288 510 l 325 364 l -12 979 l 217 979 l 392 600 l 397 600 l 572 979 l 797 979 l 460 364 l 497 510 l 497 0 l 288 0 m 296 1089 l 296 1275 l 489 1275 l 489 1089 l 296 1089 z "},"Ỵ":{"ha":785,"x_min":-12,"x_max":797,"o":"m 288 0 l 288 510 l 325 364 l -12 979 l 217 979 l 392 600 l 397 600 l 572 979 l 797 979 l 460 364 l 497 510 l 497 0 l 288 0 m 299 -297 l 299 -114 l 488 -114 l 488 -297 l 299 -297 z "},"Ỳ":{"ha":785,"x_min":-12,"x_max":797,"o":"m 288 0 l 288 510 l 325 364 l -12 979 l 217 979 l 392 600 l 397 600 l 572 979 l 797 979 l 460 364 l 497 510 l 497 0 l 288 0 m 322 1063 l 121 1283 l 332 1283 l 465 1063 l 322 1063 z "},"Ƴ":{"ha":771,"x_min":-12,"x_max":808,"o":"m 288 0 l 288 510 l 325 364 l -12 979 l 217 979 l 392 600 l 397 600 l 513 839 q 601 960 551 925 q 714 994 650 994 q 767 990 743 994 q 808 976 792 985 l 808 817 q 788 824 799 821 q 765 826 776 826 q 706 806 724 826 q 667 747 688 785 l 460 364 l 497 510 l 497 0 l 288 0 z "},"Ỷ":{"ha":785,"x_min":-12,"x_max":797,"o":"m 288 0 l 288 510 l 325 364 l -12 979 l 217 979 l 392 600 l 397 600 l 572 979 l 797 979 l 460 364 l 497 510 l 497 0 l 288 0 m 333 1063 l 333 1089 q 342 1123 333 1108 q 360 1149 350 1138 q 378 1171 371 1160 q 386 1194 386 1182 q 378 1214 386 1208 q 351 1219 369 1219 q 319 1216 336 1219 q 285 1204 301 1213 l 257 1288 q 319 1311 283 1303 q 397 1319 356 1319 q 501 1295 465 1319 q 538 1226 538 1271 q 525 1178 538 1197 q 496 1146 513 1160 q 466 1118 479 1132 q 453 1085 453 1104 l 453 1063 l 333 1063 z "},"Ȳ":{"ha":785,"x_min":-12,"x_max":797,"o":"m 288 0 l 288 510 l 325 364 l -12 979 l 217 979 l 392 600 l 397 600 l 572 979 l 797 979 l 460 364 l 497 510 l 497 0 l 288 0 m 182 1113 l 182 1258 l 604 1258 l 604 1113 l 182 1113 z "},"Ỹ":{"ha":785,"x_min":-12,"x_max":797,"o":"m 288 0 l 288 510 l 325 364 l -12 979 l 217 979 l 392 600 l 397 600 l 572 979 l 797 979 l 460 364 l 497 510 l 497 0 l 288 0 m 235 1058 l 125 1065 q 163 1212 124 1156 q 275 1268 203 1268 q 354 1251 319 1268 q 410 1226 389 1233 q 449 1208 426 1219 q 496 1197 472 1197 q 539 1219 525 1197 q 550 1274 553 1240 l 661 1268 q 624 1122 663 1178 q 510 1065 585 1065 q 431 1081 467 1065 q 379 1106 396 1097 q 339 1124 364 1113 q 290 1135 314 1135 q 248 1115 261 1135 q 235 1058 235 1094 z "},"Z":{"ha":769,"x_min":75,"x_max":714,"o":"m 75 0 l 75 144 l 500 875 l 519 803 l 75 803 l 75 979 l 700 979 l 700 838 l 272 104 l 253 176 l 714 176 l 714 0 l 75 0 z "},"Ź":{"ha":769,"x_min":75,"x_max":714,"o":"m 75 0 l 75 144 l 500 875 l 519 803 l 75 803 l 75 979 l 700 979 l 700 838 l 272 104 l 253 176 l 714 176 l 714 0 l 75 0 m 304 1063 l 439 1293 l 667 1293 l 465 1063 l 304 1063 z "},"Ž":{"ha":769,"x_min":75,"x_max":714,"o":"m 75 0 l 75 144 l 500 875 l 519 803 l 75 803 l 75 979 l 700 979 l 700 838 l 272 104 l 253 176 l 714 176 l 714 0 l 75 0 m 299 1063 l 156 1283 l 308 1283 l 385 1163 l 461 1283 l 614 1283 l 471 1063 l 299 1063 z "},"Ż":{"ha":769,"x_min":75,"x_max":714,"o":"m 75 0 l 75 144 l 500 875 l 519 803 l 75 803 l 75 979 l 700 979 l 700 838 l 272 104 l 253 176 l 714 176 l 714 0 l 75 0 m 288 1089 l 288 1275 l 481 1275 l 481 1089 l 288 1089 z "},"Ẓ":{"ha":769,"x_min":75,"x_max":714,"o":"m 75 0 l 75 144 l 500 875 l 519 803 l 75 803 l 75 979 l 700 979 l 700 838 l 272 104 l 253 176 l 714 176 l 714 0 l 75 0 m 296 -297 l 296 -114 l 485 -114 l 485 -297 l 296 -297 z "},"a":{"ha":771,"x_min":72,"x_max":683,"o":"m 294 -15 q 186 15 238 -15 q 103 97 135 46 q 72 213 72 149 q 113 328 72 281 q 228 401 153 376 q 414 426 304 426 l 506 426 l 506 310 l 450 310 q 372 305 404 310 q 317 290 339 300 q 285 262 296 281 q 274 215 274 243 q 301 155 274 176 q 367 133 328 133 q 422 152 394 133 q 465 203 449 171 q 482 278 482 235 l 482 461 q 448 538 482 517 q 351 560 414 560 q 256 547 307 560 q 149 501 206 535 l 96 639 q 195 682 147 667 q 294 706 243 697 q 404 714 346 714 q 551 684 488 714 q 649 592 614 654 q 683 433 683 531 l 683 0 l 517 0 l 517 139 l 506 139 q 454 58 482 93 q 389 3 426 22 q 294 -15 351 -15 z "},"á":{"ha":771,"x_min":72,"x_max":683,"o":"m 294 -15 q 186 15 238 -15 q 103 97 135 46 q 72 213 72 149 q 113 328 72 281 q 228 401 153 376 q 414 426 304 426 l 506 426 l 506 310 l 450 310 q 372 305 404 310 q 317 290 339 300 q 285 262 296 281 q 274 215 274 243 q 301 155 274 176 q 367 133 328 133 q 422 152 394 133 q 465 203 449 171 q 482 278 482 235 l 482 461 q 448 538 482 517 q 351 560 414 560 q 256 547 307 560 q 149 501 206 535 l 96 639 q 195 682 147 667 q 294 706 243 697 q 404 714 346 714 q 551 684 488 714 q 649 592 614 654 q 683 433 683 531 l 683 0 l 517 0 l 517 139 l 506 139 q 454 58 482 93 q 389 3 426 22 q 294 -15 351 -15 m 303 779 l 417 1049 l 631 1049 l 456 779 l 303 779 z "},"ă":{"ha":771,"x_min":72,"x_max":683,"o":"m 294 -15 q 186 15 238 -15 q 103 97 135 46 q 72 213 72 149 q 113 328 72 281 q 228 401 153 376 q 414 426 304 426 l 506 426 l 506 310 l 450 310 q 372 305 404 310 q 317 290 339 300 q 285 262 296 281 q 274 215 274 243 q 301 155 274 176 q 367 133 328 133 q 422 152 394 133 q 465 203 449 171 q 482 278 482 235 l 482 461 q 448 538 482 517 q 351 560 414 560 q 256 547 307 560 q 149 501 206 535 l 96 639 q 195 682 147 667 q 294 706 243 697 q 404 714 346 714 q 551 684 488 714 q 649 592 614 654 q 683 433 683 531 l 683 0 l 517 0 l 517 139 l 506 139 q 454 58 482 93 q 389 3 426 22 q 294 -15 351 -15 m 389 778 q 263 810 310 778 q 196 903 217 842 q 172 1049 175 964 l 297 1058 q 319 949 301 986 q 389 911 336 911 q 458 949 440 911 q 481 1058 476 986 l 606 1049 q 583 903 604 964 q 515 810 561 842 q 389 778 468 778 z "},"ắ":{"ha":771,"x_min":72,"x_max":683,"o":"m 294 -15 q 186 15 238 -15 q 103 97 135 46 q 72 213 72 149 q 113 328 72 281 q 228 401 153 376 q 414 426 304 426 l 506 426 l 506 310 l 450 310 q 372 305 404 310 q 317 290 339 300 q 285 262 296 281 q 274 215 274 243 q 301 155 274 176 q 367 133 328 133 q 422 152 394 133 q 465 203 449 171 q 482 278 482 235 l 482 461 q 448 538 482 517 q 351 560 414 560 q 256 547 307 560 q 149 501 206 535 l 96 639 q 195 682 147 667 q 294 706 243 697 q 404 714 346 714 q 551 684 488 714 q 649 592 614 654 q 683 433 683 531 l 683 0 l 517 0 l 517 139 l 506 139 q 454 58 482 93 q 389 3 426 22 q 294 -15 351 -15 m 389 778 q 219 833 276 778 q 165 982 163 888 l 276 990 q 307 919 275 942 q 389 896 339 896 q 471 919 440 896 q 501 990 501 942 l 614 982 q 559 833 615 888 q 389 778 503 778 m 322 985 l 400 1185 l 589 1185 l 446 985 l 322 985 z "},"ặ":{"ha":771,"x_min":72,"x_max":683,"o":"m 294 -15 q 186 15 238 -15 q 103 97 135 46 q 72 213 72 149 q 113 328 72 281 q 228 401 153 376 q 414 426 304 426 l 506 426 l 506 310 l 450 310 q 372 305 404 310 q 317 290 339 300 q 285 262 296 281 q 274 215 274 243 q 301 155 274 176 q 367 133 328 133 q 422 152 394 133 q 465 203 449 171 q 482 278 482 235 l 482 461 q 448 538 482 517 q 351 560 414 560 q 256 547 307 560 q 149 501 206 535 l 96 639 q 195 682 147 667 q 294 706 243 697 q 404 714 346 714 q 551 684 488 714 q 649 592 614 654 q 683 433 683 531 l 683 0 l 517 0 l 517 139 l 506 139 q 454 58 482 93 q 389 3 426 22 q 294 -15 351 -15 m 258 -297 l 258 -114 l 447 -114 l 447 -297 l 258 -297 m 389 778 q 263 810 310 778 q 196 903 217 842 q 172 1049 175 964 l 297 1058 q 319 949 301 986 q 389 911 336 911 q 458 949 440 911 q 481 1058 476 986 l 606 1049 q 583 903 604 964 q 515 810 561 842 q 389 778 468 778 z "},"ằ":{"ha":771,"x_min":72,"x_max":683,"o":"m 294 -15 q 186 15 238 -15 q 103 97 135 46 q 72 213 72 149 q 113 328 72 281 q 228 401 153 376 q 414 426 304 426 l 506 426 l 506 310 l 450 310 q 372 305 404 310 q 317 290 339 300 q 285 262 296 281 q 274 215 274 243 q 301 155 274 176 q 367 133 328 133 q 422 152 394 133 q 465 203 449 171 q 482 278 482 235 l 482 461 q 448 538 482 517 q 351 560 414 560 q 256 547 307 560 q 149 501 206 535 l 96 639 q 195 682 147 667 q 294 706 243 697 q 404 714 346 714 q 551 684 488 714 q 649 592 614 654 q 683 433 683 531 l 683 0 l 517 0 l 517 139 l 506 139 q 454 58 482 93 q 389 3 426 22 q 294 -15 351 -15 m 389 778 q 219 833 276 778 q 165 982 163 888 l 276 990 q 307 919 275 942 q 389 896 339 896 q 471 919 440 896 q 501 990 501 942 l 614 982 q 559 833 615 888 q 389 778 503 778 m 336 985 l 194 1185 l 385 1185 l 461 985 l 336 985 z "},"ẳ":{"ha":771,"x_min":72,"x_max":683,"o":"m 294 -15 q 186 15 238 -15 q 103 97 135 46 q 72 213 72 149 q 113 328 72 281 q 228 401 153 376 q 414 426 304 426 l 506 426 l 506 310 l 450 310 q 372 305 404 310 q 317 290 339 300 q 285 262 296 281 q 274 215 274 243 q 301 155 274 176 q 367 133 328 133 q 422 152 394 133 q 465 203 449 171 q 482 278 482 235 l 482 461 q 448 538 482 517 q 351 560 414 560 q 256 547 307 560 q 149 501 206 535 l 96 639 q 195 682 147 667 q 294 706 243 697 q 404 714 346 714 q 551 684 488 714 q 649 592 614 654 q 683 433 683 531 l 683 0 l 517 0 l 517 139 l 506 139 q 454 58 482 93 q 389 3 426 22 q 294 -15 351 -15 m 389 778 q 219 833 276 778 q 165 982 163 888 l 276 990 q 307 919 275 942 q 389 896 339 896 q 471 919 440 896 q 501 990 501 942 l 614 982 q 559 832 615 886 q 389 778 503 778 m 325 986 q 331 1024 325 1007 q 348 1055 338 1040 q 365 1082 358 1069 q 371 1108 371 1094 q 361 1129 371 1122 q 331 1136 351 1136 q 301 1131 317 1136 q 271 1117 285 1126 l 244 1200 q 310 1225 272 1217 q 392 1233 347 1233 q 490 1211 456 1233 q 525 1149 525 1189 q 513 1103 525 1124 q 486 1066 501 1083 q 459 1029 471 1049 q 446 986 447 1010 l 325 986 z "},"ẵ":{"ha":771,"x_min":72,"x_max":683,"o":"m 294 -15 q 186 15 238 -15 q 103 97 135 46 q 72 213 72 149 q 113 328 72 281 q 228 401 153 376 q 414 426 304 426 l 506 426 l 506 310 l 450 310 q 372 305 404 310 q 317 290 339 300 q 285 262 296 281 q 274 215 274 243 q 301 155 274 176 q 367 133 328 133 q 422 152 394 133 q 465 203 449 171 q 482 278 482 235 l 482 461 q 448 538 482 517 q 351 560 414 560 q 256 547 307 560 q 149 501 206 535 l 96 639 q 195 682 147 667 q 294 706 243 697 q 404 714 346 714 q 551 684 488 714 q 649 592 614 654 q 683 433 683 531 l 683 0 l 517 0 l 517 139 l 506 139 q 454 58 482 93 q 389 3 426 22 q 294 -15 351 -15 m 389 778 q 222 833 279 778 q 165 986 165 888 l 274 990 q 313 920 281 943 q 389 897 344 897 q 466 920 435 897 q 504 990 497 943 l 614 986 q 556 833 614 888 q 389 778 499 778 m 260 1049 l 160 1056 q 176 1141 164 1104 q 217 1199 189 1178 q 297 1221 246 1221 q 364 1207 336 1221 q 410 1181 392 1193 q 436 1166 418 1176 q 475 1156 454 1156 q 506 1174 494 1156 q 519 1224 517 1193 l 618 1217 q 582 1095 614 1142 q 475 1049 550 1049 q 411 1062 436 1049 q 369 1085 386 1075 q 336 1106 351 1097 q 304 1114 321 1114 q 273 1096 283 1114 q 260 1049 263 1078 z "},"ǎ":{"ha":771,"x_min":72,"x_max":683,"o":"m 294 -15 q 186 15 238 -15 q 103 97 135 46 q 72 213 72 149 q 113 328 72 281 q 228 401 153 376 q 414 426 304 426 l 506 426 l 506 310 l 450 310 q 372 305 404 310 q 317 290 339 300 q 285 262 296 281 q 274 215 274 243 q 301 155 274 176 q 367 133 328 133 q 422 152 394 133 q 465 203 449 171 q 482 278 482 235 l 482 461 q 448 538 482 517 q 351 560 414 560 q 256 547 307 560 q 149 501 206 535 l 96 639 q 195 682 147 667 q 294 706 243 697 q 404 714 346 714 q 551 684 488 714 q 649 592 614 654 q 683 433 683 531 l 683 0 l 517 0 l 517 139 l 506 139 q 454 58 482 93 q 389 3 426 22 q 294 -15 351 -15 m 299 779 l 165 1049 l 315 1049 l 389 890 l 464 1049 l 613 1049 l 479 779 l 299 779 z "},"â":{"ha":771,"x_min":72,"x_max":683,"o":"m 294 -15 q 186 15 238 -15 q 103 97 135 46 q 72 213 72 149 q 113 328 72 281 q 228 401 153 376 q 414 426 304 426 l 506 426 l 506 310 l 450 310 q 372 305 404 310 q 317 290 339 300 q 285 262 296 281 q 274 215 274 243 q 301 155 274 176 q 367 133 328 133 q 422 152 394 133 q 465 203 449 171 q 482 278 482 235 l 482 461 q 448 538 482 517 q 351 560 414 560 q 256 547 307 560 q 149 501 206 535 l 96 639 q 195 682 147 667 q 294 706 243 697 q 404 714 346 714 q 551 684 488 714 q 649 592 614 654 q 683 433 683 531 l 683 0 l 517 0 l 517 139 l 506 139 q 454 58 482 93 q 389 3 426 22 q 294 -15 351 -15 m 165 783 l 299 1049 l 479 1049 l 613 783 l 464 783 l 389 938 l 315 783 l 165 783 z "},"ấ":{"ha":771,"x_min":72,"x_max":760,"o":"m 294 -15 q 186 15 238 -15 q 103 97 135 46 q 72 213 72 149 q 113 328 72 281 q 228 401 153 376 q 414 426 304 426 l 506 426 l 506 310 l 450 310 q 372 305 404 310 q 317 290 339 300 q 285 262 296 281 q 274 215 274 243 q 301 155 274 176 q 367 133 328 133 q 422 152 394 133 q 465 203 449 171 q 482 278 482 235 l 482 461 q 448 538 482 517 q 351 560 414 560 q 256 547 307 560 q 149 501 206 535 l 96 639 q 195 682 147 667 q 294 706 243 697 q 404 714 346 714 q 551 684 488 714 q 649 592 614 654 q 683 433 683 531 l 683 0 l 517 0 l 517 139 l 506 139 q 454 58 482 93 q 389 3 426 22 q 294 -15 351 -15 m 172 792 l 306 1031 l 479 1031 l 613 792 l 468 792 l 393 929 l 317 792 l 172 792 m 540 978 l 610 1190 l 760 1190 l 654 978 l 540 978 z "},"ậ":{"ha":771,"x_min":72,"x_max":683,"o":"m 294 -15 q 186 15 238 -15 q 103 97 135 46 q 72 213 72 149 q 113 328 72 281 q 228 401 153 376 q 414 426 304 426 l 506 426 l 506 310 l 450 310 q 372 305 404 310 q 317 290 339 300 q 285 262 296 281 q 274 215 274 243 q 301 155 274 176 q 367 133 328 133 q 422 152 394 133 q 465 203 449 171 q 482 278 482 235 l 482 461 q 448 538 482 517 q 351 560 414 560 q 256 547 307 560 q 149 501 206 535 l 96 639 q 195 682 147 667 q 294 706 243 697 q 404 714 346 714 q 551 684 488 714 q 649 592 614 654 q 683 433 683 531 l 683 0 l 517 0 l 517 139 l 506 139 q 454 58 482 93 q 389 3 426 22 q 294 -15 351 -15 m 258 -297 l 258 -114 l 447 -114 l 447 -297 l 258 -297 m 165 783 l 299 1049 l 479 1049 l 613 783 l 464 783 l 389 938 l 315 783 l 165 783 z "},"ầ":{"ha":771,"x_min":72,"x_max":690,"o":"m 294 -15 q 186 15 238 -15 q 103 97 135 46 q 72 213 72 149 q 113 328 72 281 q 228 401 153 376 q 414 426 304 426 l 506 426 l 506 310 l 450 310 q 372 305 404 310 q 317 290 339 300 q 285 262 296 281 q 274 215 274 243 q 301 155 274 176 q 367 133 328 133 q 422 152 394 133 q 465 203 449 171 q 482 278 482 235 l 482 461 q 448 538 482 517 q 351 560 414 560 q 256 547 307 560 q 149 501 206 535 l 96 639 q 195 682 147 667 q 294 706 243 697 q 404 714 346 714 q 551 684 488 714 q 649 592 614 654 q 683 433 683 531 l 683 0 l 517 0 l 517 139 l 506 139 q 454 58 482 93 q 389 3 426 22 q 294 -15 351 -15 m 172 792 l 306 1031 l 479 1031 l 613 792 l 468 792 l 393 929 l 317 792 l 172 792 m 576 978 l 472 1190 l 622 1190 l 690 978 l 576 978 z "},"ẩ":{"ha":771,"x_min":72,"x_max":724,"o":"m 294 -15 q 186 15 238 -15 q 103 97 135 46 q 72 213 72 149 q 113 328 72 281 q 228 401 153 376 q 414 426 304 426 l 506 426 l 506 310 l 450 310 q 372 305 404 310 q 317 290 339 300 q 285 262 296 281 q 274 215 274 243 q 301 155 274 176 q 367 133 328 133 q 422 152 394 133 q 465 203 449 171 q 482 278 482 235 l 482 461 q 448 538 482 517 q 351 560 414 560 q 256 547 307 560 q 149 501 206 535 l 96 639 q 195 682 147 667 q 294 706 243 697 q 404 714 346 714 q 551 684 488 714 q 649 592 614 654 q 683 433 683 531 l 683 0 l 517 0 l 517 139 l 506 139 q 454 58 482 93 q 389 3 426 22 q 294 -15 351 -15 m 172 800 l 306 1039 l 479 1039 l 613 800 l 468 800 l 393 938 l 317 800 l 172 800 m 538 988 q 544 1022 538 1007 q 560 1050 551 1038 q 576 1074 569 1063 q 582 1097 582 1086 q 572 1117 582 1111 q 543 1124 563 1124 q 516 1119 531 1124 q 489 1104 501 1114 l 464 1183 q 524 1207 490 1199 q 600 1215 558 1215 q 692 1194 660 1215 q 725 1135 725 1172 q 714 1092 725 1110 q 688 1058 703 1074 q 662 1026 674 1043 q 649 988 650 1010 l 538 988 z "},"ẫ":{"ha":771,"x_min":72,"x_max":683,"o":"m 294 -15 q 186 15 238 -15 q 103 97 135 46 q 72 213 72 149 q 113 328 72 281 q 228 401 153 376 q 414 426 304 426 l 506 426 l 506 310 l 450 310 q 372 305 404 310 q 317 290 339 300 q 285 262 296 281 q 274 215 274 243 q 301 155 274 176 q 367 133 328 133 q 422 152 394 133 q 465 203 449 171 q 482 278 482 235 l 482 461 q 448 538 482 517 q 351 560 414 560 q 256 547 307 560 q 149 501 206 535 l 96 639 q 195 682 147 667 q 294 706 243 697 q 404 714 346 714 q 551 684 488 714 q 649 592 614 654 q 683 433 683 531 l 683 0 l 517 0 l 517 139 l 506 139 q 454 58 482 93 q 389 3 426 22 q 294 -15 351 -15 m 169 792 l 303 1008 l 476 1008 l 610 792 l 463 792 l 390 914 l 317 792 l 169 792 m 260 1051 l 160 1057 q 176 1144 164 1107 q 217 1203 188 1181 q 297 1225 246 1225 q 364 1210 336 1225 q 410 1185 392 1196 q 436 1169 418 1179 q 475 1158 454 1158 q 506 1177 494 1158 q 519 1226 517 1196 l 618 1219 q 583 1099 614 1146 q 475 1053 551 1053 q 411 1066 436 1053 q 369 1088 386 1079 q 336 1108 351 1100 q 304 1117 321 1117 q 274 1099 285 1117 q 260 1051 263 1082 z "},"ȁ":{"ha":771,"x_min":72,"x_max":683,"o":"m 294 -15 q 186 15 238 -15 q 103 97 135 46 q 72 213 72 149 q 113 328 72 281 q 228 401 153 376 q 414 426 304 426 l 506 426 l 506 310 l 450 310 q 372 305 404 310 q 317 290 339 300 q 285 262 296 281 q 274 215 274 243 q 301 155 274 176 q 367 133 328 133 q 422 152 394 133 q 465 203 449 171 q 482 278 482 235 l 482 461 q 448 538 482 517 q 351 560 414 560 q 256 547 307 560 q 149 501 206 535 l 96 639 q 195 682 147 667 q 294 706 243 697 q 404 714 346 714 q 551 684 488 714 q 649 592 614 654 q 683 433 683 531 l 683 0 l 517 0 l 517 139 l 506 139 q 454 58 482 93 q 389 3 426 22 q 294 -15 351 -15 m 440 779 l 332 1049 l 508 1049 l 556 779 l 440 779 m 232 779 l 124 1049 l 299 1049 l 346 779 l 232 779 z "},"ä":{"ha":771,"x_min":72,"x_max":683,"o":"m 294 -15 q 186 15 238 -15 q 103 97 135 46 q 72 213 72 149 q 113 328 72 281 q 228 401 153 376 q 414 426 304 426 l 506 426 l 506 310 l 450 310 q 372 305 404 310 q 317 290 339 300 q 285 262 296 281 q 274 215 274 243 q 301 155 274 176 q 367 133 328 133 q 422 152 394 133 q 465 203 449 171 q 482 278 482 235 l 482 461 q 448 538 482 517 q 351 560 414 560 q 256 547 307 560 q 149 501 206 535 l 96 639 q 195 682 147 667 q 294 706 243 697 q 404 714 346 714 q 551 684 488 714 q 649 592 614 654 q 683 433 683 531 l 683 0 l 517 0 l 517 139 l 506 139 q 454 58 482 93 q 389 3 426 22 q 294 -15 351 -15 m 433 828 l 433 1017 l 621 1017 l 621 828 l 433 828 m 157 828 l 157 1017 l 344 1017 l 344 828 l 157 828 z "},"ȧ":{"ha":771,"x_min":72,"x_max":683,"o":"m 294 -15 q 186 15 238 -15 q 103 97 135 46 q 72 213 72 149 q 113 328 72 281 q 228 401 153 376 q 414 426 304 426 l 506 426 l 506 310 l 450 310 q 372 305 404 310 q 317 290 339 300 q 285 262 296 281 q 274 215 274 243 q 301 155 274 176 q 367 133 328 133 q 422 152 394 133 q 465 203 449 171 q 482 278 482 235 l 482 461 q 448 538 482 517 q 351 560 414 560 q 256 547 307 560 q 149 501 206 535 l 96 639 q 195 682 147 667 q 294 706 243 697 q 404 714 346 714 q 551 684 488 714 q 649 592 614 654 q 683 433 683 531 l 683 0 l 517 0 l 517 139 l 506 139 q 454 58 482 93 q 389 3 426 22 q 294 -15 351 -15 m 294 838 l 294 1022 l 483 1022 l 483 838 l 294 838 z "},"ạ":{"ha":771,"x_min":72,"x_max":683,"o":"m 294 -15 q 186 15 238 -15 q 103 97 135 46 q 72 213 72 149 q 113 328 72 281 q 228 401 153 376 q 414 426 304 426 l 506 426 l 506 310 l 450 310 q 372 305 404 310 q 317 290 339 300 q 285 262 296 281 q 274 215 274 243 q 301 155 274 176 q 367 133 328 133 q 422 152 394 133 q 465 203 449 171 q 482 278 482 235 l 482 461 q 448 538 482 517 q 351 560 414 560 q 256 547 307 560 q 149 501 206 535 l 96 639 q 195 682 147 667 q 294 706 243 697 q 404 714 346 714 q 551 684 488 714 q 649 592 614 654 q 683 433 683 531 l 683 0 l 517 0 l 517 139 l 506 139 q 454 58 482 93 q 389 3 426 22 q 294 -15 351 -15 m 258 -297 l 258 -114 l 447 -114 l 447 -297 l 258 -297 z "},"à":{"ha":771,"x_min":72,"x_max":683,"o":"m 294 -15 q 186 15 238 -15 q 103 97 135 46 q 72 213 72 149 q 113 328 72 281 q 228 401 153 376 q 414 426 304 426 l 506 426 l 506 310 l 450 310 q 372 305 404 310 q 317 290 339 300 q 285 262 296 281 q 274 215 274 243 q 301 155 274 176 q 367 133 328 133 q 422 152 394 133 q 465 203 449 171 q 482 278 482 235 l 482 461 q 448 538 482 517 q 351 560 414 560 q 256 547 307 560 q 149 501 206 535 l 96 639 q 195 682 147 667 q 294 706 243 697 q 404 714 346 714 q 551 684 488 714 q 649 592 614 654 q 683 433 683 531 l 683 0 l 517 0 l 517 139 l 506 139 q 454 58 482 93 q 389 3 426 22 q 294 -15 351 -15 m 322 789 l 147 1049 l 361 1049 l 475 789 l 322 789 z "},"ả":{"ha":771,"x_min":72,"x_max":683,"o":"m 294 -15 q 186 15 238 -15 q 103 97 135 46 q 72 213 72 149 q 113 328 72 281 q 228 401 153 376 q 414 426 304 426 l 506 426 l 506 310 l 450 310 q 372 305 404 310 q 317 290 339 300 q 285 262 296 281 q 274 215 274 243 q 301 155 274 176 q 367 133 328 133 q 422 152 394 133 q 465 203 449 171 q 482 278 482 235 l 482 461 q 448 538 482 517 q 351 560 414 560 q 256 547 307 560 q 149 501 206 535 l 96 639 q 195 682 147 667 q 294 706 243 697 q 404 714 346 714 q 551 684 488 714 q 649 592 614 654 q 683 433 683 531 l 683 0 l 517 0 l 517 139 l 506 139 q 454 58 482 93 q 389 3 426 22 q 294 -15 351 -15 m 318 789 l 318 821 q 328 865 318 847 q 349 898 338 883 q 369 928 360 913 q 379 961 379 943 q 369 988 379 979 q 335 997 358 997 q 301 993 321 997 q 264 979 282 989 l 231 1069 q 304 1095 263 1086 q 392 1104 346 1104 q 515 1076 474 1104 q 557 993 557 1047 q 542 933 557 957 q 508 893 526 910 q 474 858 489 876 q 458 813 458 839 l 458 789 l 318 789 z "},"ȃ":{"ha":771,"x_min":72,"x_max":683,"o":"m 294 -15 q 186 15 238 -15 q 103 97 135 46 q 72 213 72 149 q 113 328 72 281 q 228 401 153 376 q 414 426 304 426 l 506 426 l 506 310 l 450 310 q 372 305 404 310 q 317 290 339 300 q 285 262 296 281 q 274 215 274 243 q 301 155 274 176 q 367 133 328 133 q 422 152 394 133 q 465 203 449 171 q 482 278 482 235 l 482 461 q 448 538 482 517 q 351 560 414 560 q 256 547 307 560 q 149 501 206 535 l 96 639 q 195 682 147 667 q 294 706 243 697 q 404 714 346 714 q 551 684 488 714 q 649 592 614 654 q 683 433 683 531 l 683 0 l 517 0 l 517 139 l 506 139 q 454 58 482 93 q 389 3 426 22 q 294 -15 351 -15 m 297 778 l 172 788 q 196 933 175 872 q 263 1026 217 993 q 389 1058 310 1058 q 515 1026 468 1058 q 583 933 561 993 q 606 788 604 872 l 481 778 q 458 887 476 850 q 389 924 440 924 q 319 887 336 924 q 297 778 301 850 z "},"ā":{"ha":771,"x_min":72,"x_max":683,"o":"m 294 -15 q 186 15 238 -15 q 103 97 135 46 q 72 213 72 149 q 113 328 72 281 q 228 401 153 376 q 414 426 304 426 l 506 426 l 506 310 l 450 310 q 372 305 404 310 q 317 290 339 300 q 285 262 296 281 q 274 215 274 243 q 301 155 274 176 q 367 133 328 133 q 422 152 394 133 q 465 203 449 171 q 482 278 482 235 l 482 461 q 448 538 482 517 q 351 560 414 560 q 256 547 307 560 q 149 501 206 535 l 96 639 q 195 682 147 667 q 294 706 243 697 q 404 714 346 714 q 551 684 488 714 q 649 592 614 654 q 683 433 683 531 l 683 0 l 517 0 l 517 139 l 506 139 q 454 58 482 93 q 389 3 426 22 q 294 -15 351 -15 m 178 851 l 178 997 l 601 997 l 601 851 l 178 851 z "},"ą":{"ha":771,"x_min":72,"x_max":722,"o":"m 294 -15 q 186 15 238 -15 q 103 97 135 46 q 72 213 72 149 q 113 328 72 281 q 228 401 153 376 q 414 426 304 426 l 506 426 l 506 310 l 450 310 q 372 305 404 310 q 317 290 339 300 q 285 262 296 281 q 274 215 274 243 q 301 155 274 176 q 367 133 328 133 q 422 152 394 133 q 465 203 449 171 q 482 278 482 235 l 482 461 q 448 538 482 517 q 351 560 414 560 q 256 547 307 560 q 149 501 206 535 l 96 639 q 195 682 147 667 q 294 706 243 697 q 404 714 346 714 q 551 684 488 714 q 649 592 614 654 q 683 433 683 531 l 683 0 l 517 0 l 517 139 l 506 139 q 454 58 482 93 q 389 3 426 22 q 294 -15 351 -15 m 613 -287 q 497 -253 539 -287 q 456 -156 456 -218 q 490 -40 456 -97 q 583 58 524 17 l 647 0 q 617 -32 631 -14 q 597 -70 604 -50 q 589 -111 589 -90 q 602 -155 589 -140 q 640 -169 615 -169 q 667 -166 653 -169 q 699 -157 682 -162 l 722 -264 q 667 -282 692 -276 q 613 -287 642 -287 z "},"å":{"ha":771,"x_min":72,"x_max":683,"o":"m 294 -15 q 186 15 238 -15 q 103 97 135 46 q 72 213 72 149 q 113 328 72 281 q 228 401 153 376 q 414 426 304 426 l 506 426 l 506 310 l 450 310 q 372 305 404 310 q 317 290 339 300 q 285 262 296 281 q 274 215 274 243 q 301 155 274 176 q 367 133 328 133 q 422 152 394 133 q 465 203 449 171 q 482 278 482 235 l 482 461 q 448 538 482 517 q 351 560 414 560 q 256 547 307 560 q 149 501 206 535 l 96 639 q 195 682 147 667 q 294 706 243 697 q 404 714 346 714 q 551 684 488 714 q 649 592 614 654 q 683 433 683 531 l 683 0 l 517 0 l 517 139 l 506 139 q 454 58 482 93 q 389 3 426 22 q 294 -15 351 -15 m 389 782 q 295 806 336 782 q 230 872 254 831 q 206 963 206 913 q 230 1056 206 1015 q 295 1119 254 1096 q 389 1143 336 1143 q 482 1119 440 1143 q 549 1055 524 1096 q 574 961 574 1014 q 549 871 574 911 q 482 806 524 831 q 389 782 440 782 m 389 865 q 453 893 428 865 q 479 963 479 921 q 453 1034 479 1007 q 389 1061 428 1061 q 325 1034 351 1061 q 299 964 299 1007 q 324 893 299 921 q 389 865 350 865 z "},"ǻ":{"ha":771,"x_min":72,"x_max":692,"o":"m 294 -15 q 186 15 238 -15 q 103 97 135 46 q 72 213 72 149 q 113 328 72 281 q 228 401 153 376 q 414 426 304 426 l 506 426 l 506 310 l 450 310 q 372 305 404 310 q 317 290 339 300 q 285 262 296 281 q 274 215 274 243 q 301 155 274 176 q 367 133 328 133 q 422 152 394 133 q 465 203 449 171 q 482 278 482 235 l 482 461 q 448 538 482 517 q 351 560 414 560 q 256 547 307 560 q 149 501 206 535 l 96 639 q 195 682 147 667 q 294 706 243 697 q 404 714 346 714 q 551 684 488 714 q 649 592 614 654 q 683 433 683 531 l 683 0 l 517 0 l 517 139 l 506 139 q 454 58 482 93 q 389 3 426 22 q 294 -15 351 -15 m 389 768 q 292 792 335 768 q 223 860 249 817 q 197 956 197 903 q 222 1053 197 1010 q 291 1120 247 1096 q 389 1144 335 1144 q 436 1139 414 1144 q 479 1125 458 1133 l 521 1199 l 693 1199 l 556 1053 q 574 1008 567 1032 q 582 956 582 983 q 556 860 582 903 q 488 792 531 817 q 389 768 444 768 m 389 858 q 453 886 428 858 q 479 956 479 914 q 453 1028 479 1001 q 389 1054 428 1054 q 325 1028 351 1054 q 299 956 299 1001 q 325 886 299 914 q 389 858 351 858 z "},"ã":{"ha":771,"x_min":72,"x_max":683,"o":"m 294 -15 q 186 15 238 -15 q 103 97 135 46 q 72 213 72 149 q 113 328 72 281 q 228 401 153 376 q 414 426 304 426 l 506 426 l 506 310 l 450 310 q 372 305 404 310 q 317 290 339 300 q 285 262 296 281 q 274 215 274 243 q 301 155 274 176 q 367 133 328 133 q 422 152 394 133 q 465 203 449 171 q 482 278 482 235 l 482 461 q 448 538 482 517 q 351 560 414 560 q 256 547 307 560 q 149 501 206 535 l 96 639 q 195 682 147 667 q 294 706 243 697 q 404 714 346 714 q 551 684 488 714 q 649 592 614 654 q 683 433 683 531 l 683 0 l 517 0 l 517 139 l 506 139 q 454 58 482 93 q 389 3 426 22 q 294 -15 351 -15 m 250 810 l 149 818 q 183 965 149 908 q 288 1022 218 1022 q 358 1005 328 1022 q 407 978 388 988 q 442 958 421 971 q 483 946 463 946 q 517 967 508 946 q 528 1025 526 989 l 629 1019 q 595 869 631 926 q 490 813 560 813 q 419 830 449 813 q 371 857 389 847 q 335 877 356 865 q 294 889 315 889 q 262 868 271 889 q 250 810 253 847 z "},"æ":{"ha":1156,"x_min":72,"x_max":1096,"o":"m 299 -15 q 186 15 238 -15 q 103 98 135 46 q 72 215 72 150 q 116 334 72 288 q 234 403 160 381 q 403 426 308 426 l 517 426 l 517 310 l 444 310 q 353 302 392 310 q 294 274 314 294 q 274 218 274 254 q 302 154 274 175 q 361 133 331 133 q 422 153 394 133 q 465 206 449 174 q 481 272 481 238 l 481 467 q 446 536 481 513 q 347 560 411 560 q 244 544 294 560 q 149 500 194 528 l 96 639 q 188 681 140 665 q 285 705 235 696 q 388 714 335 714 q 521 680 475 714 q 593 589 567 646 l 603 589 q 684 682 632 650 q 806 714 736 714 q 959 674 894 714 q 1060 556 1024 633 q 1096 364 1096 478 l 1096 289 l 635 289 l 635 413 l 942 413 l 921 389 q 907 492 921 451 q 869 551 893 532 q 806 571 844 571 q 708 523 742 571 q 675 378 675 475 l 675 307 q 716 183 675 224 q 849 142 757 142 q 942 153 899 142 q 1021 188 985 164 l 1076 51 q 957 0 1017 15 q 829 -15 897 -15 q 707 3 757 -15 q 622 57 657 21 q 560 144 586 93 l 549 144 q 494 62 531 99 q 409 5 458 25 q 299 -15 360 -15 z "},"ǽ":{"ha":1156,"x_min":72,"x_max":1096,"o":"m 299 -15 q 186 15 238 -15 q 103 98 135 46 q 72 215 72 150 q 116 334 72 288 q 234 403 160 381 q 403 426 308 426 l 517 426 l 517 310 l 444 310 q 353 302 392 310 q 294 274 314 294 q 274 218 274 254 q 302 154 274 175 q 361 133 331 133 q 422 153 394 133 q 465 206 449 174 q 481 272 481 238 l 481 467 q 446 536 481 513 q 347 560 411 560 q 244 544 294 560 q 149 500 194 528 l 96 639 q 188 681 140 665 q 285 705 235 696 q 388 714 335 714 q 521 680 475 714 q 593 589 567 646 l 603 589 q 684 682 632 650 q 806 714 736 714 q 959 674 894 714 q 1060 556 1024 633 q 1096 364 1096 478 l 1096 289 l 635 289 l 635 413 l 942 413 l 921 389 q 907 492 921 451 q 869 551 893 532 q 806 571 844 571 q 708 523 742 571 q 675 378 675 475 l 675 307 q 716 183 675 224 q 849 142 757 142 q 942 153 899 142 q 1021 188 985 164 l 1076 51 q 957 0 1017 15 q 829 -15 897 -15 q 707 3 757 -15 q 622 57 657 21 q 560 144 586 93 l 549 144 q 494 62 531 99 q 409 5 458 25 q 299 -15 360 -15 m 513 779 l 626 1049 l 840 1049 l 665 779 l 513 779 z "},"b":{"ha":801,"x_min":89,"x_max":739,"o":"m 478 -15 q 360 21 410 -15 q 276 133 310 57 l 272 133 l 272 0 l 89 0 l 89 979 l 297 979 l 297 579 l 300 579 q 372 679 328 644 q 483 714 415 714 q 625 667 568 714 q 710 538 682 619 q 739 350 739 457 q 710 160 739 242 q 624 31 682 78 q 478 -15 567 -15 m 415 144 q 507 197 479 144 q 535 350 535 249 q 506 503 535 453 q 414 554 478 554 q 323 503 351 554 q 294 350 294 453 q 323 197 294 249 q 415 144 351 144 z "},"ɓ":{"ha":801,"x_min":89,"x_max":739,"o":"m 478 -15 q 360 21 410 -15 q 276 133 310 57 l 272 133 l 272 0 l 89 0 l 89 742 q 116 879 89 824 q 200 965 143 935 q 344 994 257 994 q 406 990 376 994 q 447 979 435 986 l 432 831 q 407 836 424 835 q 378 838 390 838 q 313 813 335 838 q 290 733 290 788 l 289 579 l 293 579 q 369 679 324 644 q 482 714 415 714 q 624 667 568 714 q 710 538 681 619 q 739 350 739 457 q 710 160 739 242 q 624 31 682 78 q 478 -15 567 -15 m 415 144 q 506 197 478 144 q 535 350 535 249 q 506 503 535 453 q 414 554 478 554 q 323 503 351 554 q 294 350 294 453 q 323 197 294 249 q 415 144 351 144 z "},"c":{"ha":632,"x_min":63,"x_max":606,"o":"m 382 -15 q 211 28 282 -15 q 101 153 140 72 q 63 349 63 235 q 101 543 63 461 q 212 669 140 625 q 382 714 283 714 q 510 694 451 714 q 606 643 569 675 l 549 492 q 481 529 517 515 q 407 543 446 543 q 304 497 342 543 q 267 347 267 451 q 305 201 267 244 q 408 157 343 157 q 481 171 446 157 q 546 206 517 185 l 604 54 q 510 3 568 22 q 382 -15 453 -15 z "},"ć":{"ha":632,"x_min":63,"x_max":606,"o":"m 382 -15 q 211 28 282 -15 q 101 153 140 72 q 63 349 63 235 q 101 543 63 461 q 212 669 140 625 q 382 714 283 714 q 510 694 451 714 q 606 643 569 675 l 549 492 q 481 529 517 515 q 407 543 446 543 q 304 497 342 543 q 267 347 267 451 q 305 201 267 244 q 408 157 343 157 q 481 171 446 157 q 546 206 517 185 l 604 54 q 510 3 568 22 q 382 -15 453 -15 m 278 779 l 392 1049 l 606 1049 l 431 779 l 278 779 z "},"č":{"ha":632,"x_min":63,"x_max":606,"o":"m 382 -15 q 211 28 282 -15 q 101 153 140 72 q 63 349 63 235 q 101 543 63 461 q 212 669 140 625 q 382 714 283 714 q 510 694 451 714 q 606 643 569 675 l 549 492 q 481 529 517 515 q 407 543 446 543 q 304 497 342 543 q 267 347 267 451 q 305 201 267 244 q 408 157 343 157 q 481 171 446 157 q 546 206 517 185 l 604 54 q 510 3 568 22 q 382 -15 453 -15 m 274 779 l 140 1049 l 290 1049 l 364 890 l 439 1049 l 588 1049 l 454 779 l 274 779 z "},"ç":{"ha":632,"x_min":63,"x_max":606,"o":"m 382 -15 q 211 28 282 -15 q 101 153 140 72 q 63 349 63 235 q 101 543 63 461 q 212 669 140 625 q 382 714 283 714 q 510 694 451 714 q 606 643 569 675 l 549 492 q 481 529 517 515 q 407 543 446 543 q 304 497 342 543 q 267 347 267 451 q 305 201 267 244 q 408 157 343 157 q 481 171 446 157 q 546 206 517 185 l 604 54 q 510 3 568 22 q 382 -15 453 -15 m 375 -287 q 300 -280 343 -287 q 231 -258 257 -272 l 260 -171 q 311 -190 282 -182 q 376 -199 340 -199 q 417 -190 403 -199 q 431 -160 431 -181 q 415 -130 431 -139 q 381 -121 400 -121 q 352 -124 371 -121 q 324 -129 333 -126 l 296 -103 l 317 28 l 407 28 l 390 -89 l 350 -62 q 385 -53 361 -56 q 436 -50 408 -50 q 490 -60 464 -50 q 534 -95 517 -71 q 551 -160 551 -119 q 530 -233 551 -204 q 469 -274 508 -261 q 375 -287 429 -287 z "},"ḉ":{"ha":632,"x_min":63,"x_max":606,"o":"m 382 -15 q 211 28 282 -15 q 101 153 140 72 q 63 349 63 235 q 101 543 63 461 q 212 669 140 625 q 382 714 283 714 q 510 694 451 714 q 606 643 569 675 l 549 492 q 481 529 517 515 q 407 543 446 543 q 304 497 342 543 q 267 347 267 451 q 305 201 267 244 q 408 157 343 157 q 481 171 446 157 q 546 206 517 185 l 604 54 q 510 3 568 22 q 382 -15 453 -15 m 375 -287 q 300 -280 343 -287 q 231 -258 257 -272 l 260 -171 q 311 -190 282 -182 q 376 -199 340 -199 q 417 -190 403 -199 q 431 -160 431 -181 q 415 -130 431 -139 q 381 -121 400 -121 q 352 -124 371 -121 q 324 -129 333 -126 l 296 -103 l 317 28 l 407 28 l 390 -89 l 350 -62 q 385 -53 361 -56 q 436 -50 408 -50 q 490 -60 464 -50 q 534 -95 517 -71 q 551 -160 551 -119 q 530 -233 551 -204 q 469 -274 508 -261 q 375 -287 429 -287 m 278 779 l 392 1049 l 606 1049 l 431 779 l 278 779 z "},"ĉ":{"ha":632,"x_min":63,"x_max":606,"o":"m 382 -15 q 211 28 282 -15 q 101 153 140 72 q 63 349 63 235 q 101 543 63 461 q 212 669 140 625 q 382 714 283 714 q 510 694 451 714 q 606 643 569 675 l 549 492 q 481 529 517 515 q 407 543 446 543 q 304 497 342 543 q 267 347 267 451 q 305 201 267 244 q 408 157 343 157 q 481 171 446 157 q 546 206 517 185 l 604 54 q 510 3 568 22 q 382 -15 453 -15 m 140 783 l 274 1049 l 454 1049 l 588 783 l 439 783 l 364 938 l 290 783 l 140 783 z "},"ċ":{"ha":632,"x_min":63,"x_max":606,"o":"m 382 -15 q 211 28 282 -15 q 101 153 140 72 q 63 349 63 235 q 101 543 63 461 q 212 669 140 625 q 382 714 283 714 q 510 694 451 714 q 606 643 569 675 l 549 492 q 481 529 517 515 q 407 543 446 543 q 304 497 342 543 q 267 347 267 451 q 305 201 267 244 q 408 157 343 157 q 481 171 446 157 q 546 206 517 185 l 604 54 q 510 3 568 22 q 382 -15 453 -15 m 269 838 l 269 1022 l 458 1022 l 458 838 l 269 838 z "},"d":{"ha":801,"x_min":63,"x_max":713,"o":"m 324 -15 q 178 31 236 -15 q 92 160 121 78 q 63 350 63 242 q 91 538 63 457 q 177 667 119 619 q 318 714 235 714 q 433 679 392 714 q 499 579 475 644 l 504 579 l 504 979 l 713 979 l 713 0 l 529 0 l 529 133 l 522 133 q 445 21 492 57 q 324 -15 399 -15 m 388 144 q 480 199 453 144 q 507 350 507 254 q 480 501 507 447 q 388 554 453 554 q 294 501 322 554 q 267 350 267 447 q 295 199 267 254 q 388 144 324 144 z "},"ð":{"ha":763,"x_min":63,"x_max":714,"o":"m 388 -15 q 211 22 283 -15 q 101 132 139 58 q 63 314 63 206 q 94 493 63 418 q 184 608 125 568 q 325 649 243 649 q 453 608 404 649 q 532 499 503 567 l 533 499 q 497 669 529 593 q 406 796 464 744 l 443 793 l 226 693 l 183 786 l 350 865 l 344 840 q 274 872 318 857 q 179 893 231 888 l 207 994 q 365 963 293 988 q 496 899 436 939 l 450 910 l 629 994 l 674 900 l 547 840 l 539 864 q 634 743 594 813 q 694 584 674 674 q 714 388 714 494 q 676 166 714 256 q 564 31 638 76 q 388 -15 490 -15 m 386 140 q 476 181 446 140 q 507 315 507 222 q 476 451 507 408 q 388 493 444 493 q 298 450 329 493 q 267 315 267 407 q 298 183 267 225 q 386 140 329 140 z "},"ď":{"ha":801,"x_min":63,"x_max":917,"o":"m 324 -15 q 178 31 236 -15 q 92 160 121 78 q 63 350 63 242 q 91 538 63 457 q 177 667 119 619 q 318 714 235 714 q 433 679 392 714 q 499 579 475 644 l 504 579 l 504 979 l 713 979 l 713 0 l 529 0 l 529 133 l 522 133 q 445 21 492 57 q 324 -15 399 -15 m 388 144 q 480 199 453 144 q 507 350 507 254 q 480 501 507 447 q 388 554 453 554 q 294 501 322 554 q 267 350 267 447 q 295 199 267 254 q 388 144 324 144 m 767 701 l 767 979 l 917 979 l 885 701 l 767 701 z "},"đ":{"ha":817,"x_min":63,"x_max":793,"o":"m 324 -15 q 178 29 236 -15 q 92 153 121 74 q 63 333 63 232 q 91 513 63 433 q 177 637 119 592 q 319 682 235 682 q 434 649 392 682 q 500 550 476 617 l 504 550 l 504 754 l 313 754 l 313 879 l 504 879 l 504 979 l 713 979 l 713 883 l 793 883 l 793 754 l 713 754 l 713 0 l 529 0 l 529 138 l 524 138 q 447 24 496 63 q 324 -15 399 -15 m 388 135 q 481 187 454 135 q 508 332 508 239 q 481 478 508 426 q 388 529 454 529 q 318 506 344 529 q 279 440 292 483 q 267 332 267 396 q 295 186 267 238 q 388 135 324 135 z "},"ḍ":{"ha":801,"x_min":63,"x_max":713,"o":"m 324 -15 q 178 31 236 -15 q 92 160 121 78 q 63 350 63 242 q 91 538 63 457 q 177 667 119 619 q 318 714 235 714 q 433 679 392 714 q 499 579 475 644 l 504 579 l 504 979 l 713 979 l 713 0 l 529 0 l 529 133 l 522 133 q 445 21 492 57 q 324 -15 399 -15 m 388 144 q 480 199 453 144 q 507 350 507 254 q 480 501 507 447 q 388 554 453 554 q 294 501 322 554 q 267 350 267 447 q 295 199 267 254 q 388 144 324 144 m 275 -297 l 275 -114 l 464 -114 l 464 -297 l 275 -297 z "},"ɗ":{"ha":801,"x_min":63,"x_max":863,"o":"m 322 -15 q 177 31 235 -15 q 91 160 119 78 q 63 350 63 242 q 91 538 63 457 q 176 667 119 619 q 317 714 233 714 q 433 679 392 714 q 497 579 475 644 l 504 579 l 504 743 q 533 881 504 825 q 618 965 561 936 q 760 994 675 994 q 819 990 792 994 q 863 979 847 985 l 847 825 q 822 830 839 828 q 793 832 806 832 q 731 806 750 832 q 713 733 713 781 l 713 0 l 529 0 l 529 133 l 521 133 q 444 21 492 57 q 322 -15 397 -15 m 388 144 q 480 199 453 144 q 507 350 507 254 q 480 501 507 447 q 386 554 453 554 q 294 501 322 554 q 267 350 267 447 q 294 199 267 254 q 388 144 322 144 z "},"ḏ":{"ha":801,"x_min":63,"x_max":713,"o":"m 324 -15 q 178 31 236 -15 q 92 160 121 78 q 63 350 63 242 q 91 538 63 457 q 177 667 119 619 q 318 714 235 714 q 433 679 392 714 q 499 579 475 644 l 504 579 l 504 979 l 713 979 l 713 0 l 529 0 l 529 133 l 522 133 q 445 21 492 57 q 324 -15 399 -15 m 388 144 q 480 199 453 144 q 507 350 507 254 q 480 501 507 447 q 388 554 453 554 q 294 501 322 554 q 267 350 267 447 q 295 199 267 254 q 388 144 324 144 m 158 -261 l 158 -117 l 582 -117 l 582 -261 l 158 -261 z "},"ǆ":{"ha":1454,"x_min":63,"x_max":1400,"o":"m 324 -15 q 178 31 236 -15 q 92 160 121 78 q 63 350 63 242 q 91 538 63 457 q 177 667 119 619 q 318 714 235 714 q 433 679 392 714 q 499 579 475 644 l 504 579 l 504 979 l 713 979 l 713 0 l 529 0 l 529 133 l 522 133 q 445 21 492 57 q 324 -15 399 -15 m 388 144 q 480 199 453 144 q 507 350 507 254 q 480 501 507 447 q 388 554 453 554 q 294 501 322 554 q 267 350 267 447 q 295 199 267 254 q 388 144 324 144 m 872 0 l 872 139 l 1192 599 l 1189 540 l 875 540 l 875 699 l 1388 699 l 1388 565 l 1063 106 l 1064 158 l 1400 158 l 1400 0 l 872 0 m 1046 779 l 913 1049 l 1063 1049 l 1136 890 l 1211 1049 l 1360 1049 l 1226 779 l 1046 779 z "},"e":{"ha":735,"x_min":63,"x_max":675,"o":"m 419 -15 q 220 26 300 -15 q 101 149 140 68 q 63 349 63 231 q 98 539 63 457 q 206 667 133 621 q 383 714 278 714 q 538 674 472 714 q 640 556 604 635 q 675 361 675 478 l 675 288 l 229 288 l 229 414 l 517 414 l 500 389 q 469 532 500 493 q 382 571 439 571 q 316 551 343 571 q 273 489 289 531 q 257 376 257 447 l 257 317 q 275 215 257 254 q 331 158 293 176 q 433 140 369 140 q 522 152 476 140 q 601 189 567 164 l 656 51 q 539 -1 597 13 q 419 -15 481 -15 z "},"é":{"ha":735,"x_min":63,"x_max":675,"o":"m 419 -15 q 220 26 300 -15 q 101 149 140 68 q 63 349 63 231 q 98 539 63 457 q 206 667 133 621 q 383 714 278 714 q 538 674 472 714 q 640 556 604 635 q 675 361 675 478 l 675 288 l 229 288 l 229 414 l 517 414 l 500 389 q 469 532 500 493 q 382 571 439 571 q 316 551 343 571 q 273 489 289 531 q 257 376 257 447 l 257 317 q 275 215 257 254 q 331 158 293 176 q 433 140 369 140 q 522 152 476 140 q 601 189 567 164 l 656 51 q 539 -1 597 13 q 419 -15 481 -15 m 292 779 l 406 1049 l 619 1049 l 444 779 l 292 779 z "},"ĕ":{"ha":735,"x_min":63,"x_max":675,"o":"m 419 -15 q 220 26 300 -15 q 101 149 140 68 q 63 349 63 231 q 98 539 63 457 q 206 667 133 621 q 383 714 278 714 q 538 674 472 714 q 640 556 604 635 q 675 361 675 478 l 675 288 l 229 288 l 229 414 l 517 414 l 500 389 q 469 532 500 493 q 382 571 439 571 q 316 551 343 571 q 273 489 289 531 q 257 376 257 447 l 257 317 q 275 215 257 254 q 331 158 293 176 q 433 140 369 140 q 522 152 476 140 q 601 189 567 164 l 656 51 q 539 -1 597 13 q 419 -15 481 -15 m 378 778 q 252 810 299 778 q 185 903 206 842 q 161 1049 164 964 l 286 1058 q 308 949 290 986 q 378 911 325 911 q 447 949 429 911 q 469 1058 465 986 l 594 1049 q 572 903 593 964 q 503 810 550 842 q 378 778 457 778 z "},"ě":{"ha":735,"x_min":63,"x_max":675,"o":"m 419 -15 q 220 26 300 -15 q 101 149 140 68 q 63 349 63 231 q 98 539 63 457 q 206 667 133 621 q 383 714 278 714 q 538 674 472 714 q 640 556 604 635 q 675 361 675 478 l 675 288 l 229 288 l 229 414 l 517 414 l 500 389 q 469 532 500 493 q 382 571 439 571 q 316 551 343 571 q 273 489 289 531 q 257 376 257 447 l 257 317 q 275 215 257 254 q 331 158 293 176 q 433 140 369 140 q 522 152 476 140 q 601 189 567 164 l 656 51 q 539 -1 597 13 q 419 -15 481 -15 m 288 779 l 154 1049 l 304 1049 l 378 890 l 453 1049 l 601 1049 l 468 779 l 288 779 z "},"ḝ":{"ha":735,"x_min":63,"x_max":675,"o":"m 419 -15 q 220 26 300 -15 q 101 149 140 68 q 63 349 63 231 q 98 539 63 457 q 206 667 133 621 q 383 714 278 714 q 538 674 472 714 q 640 556 604 635 q 675 361 675 478 l 675 288 l 229 288 l 229 414 l 517 414 l 500 389 q 469 532 500 493 q 382 571 439 571 q 316 551 343 571 q 273 489 289 531 q 257 376 257 447 l 257 317 q 275 215 257 254 q 331 158 293 176 q 433 140 369 140 q 522 152 476 140 q 601 189 567 164 l 656 51 q 539 -1 597 13 q 419 -15 481 -15 m 382 -287 q 307 -280 350 -287 q 238 -258 264 -272 l 267 -171 q 318 -190 289 -182 q 383 -199 347 -199 q 424 -190 410 -199 q 438 -160 438 -181 q 422 -130 438 -139 q 388 -121 407 -121 q 359 -124 378 -121 q 331 -129 340 -126 l 303 -103 l 324 28 l 414 28 l 397 -89 l 357 -62 q 392 -53 368 -56 q 443 -50 415 -50 q 497 -60 471 -50 q 541 -95 524 -71 q 558 -160 558 -119 q 537 -233 558 -204 q 476 -274 515 -261 q 382 -287 436 -287 m 378 778 q 252 810 299 778 q 185 903 206 842 q 161 1049 164 964 l 286 1058 q 308 949 290 986 q 378 911 325 911 q 447 949 429 911 q 469 1058 465 986 l 594 1049 q 572 903 593 964 q 503 810 550 842 q 378 778 457 778 z "},"ê":{"ha":735,"x_min":63,"x_max":675,"o":"m 419 -15 q 220 26 300 -15 q 101 149 140 68 q 63 349 63 231 q 98 539 63 457 q 206 667 133 621 q 383 714 278 714 q 538 674 472 714 q 640 556 604 635 q 675 361 675 478 l 675 288 l 229 288 l 229 414 l 517 414 l 500 389 q 469 532 500 493 q 382 571 439 571 q 316 551 343 571 q 273 489 289 531 q 257 376 257 447 l 257 317 q 275 215 257 254 q 331 158 293 176 q 433 140 369 140 q 522 152 476 140 q 601 189 567 164 l 656 51 q 539 -1 597 13 q 419 -15 481 -15 m 154 783 l 288 1049 l 468 1049 l 601 783 l 453 783 l 378 938 l 304 783 l 154 783 z "},"ế":{"ha":735,"x_min":63,"x_max":750,"o":"m 419 -15 q 220 26 300 -15 q 101 149 140 68 q 63 349 63 231 q 98 539 63 457 q 206 667 133 621 q 383 714 278 714 q 538 674 472 714 q 640 556 604 635 q 675 361 675 478 l 675 288 l 229 288 l 229 414 l 517 414 l 500 389 q 469 532 500 493 q 382 571 439 571 q 316 551 343 571 q 273 489 289 531 q 257 376 257 447 l 257 317 q 275 215 257 254 q 331 158 293 176 q 433 140 369 140 q 522 152 476 140 q 601 189 567 164 l 656 51 q 539 -1 597 13 q 419 -15 481 -15 m 161 792 l 294 1031 l 468 1031 l 601 792 l 457 792 l 382 929 l 306 792 l 161 792 m 529 978 l 599 1190 l 749 1190 l 643 978 l 529 978 z "},"ệ":{"ha":735,"x_min":63,"x_max":675,"o":"m 419 -15 q 220 26 300 -15 q 101 149 140 68 q 63 349 63 231 q 98 539 63 457 q 206 667 133 621 q 383 714 278 714 q 538 674 472 714 q 640 556 604 635 q 675 361 675 478 l 675 288 l 229 288 l 229 414 l 517 414 l 500 389 q 469 532 500 493 q 382 571 439 571 q 316 551 343 571 q 273 489 289 531 q 257 376 257 447 l 257 317 q 275 215 257 254 q 331 158 293 176 q 433 140 369 140 q 522 152 476 140 q 601 189 567 164 l 656 51 q 539 -1 597 13 q 419 -15 481 -15 m 278 -297 l 278 -114 l 467 -114 l 467 -297 l 278 -297 m 154 783 l 288 1049 l 468 1049 l 601 783 l 453 783 l 378 938 l 304 783 l 154 783 z "},"ề":{"ha":735,"x_min":63,"x_max":681,"o":"m 419 -15 q 220 26 300 -15 q 101 149 140 68 q 63 349 63 231 q 98 539 63 457 q 206 667 133 621 q 383 714 278 714 q 538 674 472 714 q 640 556 604 635 q 675 361 675 478 l 675 288 l 229 288 l 229 414 l 517 414 l 500 389 q 469 532 500 493 q 382 571 439 571 q 316 551 343 571 q 273 489 289 531 q 257 376 257 447 l 257 317 q 275 215 257 254 q 331 158 293 176 q 433 140 369 140 q 522 152 476 140 q 601 189 567 164 l 656 51 q 539 -1 597 13 q 419 -15 481 -15 m 161 792 l 294 1031 l 468 1031 l 601 792 l 457 792 l 382 929 l 306 792 l 161 792 m 565 978 l 461 1190 l 611 1190 l 679 978 l 565 978 z "},"ể":{"ha":735,"x_min":63,"x_max":714,"o":"m 419 -15 q 220 26 300 -15 q 101 149 140 68 q 63 349 63 231 q 98 539 63 457 q 206 667 133 621 q 383 714 278 714 q 538 674 472 714 q 640 556 604 635 q 675 361 675 478 l 675 288 l 229 288 l 229 414 l 517 414 l 500 389 q 469 532 500 493 q 382 571 439 571 q 316 551 343 571 q 273 489 289 531 q 257 376 257 447 l 257 317 q 275 215 257 254 q 331 158 293 176 q 433 140 369 140 q 522 152 476 140 q 601 189 567 164 l 656 51 q 539 -1 597 13 q 419 -15 481 -15 m 161 800 l 294 1039 l 468 1039 l 601 800 l 457 800 l 382 938 l 306 800 l 161 800 m 526 988 q 533 1022 526 1007 q 549 1050 540 1038 q 565 1074 558 1063 q 571 1097 571 1086 q 561 1117 571 1111 q 532 1124 551 1124 q 505 1119 519 1124 q 478 1104 490 1114 l 453 1183 q 513 1207 479 1199 q 589 1215 547 1215 q 681 1194 649 1215 q 714 1135 714 1172 q 703 1092 714 1110 q 677 1058 692 1074 q 651 1026 663 1043 q 638 988 639 1010 l 526 988 z "},"ễ":{"ha":735,"x_min":63,"x_max":675,"o":"m 419 -15 q 220 26 300 -15 q 101 149 140 68 q 63 349 63 231 q 98 539 63 457 q 206 667 133 621 q 383 714 278 714 q 538 674 472 714 q 640 556 604 635 q 675 361 675 478 l 675 288 l 229 288 l 229 414 l 517 414 l 500 389 q 469 532 500 493 q 382 571 439 571 q 316 551 343 571 q 273 489 289 531 q 257 376 257 447 l 257 317 q 275 215 257 254 q 331 158 293 176 q 433 140 369 140 q 522 152 476 140 q 601 189 567 164 l 656 51 q 539 -1 597 13 q 419 -15 481 -15 m 158 792 l 292 1008 l 465 1008 l 599 792 l 451 792 l 379 914 l 306 792 l 158 792 m 249 1051 l 149 1057 q 165 1144 153 1107 q 206 1203 176 1181 q 286 1225 235 1225 q 353 1210 325 1225 q 399 1185 381 1196 q 425 1169 407 1179 q 464 1158 443 1158 q 494 1177 483 1158 q 508 1226 506 1196 l 607 1219 q 572 1099 603 1146 q 464 1053 540 1053 q 400 1066 425 1053 q 358 1088 375 1079 q 325 1108 340 1100 q 293 1117 310 1117 q 263 1099 274 1117 q 249 1051 251 1082 z "},"ȅ":{"ha":735,"x_min":63,"x_max":675,"o":"m 419 -15 q 220 26 300 -15 q 101 149 140 68 q 63 349 63 231 q 98 539 63 457 q 206 667 133 621 q 383 714 278 714 q 538 674 472 714 q 640 556 604 635 q 675 361 675 478 l 675 288 l 229 288 l 229 414 l 517 414 l 500 389 q 469 532 500 493 q 382 571 439 571 q 316 551 343 571 q 273 489 289 531 q 257 376 257 447 l 257 317 q 275 215 257 254 q 331 158 293 176 q 433 140 369 140 q 522 152 476 140 q 601 189 567 164 l 656 51 q 539 -1 597 13 q 419 -15 481 -15 m 429 779 l 321 1049 l 497 1049 l 544 779 l 429 779 m 221 779 l 113 1049 l 288 1049 l 335 779 l 221 779 z "},"ë":{"ha":735,"x_min":63,"x_max":675,"o":"m 419 -15 q 220 26 300 -15 q 101 149 140 68 q 63 349 63 231 q 98 539 63 457 q 206 667 133 621 q 383 714 278 714 q 538 674 472 714 q 640 556 604 635 q 675 361 675 478 l 675 288 l 229 288 l 229 414 l 517 414 l 500 389 q 469 532 500 493 q 382 571 439 571 q 316 551 343 571 q 273 489 289 531 q 257 376 257 447 l 257 317 q 275 215 257 254 q 331 158 293 176 q 433 140 369 140 q 522 152 476 140 q 601 189 567 164 l 656 51 q 539 -1 597 13 q 419 -15 481 -15 m 422 828 l 422 1017 l 610 1017 l 610 828 l 422 828 m 146 828 l 146 1017 l 333 1017 l 333 828 l 146 828 z "},"ė":{"ha":735,"x_min":63,"x_max":675,"o":"m 419 -15 q 220 26 300 -15 q 101 149 140 68 q 63 349 63 231 q 98 539 63 457 q 206 667 133 621 q 383 714 278 714 q 538 674 472 714 q 640 556 604 635 q 675 361 675 478 l 675 288 l 229 288 l 229 414 l 517 414 l 500 389 q 469 532 500 493 q 382 571 439 571 q 316 551 343 571 q 273 489 289 531 q 257 376 257 447 l 257 317 q 275 215 257 254 q 331 158 293 176 q 433 140 369 140 q 522 152 476 140 q 601 189 567 164 l 656 51 q 539 -1 597 13 q 419 -15 481 -15 m 283 838 l 283 1022 l 472 1022 l 472 838 l 283 838 z "},"ẹ":{"ha":735,"x_min":63,"x_max":675,"o":"m 419 -15 q 220 26 300 -15 q 101 149 140 68 q 63 349 63 231 q 98 539 63 457 q 206 667 133 621 q 383 714 278 714 q 538 674 472 714 q 640 556 604 635 q 675 361 675 478 l 675 288 l 229 288 l 229 414 l 517 414 l 500 389 q 469 532 500 493 q 382 571 439 571 q 316 551 343 571 q 273 489 289 531 q 257 376 257 447 l 257 317 q 275 215 257 254 q 331 158 293 176 q 433 140 369 140 q 522 152 476 140 q 601 189 567 164 l 656 51 q 539 -1 597 13 q 419 -15 481 -15 m 278 -297 l 278 -114 l 467 -114 l 467 -297 l 278 -297 z "},"è":{"ha":735,"x_min":63,"x_max":675,"o":"m 419 -15 q 220 26 300 -15 q 101 149 140 68 q 63 349 63 231 q 98 539 63 457 q 206 667 133 621 q 383 714 278 714 q 538 674 472 714 q 640 556 604 635 q 675 361 675 478 l 675 288 l 229 288 l 229 414 l 517 414 l 500 389 q 469 532 500 493 q 382 571 439 571 q 316 551 343 571 q 273 489 289 531 q 257 376 257 447 l 257 317 q 275 215 257 254 q 331 158 293 176 q 433 140 369 140 q 522 152 476 140 q 601 189 567 164 l 656 51 q 539 -1 597 13 q 419 -15 481 -15 m 311 789 l 136 1049 l 350 1049 l 464 789 l 311 789 z "},"ẻ":{"ha":735,"x_min":63,"x_max":675,"o":"m 419 -15 q 220 26 300 -15 q 101 149 140 68 q 63 349 63 231 q 98 539 63 457 q 206 667 133 621 q 383 714 278 714 q 538 674 472 714 q 640 556 604 635 q 675 361 675 478 l 675 288 l 229 288 l 229 414 l 517 414 l 500 389 q 469 532 500 493 q 382 571 439 571 q 316 551 343 571 q 273 489 289 531 q 257 376 257 447 l 257 317 q 275 215 257 254 q 331 158 293 176 q 433 140 369 140 q 522 152 476 140 q 601 189 567 164 l 656 51 q 539 -1 597 13 q 419 -15 481 -15 m 307 789 l 307 821 q 317 865 307 847 q 338 898 326 883 q 358 928 349 913 q 368 961 368 943 q 358 988 368 979 q 324 997 347 997 q 290 993 310 997 q 253 979 271 989 l 219 1069 q 293 1095 251 1086 q 381 1104 335 1104 q 504 1076 463 1104 q 546 993 546 1047 q 531 933 546 957 q 497 893 515 910 q 463 858 478 876 q 447 813 447 839 l 447 789 l 307 789 z "},"ȇ":{"ha":735,"x_min":63,"x_max":675,"o":"m 419 -15 q 220 26 300 -15 q 101 149 140 68 q 63 349 63 231 q 98 539 63 457 q 206 667 133 621 q 383 714 278 714 q 538 674 472 714 q 640 556 604 635 q 675 361 675 478 l 675 288 l 229 288 l 229 414 l 517 414 l 500 389 q 469 532 500 493 q 382 571 439 571 q 316 551 343 571 q 273 489 289 531 q 257 376 257 447 l 257 317 q 275 215 257 254 q 331 158 293 176 q 433 140 369 140 q 522 152 476 140 q 601 189 567 164 l 656 51 q 539 -1 597 13 q 419 -15 481 -15 m 286 778 l 161 788 q 185 933 164 872 q 252 1026 206 993 q 378 1058 299 1058 q 503 1026 457 1058 q 572 933 550 993 q 594 788 593 872 l 469 778 q 447 887 465 850 q 378 924 429 924 q 308 887 325 924 q 286 778 290 850 z "},"ē":{"ha":735,"x_min":63,"x_max":675,"o":"m 419 -15 q 220 26 300 -15 q 101 149 140 68 q 63 349 63 231 q 98 539 63 457 q 206 667 133 621 q 383 714 278 714 q 538 674 472 714 q 640 556 604 635 q 675 361 675 478 l 675 288 l 229 288 l 229 414 l 517 414 l 500 389 q 469 532 500 493 q 382 571 439 571 q 316 551 343 571 q 273 489 289 531 q 257 376 257 447 l 257 317 q 275 215 257 254 q 331 158 293 176 q 433 140 369 140 q 522 152 476 140 q 601 189 567 164 l 656 51 q 539 -1 597 13 q 419 -15 481 -15 m 167 851 l 167 997 l 590 997 l 590 851 l 167 851 z "},"ḗ":{"ha":735,"x_min":63,"x_max":675,"o":"m 419 -15 q 220 26 300 -15 q 101 149 140 68 q 63 349 63 231 q 98 539 63 457 q 206 667 133 621 q 383 714 278 714 q 538 674 472 714 q 640 556 604 635 q 675 361 675 478 l 675 288 l 229 288 l 229 414 l 517 414 l 500 389 q 469 532 500 493 q 382 571 439 571 q 316 551 343 571 q 273 489 289 531 q 257 376 257 447 l 257 317 q 275 215 257 254 q 331 158 293 176 q 433 140 369 140 q 522 152 476 140 q 601 189 567 164 l 656 51 q 539 -1 597 13 q 419 -15 481 -15 m 169 819 l 169 953 l 586 953 l 586 819 l 169 819 m 281 1019 l 378 1218 l 585 1218 l 422 1019 l 281 1019 z "},"ḕ":{"ha":735,"x_min":63,"x_max":675,"o":"m 419 -15 q 220 26 300 -15 q 101 149 140 68 q 63 349 63 231 q 98 539 63 457 q 206 667 133 621 q 383 714 278 714 q 538 674 472 714 q 640 556 604 635 q 675 361 675 478 l 675 288 l 229 288 l 229 414 l 517 414 l 500 389 q 469 532 500 493 q 382 571 439 571 q 316 551 343 571 q 273 489 289 531 q 257 376 257 447 l 257 317 q 275 215 257 254 q 331 158 293 176 q 433 140 369 140 q 522 152 476 140 q 601 189 567 164 l 656 51 q 539 -1 597 13 q 419 -15 481 -15 m 169 819 l 169 953 l 586 953 l 586 819 l 169 819 m 333 1019 l 171 1218 l 378 1218 l 475 1019 l 333 1019 z "},"ę":{"ha":735,"x_min":63,"x_max":675,"o":"m 419 -15 q 220 26 300 -15 q 101 149 140 68 q 63 349 63 231 q 98 539 63 457 q 206 667 133 621 q 383 714 278 714 q 538 674 472 714 q 640 556 604 635 q 675 361 675 478 l 675 288 l 229 288 l 229 414 l 517 414 l 500 389 q 469 532 500 493 q 382 571 439 571 q 316 551 343 571 q 273 489 289 531 q 257 376 257 447 l 257 317 q 275 215 257 254 q 331 158 293 176 q 433 140 369 140 q 522 152 476 140 q 601 189 567 164 l 656 51 q 539 -1 597 13 q 419 -15 481 -15 m 469 -287 q 354 -253 396 -287 q 313 -156 313 -218 q 347 -40 313 -97 q 440 58 381 17 l 504 0 q 474 -32 488 -14 q 453 -70 461 -50 q 446 -111 446 -90 q 459 -155 446 -140 q 497 -169 472 -169 q 524 -166 510 -169 q 556 -157 539 -162 l 579 -264 q 524 -282 549 -276 q 469 -287 499 -287 z "},"ẽ":{"ha":735,"x_min":63,"x_max":675,"o":"m 419 -15 q 220 26 300 -15 q 101 149 140 68 q 63 349 63 231 q 98 539 63 457 q 206 667 133 621 q 383 714 278 714 q 538 674 472 714 q 640 556 604 635 q 675 361 675 478 l 675 288 l 229 288 l 229 414 l 517 414 l 500 389 q 469 532 500 493 q 382 571 439 571 q 316 551 343 571 q 273 489 289 531 q 257 376 257 447 l 257 317 q 275 215 257 254 q 331 158 293 176 q 433 140 369 140 q 522 152 476 140 q 601 189 567 164 l 656 51 q 539 -1 597 13 q 419 -15 481 -15 m 239 810 l 138 818 q 172 965 138 908 q 276 1022 207 1022 q 347 1005 317 1022 q 396 978 376 988 q 431 958 410 971 q 472 946 451 946 q 506 967 497 946 q 517 1025 515 989 l 618 1019 q 584 869 619 926 q 479 813 549 813 q 408 830 438 813 q 360 857 378 847 q 324 877 344 865 q 283 889 304 889 q 251 868 260 889 q 239 810 242 847 z "},"ə":{"ha":735,"x_min":60,"x_max":674,"o":"m 347 -15 q 195 27 260 -15 q 95 148 131 69 q 60 336 60 226 l 60 408 l 506 408 l 506 288 l 219 288 l 235 314 q 265 172 235 213 q 353 132 294 132 q 419 153 392 132 q 462 215 446 174 q 478 322 478 257 l 478 386 q 460 483 478 446 q 401 537 442 519 q 296 554 361 554 q 208 543 254 554 q 129 506 161 532 l 81 647 q 192 699 132 683 q 311 714 251 714 q 515 672 435 714 q 634 550 594 631 q 674 350 674 469 q 636 160 674 243 q 526 31 599 78 q 347 -15 454 -15 z "},"ʒ":{"ha":733,"x_min":33,"x_max":676,"o":"m 329 -267 q 168 -244 247 -267 q 33 -181 89 -221 l 93 -33 q 191 -85 133 -67 q 307 -103 249 -103 q 430 -69 389 -103 q 471 38 471 -35 q 422 144 471 113 q 282 176 374 176 l 185 175 l 182 282 l 465 592 l 456 538 l 67 538 l 67 699 l 635 699 l 635 568 l 374 279 l 326 314 l 378 314 q 597 244 518 314 q 676 44 676 175 q 634 -119 676 -50 q 515 -228 592 -189 q 329 -267 438 -267 z "},"ǯ":{"ha":733,"x_min":33,"x_max":676,"o":"m 329 -267 q 168 -244 247 -267 q 33 -181 89 -221 l 93 -33 q 191 -85 133 -67 q 307 -103 249 -103 q 430 -69 389 -103 q 471 38 471 -35 q 422 144 471 113 q 282 176 374 176 l 185 175 l 182 282 l 465 592 l 456 538 l 67 538 l 67 699 l 635 699 l 635 568 l 374 279 l 326 314 l 378 314 q 597 244 518 314 q 676 44 676 175 q 634 -119 676 -50 q 515 -228 592 -189 q 329 -267 438 -267 m 260 779 l 126 1049 l 276 1049 l 350 890 l 425 1049 l 574 1049 l 440 779 l 260 779 z "},"f":{"ha":540,"x_min":22,"x_max":532,"o":"m 132 0 l 132 553 l 22 553 l 22 699 l 185 699 l 132 640 l 132 696 q 206 913 132 842 q 429 990 281 985 l 519 993 l 532 842 l 431 836 q 379 826 401 835 q 344 797 357 818 q 332 733 332 775 l 332 665 l 285 699 l 503 699 l 503 553 l 340 553 l 340 0 l 132 0 z "},"g":{"ha":796,"x_min":63,"x_max":707,"o":"m 347 -265 q 219 -245 285 -265 q 100 -193 153 -225 l 150 -39 q 216 -72 182 -58 q 284 -94 250 -86 q 347 -101 318 -101 q 477 -57 435 -101 q 519 76 519 -12 l 519 174 l 510 174 q 442 70 488 108 q 324 32 397 32 q 184 72 243 32 q 94 190 125 113 q 63 374 63 267 q 94 556 63 481 q 185 673 125 632 q 325 714 244 714 q 443 676 397 714 q 514 568 489 638 l 518 568 l 518 699 l 707 699 l 707 86 q 665 -101 707 -22 q 543 -222 624 -179 q 347 -265 463 -265 m 385 190 q 476 237 447 190 q 506 375 506 283 q 476 510 506 464 q 385 556 447 556 q 293 510 324 556 q 263 375 263 465 q 293 237 263 283 q 385 190 324 190 z "},"ğ":{"ha":796,"x_min":63,"x_max":707,"o":"m 347 -265 q 219 -245 285 -265 q 100 -193 153 -225 l 150 -39 q 216 -72 182 -58 q 284 -94 250 -86 q 347 -101 318 -101 q 477 -57 435 -101 q 519 76 519 -12 l 519 174 l 510 174 q 442 70 488 108 q 324 32 397 32 q 184 72 243 32 q 94 190 125 113 q 63 374 63 267 q 94 556 63 481 q 185 673 125 632 q 325 714 244 714 q 443 676 397 714 q 514 568 489 638 l 518 568 l 518 699 l 707 699 l 707 86 q 665 -101 707 -22 q 543 -222 624 -179 q 347 -265 463 -265 m 385 190 q 476 237 447 190 q 506 375 506 283 q 476 510 506 464 q 385 556 447 556 q 293 510 324 556 q 263 375 263 465 q 293 237 263 283 q 385 190 324 190 m 385 778 q 259 810 306 778 q 192 903 213 842 q 168 1049 171 964 l 293 1058 q 315 949 297 986 q 385 911 332 911 q 454 949 436 911 q 476 1058 472 986 l 601 1049 q 578 903 600 964 q 510 810 557 842 q 385 778 464 778 z "},"ǧ":{"ha":796,"x_min":63,"x_max":707,"o":"m 347 -265 q 219 -245 285 -265 q 100 -193 153 -225 l 150 -39 q 216 -72 182 -58 q 284 -94 250 -86 q 347 -101 318 -101 q 477 -57 435 -101 q 519 76 519 -12 l 519 174 l 510 174 q 442 70 488 108 q 324 32 397 32 q 184 72 243 32 q 94 190 125 113 q 63 374 63 267 q 94 556 63 481 q 185 673 125 632 q 325 714 244 714 q 443 676 397 714 q 514 568 489 638 l 518 568 l 518 699 l 707 699 l 707 86 q 665 -101 707 -22 q 543 -222 624 -179 q 347 -265 463 -265 m 385 190 q 476 237 447 190 q 506 375 506 283 q 476 510 506 464 q 385 556 447 556 q 293 510 324 556 q 263 375 263 465 q 293 237 263 283 q 385 190 324 190 m 294 779 l 161 1049 l 311 1049 l 385 890 l 460 1049 l 608 1049 l 475 779 l 294 779 z "},"ĝ":{"ha":796,"x_min":63,"x_max":707,"o":"m 347 -265 q 219 -245 285 -265 q 100 -193 153 -225 l 150 -39 q 216 -72 182 -58 q 284 -94 250 -86 q 347 -101 318 -101 q 477 -57 435 -101 q 519 76 519 -12 l 519 174 l 510 174 q 442 70 488 108 q 324 32 397 32 q 184 72 243 32 q 94 190 125 113 q 63 374 63 267 q 94 556 63 481 q 185 673 125 632 q 325 714 244 714 q 443 676 397 714 q 514 568 489 638 l 518 568 l 518 699 l 707 699 l 707 86 q 665 -101 707 -22 q 543 -222 624 -179 q 347 -265 463 -265 m 385 190 q 476 237 447 190 q 506 375 506 283 q 476 510 506 464 q 385 556 447 556 q 293 510 324 556 q 263 375 263 465 q 293 237 263 283 q 385 190 324 190 m 161 783 l 294 1049 l 475 1049 l 608 783 l 460 783 l 385 938 l 311 783 l 161 783 z "},"ģ":{"ha":796,"x_min":63,"x_max":707,"o":"m 347 -265 q 219 -245 285 -265 q 100 -193 153 -225 l 150 -39 q 216 -72 182 -58 q 284 -94 250 -86 q 347 -101 318 -101 q 477 -57 435 -101 q 519 76 519 -12 l 519 174 l 510 174 q 442 70 488 108 q 324 32 397 32 q 184 72 243 32 q 94 190 125 113 q 63 374 63 267 q 94 556 63 481 q 185 673 125 632 q 325 714 244 714 q 443 676 397 714 q 514 568 489 638 l 518 568 l 518 699 l 707 699 l 707 86 q 665 -101 707 -22 q 543 -222 624 -179 q 347 -265 463 -265 m 385 190 q 476 237 447 190 q 506 375 506 283 q 476 510 506 464 q 385 556 447 556 q 293 510 324 556 q 263 375 263 465 q 293 237 263 283 q 385 190 324 190 m 290 806 l 290 924 q 308 1041 290 986 q 368 1138 325 1096 l 443 1085 q 401 1013 415 1051 q 386 942 386 975 l 349 968 l 479 968 l 479 806 l 290 806 z "},"ġ":{"ha":796,"x_min":63,"x_max":707,"o":"m 347 -265 q 219 -245 285 -265 q 100 -193 153 -225 l 150 -39 q 216 -72 182 -58 q 284 -94 250 -86 q 347 -101 318 -101 q 477 -57 435 -101 q 519 76 519 -12 l 519 174 l 510 174 q 442 70 488 108 q 324 32 397 32 q 184 72 243 32 q 94 190 125 113 q 63 374 63 267 q 94 556 63 481 q 185 673 125 632 q 325 714 244 714 q 443 676 397 714 q 514 568 489 638 l 518 568 l 518 699 l 707 699 l 707 86 q 665 -101 707 -22 q 543 -222 624 -179 q 347 -265 463 -265 m 385 190 q 476 237 447 190 q 506 375 506 283 q 476 510 506 464 q 385 556 447 556 q 293 510 324 556 q 263 375 263 465 q 293 237 263 283 q 385 190 324 190 m 290 838 l 290 1022 l 479 1022 l 479 838 l 290 838 z "},"ḡ":{"ha":796,"x_min":63,"x_max":707,"o":"m 347 -265 q 219 -245 285 -265 q 100 -193 153 -225 l 150 -39 q 216 -72 182 -58 q 284 -94 250 -86 q 347 -101 318 -101 q 477 -57 435 -101 q 519 76 519 -12 l 519 174 l 510 174 q 442 70 488 108 q 324 32 397 32 q 184 72 243 32 q 94 190 125 113 q 63 374 63 267 q 94 556 63 481 q 185 673 125 632 q 325 714 244 714 q 443 676 397 714 q 514 568 489 638 l 518 568 l 518 699 l 707 699 l 707 86 q 665 -101 707 -22 q 543 -222 624 -179 q 347 -265 463 -265 m 385 190 q 476 237 447 190 q 506 375 506 283 q 476 510 506 464 q 385 556 447 556 q 293 510 324 556 q 263 375 263 465 q 293 237 263 283 q 385 190 324 190 m 174 851 l 174 997 l 597 997 l 597 851 l 174 851 z "},"ǥ":{"ha":796,"x_min":63,"x_max":776,"o":"m 343 -265 q 215 -247 282 -265 q 97 -197 149 -229 l 139 -62 q 207 -89 171 -79 q 279 -103 243 -99 q 344 -108 315 -108 q 448 -91 410 -108 q 503 -31 486 -74 l 507 -56 l 306 -56 l 306 25 l 538 25 l 514 26 q 517 46 517 36 q 517 68 517 56 l 517 213 l 507 213 q 439 108 485 146 q 319 71 393 71 q 180 108 238 71 q 92 217 122 146 q 63 389 63 288 q 92 565 63 492 q 181 676 122 638 q 321 714 239 714 q 442 673 394 714 q 511 561 489 632 l 518 568 l 518 699 l 707 699 l 707 86 q 704 33 707 57 q 699 -7 701 10 l 676 25 l 776 25 l 776 -56 l 667 -56 l 696 -26 q 577 -209 668 -153 q 343 -265 486 -265 m 385 213 q 453 233 426 213 q 493 292 479 254 q 507 383 507 329 q 476 513 507 467 q 385 558 446 558 q 317 538 344 558 q 276 480 290 518 q 263 388 263 442 q 276 294 263 333 q 317 233 290 254 q 385 213 344 213 z "},"h":{"ha":792,"x_min":89,"x_max":704,"o":"m 89 0 l 89 979 l 283 979 l 283 578 l 299 578 q 372 675 324 636 q 493 714 421 714 q 605 685 557 714 q 678 598 653 657 q 704 449 704 539 l 704 0 l 496 0 l 496 433 q 485 494 496 471 q 456 529 475 518 q 410 540 436 540 q 355 524 381 540 q 313 480 329 508 q 297 413 297 451 l 297 0 l 89 0 z "},"ħ":{"ha":806,"x_min":19,"x_max":718,"o":"m 101 0 l 101 754 l 19 754 l 19 883 l 101 883 l 101 979 l 297 979 l 297 882 l 501 882 l 501 754 l 297 754 l 297 540 l 306 540 q 383 645 335 608 q 503 682 432 682 q 662 613 606 682 q 718 401 718 543 l 718 0 l 508 0 l 508 392 q 500 455 508 429 q 472 494 492 481 q 422 508 453 508 q 365 490 390 508 q 325 440 340 472 q 310 364 310 408 l 310 0 l 101 0 z "},"ḫ":{"ha":792,"x_min":89,"x_max":704,"o":"m 89 0 l 89 979 l 283 979 l 283 578 l 299 578 q 372 675 324 636 q 493 714 421 714 q 605 685 557 714 q 678 598 653 657 q 704 449 704 539 l 704 0 l 496 0 l 496 433 q 485 494 496 471 q 456 529 475 518 q 410 540 436 540 q 355 524 381 540 q 313 480 329 508 q 297 413 297 451 l 297 0 l 89 0 m 401 -292 q 236 -236 293 -292 q 176 -86 179 -181 l 299 -76 q 327 -142 301 -121 q 401 -162 353 -162 q 476 -142 450 -162 q 504 -76 501 -122 l 626 -86 q 567 -236 625 -181 q 401 -292 510 -292 z "},"ȟ":{"ha":792,"x_min":89,"x_max":704,"o":"m 89 0 l 89 979 l 283 979 l 283 578 l 299 578 q 372 675 324 636 q 493 714 421 714 q 605 685 557 714 q 678 598 653 657 q 704 449 704 539 l 704 0 l 496 0 l 496 433 q 485 494 496 471 q 456 529 475 518 q 410 540 436 540 q 355 524 381 540 q 313 480 329 508 q 297 413 297 451 l 297 0 l 89 0 m 294 1063 l 151 1283 l 304 1283 l 381 1163 l 457 1283 l 610 1283 l 467 1063 l 294 1063 z "},"ĥ":{"ha":792,"x_min":89,"x_max":704,"o":"m 89 0 l 89 979 l 283 979 l 283 578 l 299 578 q 372 675 324 636 q 493 714 421 714 q 605 685 557 714 q 678 598 653 657 q 704 449 704 539 l 704 0 l 496 0 l 496 433 q 485 494 496 471 q 456 529 475 518 q 410 540 436 540 q 355 524 381 540 q 313 480 329 508 q 297 413 297 451 l 297 0 l 89 0 m 151 1063 l 294 1283 l 467 1283 l 610 1063 l 457 1063 l 381 1183 l 304 1063 l 151 1063 z "},"ḥ":{"ha":792,"x_min":89,"x_max":704,"o":"m 89 0 l 89 979 l 283 979 l 283 578 l 299 578 q 372 675 324 636 q 493 714 421 714 q 605 685 557 714 q 678 598 653 657 q 704 449 704 539 l 704 0 l 496 0 l 496 433 q 485 494 496 471 q 456 529 475 518 q 410 540 436 540 q 355 524 381 540 q 313 480 329 508 q 297 413 297 451 l 297 0 l 89 0 m 307 -297 l 307 -114 l 496 -114 l 496 -297 l 307 -297 z "},"i":{"ha":386,"x_min":82,"x_max":301,"o":"m 82 831 l 82 1028 l 301 1028 l 301 831 l 82 831 m 89 0 l 89 699 l 297 699 l 297 0 l 89 0 z "},"ı":{"ha":386,"x_min":89,"x_max":297,"o":"m 89 0 l 89 699 l 297 699 l 297 0 l 89 0 z "},"í":{"ha":386,"x_min":89,"x_max":433,"o":"m 89 0 l 89 699 l 297 699 l 297 0 l 89 0 m 106 779 l 219 1049 l 433 1049 l 258 779 l 106 779 z "},"ĭ":{"ha":386,"x_min":-25,"x_max":407,"o":"m 89 0 l 89 699 l 297 699 l 297 0 l 89 0 m 192 778 q 66 810 113 778 q -1 903 19 842 q -25 1049 -22 964 l 100 1058 q 122 949 104 986 q 192 911 139 911 q 261 949 243 911 q 283 1058 279 986 l 408 1049 q 385 903 407 964 q 317 810 364 842 q 192 778 271 778 z "},"î":{"ha":386,"x_min":-32,"x_max":414,"o":"m 89 0 l 89 699 l 297 699 l 297 0 l 89 0 m -32 783 l 101 1049 l 282 1049 l 415 783 l 267 783 l 192 938 l 118 783 l -32 783 z "},"ȉ":{"ha":386,"x_min":-74,"x_max":358,"o":"m 89 0 l 89 699 l 297 699 l 297 0 l 89 0 m 243 779 l 135 1049 l 311 1049 l 358 779 l 243 779 m 35 779 l -74 1049 l 101 1049 l 149 779 l 35 779 z "},"ï":{"ha":386,"x_min":-42,"x_max":424,"o":"m 89 0 l 89 699 l 297 699 l 297 0 l 89 0 m 236 828 l 236 1017 l 424 1017 l 424 828 l 236 828 m -40 828 l -40 1017 l 147 1017 l 147 828 l -40 828 z "},"ḯ":{"ha":386,"x_min":-32,"x_max":417,"o":"m 89 0 l 89 699 l 297 699 l 297 0 l 89 0 m 114 983 l 210 1183 l 417 1183 l 254 983 l 114 983 m -32 789 l -32 938 l 157 938 l 157 789 l -32 789 m 226 789 l 226 938 l 415 938 l 415 789 l 226 789 z "},"ị":{"ha":386,"x_min":82,"x_max":301,"o":"m 82 831 l 82 1028 l 301 1028 l 301 831 l 82 831 m 89 0 l 89 699 l 297 699 l 297 0 l 89 0 m 96 -297 l 96 -114 l 285 -114 l 285 -297 l 96 -297 z "},"ì":{"ha":386,"x_min":-50,"x_max":297,"o":"m 89 0 l 89 699 l 297 699 l 297 0 l 89 0 m 125 789 l -50 1049 l 164 1049 l 278 789 l 125 789 z "},"ỉ":{"ha":386,"x_min":33,"x_max":360,"o":"m 89 0 l 89 699 l 297 699 l 297 0 l 89 0 m 121 789 l 121 821 q 131 865 121 847 q 151 898 140 883 q 172 928 163 913 q 182 961 182 943 q 172 988 182 979 q 138 997 161 997 q 104 993 124 997 q 67 979 85 989 l 33 1069 q 107 1095 65 1086 q 194 1104 149 1104 q 318 1076 276 1104 q 360 993 360 1047 q 344 933 360 957 q 310 893 329 910 q 276 858 292 876 q 261 813 261 839 l 261 789 l 121 789 z "},"ȋ":{"ha":386,"x_min":-25,"x_max":407,"o":"m 89 0 l 89 699 l 297 699 l 297 0 l 89 0 m 100 778 l -25 788 q -1 933 -22 872 q 66 1026 19 993 q 192 1058 113 1058 q 317 1026 271 1058 q 385 933 364 993 q 408 788 407 872 l 283 778 q 261 887 279 850 q 192 924 243 924 q 122 887 139 924 q 100 778 104 850 z "},"ĳ":{"ha":747,"x_min":82,"x_max":679,"o":"m 82 831 l 82 1028 l 301 1028 l 301 831 l 82 831 m 89 0 l 89 699 l 297 699 l 297 0 l 89 0 m 460 831 l 460 1028 l 679 1028 l 679 831 l 460 831 m 351 -268 l 333 -108 l 390 -100 q 444 -76 422 -94 q 465 1 465 -57 l 465 699 l 674 699 l 674 4 q 664 -101 674 -54 q 628 -179 654 -147 q 550 -231 601 -211 q 417 -261 499 -250 l 351 -268 z "},"ī":{"ha":386,"x_min":-21,"x_max":403,"o":"m 89 0 l 89 699 l 297 699 l 297 0 l 89 0 m -19 851 l -19 997 l 404 997 l 404 851 l -19 851 z "},"į":{"ha":386,"x_min":60,"x_max":326,"o":"m 89 0 l 89 699 l 297 699 l 297 0 l 89 0 m 82 831 l 82 1028 l 301 1028 l 301 831 l 82 831 m 217 -287 q 101 -253 143 -287 q 60 -156 60 -218 q 94 -40 60 -97 q 188 58 128 17 l 251 0 q 222 -32 235 -14 q 201 -70 208 -50 q 193 -111 193 -90 q 206 -155 193 -140 q 244 -169 219 -169 q 272 -166 257 -169 q 303 -157 286 -162 l 326 -264 q 271 -282 296 -276 q 217 -287 246 -287 z "},"ĩ":{"ha":386,"x_min":-49,"x_max":432,"o":"m 89 0 l 89 699 l 297 699 l 297 0 l 89 0 m 53 810 l -49 818 q -14 965 -49 908 q 90 1022 21 1022 q 160 1005 131 1022 q 210 978 190 988 q 244 958 224 971 q 286 946 265 946 q 320 967 311 946 q 331 1025 329 989 l 432 1019 q 398 869 433 926 q 293 813 363 813 q 222 830 251 813 q 174 857 192 847 q 138 877 158 865 q 97 889 118 889 q 65 868 74 889 q 53 810 56 847 z "},"j":{"ha":361,"x_min":-53,"x_max":293,"o":"m 74 831 l 74 1028 l 293 1028 l 293 831 l 74 831 m -35 -268 l -53 -108 l 4 -100 q 58 -76 36 -94 q 79 1 79 -57 l 79 699 l 288 699 l 288 4 q 278 -101 288 -54 q 242 -179 268 -147 q 164 -231 215 -211 q 31 -261 113 -250 l -35 -268 z "},"ȷ":{"ha":361,"x_min":-53,"x_max":288,"o":"m -35 -268 l -53 -108 l 4 -100 q 58 -76 36 -94 q 79 1 79 -57 l 79 699 l 288 699 l 288 4 q 278 -101 288 -54 q 242 -179 268 -147 q 164 -231 215 -211 q 31 -261 113 -250 l -35 -268 z "},"ĵ":{"ha":361,"x_min":-53,"x_max":407,"o":"m -35 -268 l -53 -108 l 4 -100 q 58 -76 36 -94 q 79 1 79 -57 l 79 699 l 288 699 l 288 4 q 278 -101 288 -54 q 242 -179 268 -147 q 164 -231 215 -211 q 31 -261 113 -250 l -35 -268 m -40 783 l 93 1049 l 274 1049 l 407 783 l 258 783 l 183 938 l 110 783 l -40 783 z "},"k":{"ha":715,"x_min":89,"x_max":725,"o":"m 89 0 l 89 979 l 297 979 l 297 397 l 306 397 l 479 699 l 710 699 l 469 322 l 481 390 l 725 0 l 486 0 l 306 300 l 297 300 l 297 0 l 89 0 z "},"ǩ":{"ha":715,"x_min":89,"x_max":725,"o":"m 89 0 l 89 979 l 297 979 l 297 397 l 306 397 l 479 699 l 710 699 l 469 322 l 481 390 l 725 0 l 486 0 l 306 300 l 297 300 l 297 0 l 89 0 m 294 1063 l 151 1283 l 304 1283 l 381 1163 l 457 1283 l 610 1283 l 467 1063 l 294 1063 z "},"ķ":{"ha":715,"x_min":89,"x_max":725,"o":"m 89 0 l 89 979 l 297 979 l 297 397 l 306 397 l 479 699 l 710 699 l 469 322 l 481 390 l 725 0 l 486 0 l 306 300 l 297 300 l 297 0 l 89 0 m 389 -431 l 314 -381 q 355 -312 342 -350 q 368 -239 368 -274 l 404 -258 l 283 -258 l 283 -97 l 465 -97 l 465 -221 q 449 -335 465 -282 q 389 -431 432 -389 z "},"ĸ":{"ha":715,"x_min":89,"x_max":725,"o":"m 89 0 l 89 699 l 297 699 l 297 397 l 306 397 l 479 699 l 710 699 l 469 322 l 481 390 l 725 0 l 486 0 l 306 300 l 297 300 l 297 0 l 89 0 z "},"l":{"ha":451,"x_min":89,"x_max":439,"o":"m 310 -15 q 146 43 203 -15 q 89 225 89 101 l 89 979 l 297 979 l 297 238 q 302 188 297 208 q 320 156 307 167 q 357 144 333 144 q 392 147 375 144 q 421 153 408 149 l 439 8 q 377 -10 406 -4 q 310 -15 349 -15 z "},"ĺ":{"ha":451,"x_min":89,"x_max":475,"o":"m 310 -15 q 146 43 203 -15 q 89 225 89 101 l 89 979 l 297 979 l 297 238 q 302 188 297 208 q 320 156 307 167 q 357 144 333 144 q 392 147 375 144 q 421 153 408 149 l 439 8 q 377 -10 406 -4 q 310 -15 349 -15 m 113 1063 l 247 1293 l 475 1293 l 274 1063 l 113 1063 z "},"ľ":{"ha":451,"x_min":89,"x_max":501,"o":"m 310 -15 q 146 43 203 -15 q 89 225 89 101 l 89 979 l 297 979 l 297 238 q 302 188 297 208 q 320 156 307 167 q 357 144 333 144 q 392 147 375 144 q 421 153 408 149 l 439 8 q 377 -10 406 -4 q 310 -15 349 -15 m 351 701 l 351 979 l 501 979 l 469 701 l 351 701 z "},"ļ":{"ha":451,"x_min":89,"x_max":439,"o":"m 310 -15 q 146 43 203 -15 q 89 225 89 101 l 89 979 l 297 979 l 297 238 q 302 188 297 208 q 320 156 307 167 q 357 144 333 144 q 392 147 375 144 q 421 153 408 149 l 439 8 q 377 -10 406 -4 q 310 -15 349 -15 m 282 -429 l 207 -379 q 248 -310 235 -349 q 261 -237 261 -272 l 297 -257 l 176 -257 l 176 -96 l 358 -96 l 358 -219 q 342 -334 358 -281 q 282 -429 325 -387 z "},"ŀ":{"ha":590,"x_min":89,"x_max":599,"o":"m 310 -15 q 146 43 203 -15 q 89 225 89 101 l 89 979 l 297 979 l 297 238 q 302 188 297 208 q 320 156 307 167 q 357 144 333 144 q 392 147 375 144 q 421 153 408 149 l 439 8 q 377 -10 406 -4 q 310 -15 349 -15 m 378 406 l 378 597 l 597 597 l 597 406 l 378 406 z "},"ḷ":{"ha":451,"x_min":89,"x_max":439,"o":"m 310 -15 q 146 43 203 -15 q 89 225 89 101 l 89 979 l 297 979 l 297 238 q 302 188 297 208 q 320 156 307 167 q 357 144 333 144 q 392 147 375 144 q 421 153 408 149 l 439 8 q 377 -10 406 -4 q 310 -15 349 -15 m 174 -296 l 174 -112 l 363 -112 l 363 -296 l 174 -296 z "},"ǉ":{"ha":813,"x_min":89,"x_max":744,"o":"m 310 -15 q 146 43 203 -15 q 89 225 89 101 l 89 979 l 297 979 l 297 238 q 302 188 297 208 q 320 156 307 167 q 357 144 333 144 q 392 147 375 144 q 421 153 408 149 l 439 8 q 377 -10 406 -4 q 310 -15 349 -15 m 525 831 l 525 1028 l 744 1028 l 744 831 l 525 831 m 417 -268 l 399 -108 l 456 -100 q 509 -76 488 -94 q 531 1 531 -57 l 531 699 l 739 699 l 739 4 q 729 -101 739 -54 q 693 -179 719 -147 q 615 -231 667 -211 q 482 -261 564 -250 l 417 -268 z "},"ḻ":{"ha":451,"x_min":57,"x_max":479,"o":"m 310 -15 q 146 43 203 -15 q 89 225 89 101 l 89 979 l 297 979 l 297 238 q 302 188 297 208 q 320 156 307 167 q 357 144 333 144 q 392 147 375 144 q 421 153 408 149 l 439 8 q 377 -10 406 -4 q 310 -15 349 -15 m 57 -260 l 57 -115 l 481 -115 l 481 -260 l 57 -260 z "},"ł":{"ha":451,"x_min":-47,"x_max":440,"o":"m 310 -15 q 146 43 203 -15 q 89 225 89 101 l 89 979 l 297 979 l 297 238 q 302 188 297 208 q 320 156 307 167 q 357 144 333 144 q 392 147 375 144 q 421 153 408 149 l 439 8 q 377 -10 406 -4 q 310 -15 349 -15 m 40 294 l -49 426 l 351 697 l 440 567 l 40 294 z "},"m":{"ha":1178,"x_min":92,"x_max":1088,"o":"m 92 0 l 92 699 l 272 699 l 272 564 l 282 564 q 331 643 300 610 q 403 695 363 676 q 494 714 444 714 q 611 678 564 714 q 674 583 658 642 l 685 583 q 753 674 703 635 q 886 714 804 714 q 992 685 947 714 q 1063 598 1038 657 q 1088 449 1088 539 l 1088 0 l 882 0 l 882 433 q 863 517 882 493 q 806 540 844 540 q 746 525 772 540 q 704 483 719 510 q 689 425 689 457 l 689 0 l 489 0 l 489 433 q 467 516 489 492 q 411 540 444 540 q 352 524 378 540 q 311 481 326 507 q 296 426 296 454 l 296 0 l 92 0 z "},"ṃ":{"ha":1178,"x_min":92,"x_max":1088,"o":"m 92 0 l 92 699 l 272 699 l 272 564 l 282 564 q 331 643 300 610 q 403 695 363 676 q 494 714 444 714 q 611 678 564 714 q 674 583 658 642 l 685 583 q 753 674 703 635 q 886 714 804 714 q 992 685 947 714 q 1063 598 1038 657 q 1088 449 1088 539 l 1088 0 l 882 0 l 882 433 q 863 517 882 493 q 806 540 844 540 q 746 525 772 540 q 704 483 719 510 q 689 425 689 457 l 689 0 l 489 0 l 489 433 q 467 516 489 492 q 411 540 444 540 q 352 524 378 540 q 311 481 326 507 q 296 426 296 454 l 296 0 l 92 0 m 494 -297 l 494 -114 l 683 -114 l 683 -297 l 494 -297 z "},"n":{"ha":792,"x_min":89,"x_max":704,"o":"m 89 0 l 89 699 l 275 699 l 275 568 l 285 568 q 366 674 311 633 q 493 714 421 714 q 605 685 557 714 q 678 598 653 657 q 704 449 704 539 l 704 0 l 496 0 l 496 433 q 486 494 496 471 q 457 529 476 518 q 410 540 438 540 q 355 524 381 540 q 313 480 329 508 q 297 413 297 451 l 297 0 l 89 0 z "},"ń":{"ha":792,"x_min":89,"x_max":704,"o":"m 89 0 l 89 699 l 275 699 l 275 568 l 285 568 q 366 674 311 633 q 493 714 421 714 q 605 685 557 714 q 678 598 653 657 q 704 449 704 539 l 704 0 l 496 0 l 496 433 q 486 494 496 471 q 457 529 476 518 q 410 540 438 540 q 355 524 381 540 q 313 480 329 508 q 297 413 297 451 l 297 0 l 89 0 m 314 779 l 428 1049 l 642 1049 l 467 779 l 314 779 z "},"ŉ":{"ha":894,"x_min":-107,"x_max":807,"o":"m 1 749 l -72 800 q -30 869 -44 831 q -15 943 -15 908 l 18 924 l -106 924 l -106 1082 l 86 1082 l 86 961 q 65 844 86 899 q 1 749 43 790 m 192 0 l 192 699 l 378 699 l 378 568 l 388 568 q 469 674 414 633 q 596 714 524 714 q 708 685 660 714 q 781 598 756 657 q 807 449 807 539 l 807 0 l 599 0 l 599 433 q 589 494 599 471 q 560 529 579 518 q 513 540 540 540 q 458 524 483 540 q 416 480 432 508 q 400 413 400 451 l 400 0 l 192 0 z "},"ň":{"ha":792,"x_min":89,"x_max":704,"o":"m 89 0 l 89 699 l 275 699 l 275 568 l 285 568 q 366 674 311 633 q 493 714 421 714 q 605 685 557 714 q 678 598 653 657 q 704 449 704 539 l 704 0 l 496 0 l 496 433 q 486 494 496 471 q 457 529 476 518 q 410 540 438 540 q 355 524 381 540 q 313 480 329 508 q 297 413 297 451 l 297 0 l 89 0 m 310 779 l 176 1049 l 326 1049 l 400 890 l 475 1049 l 624 1049 l 490 779 l 310 779 z "},"ņ":{"ha":792,"x_min":89,"x_max":704,"o":"m 89 0 l 89 699 l 275 699 l 275 568 l 285 568 q 366 674 311 633 q 493 714 421 714 q 605 685 557 714 q 678 598 653 657 q 704 449 704 539 l 704 0 l 496 0 l 496 433 q 486 494 496 471 q 457 529 476 518 q 410 540 438 540 q 355 524 381 540 q 313 480 329 508 q 297 413 297 451 l 297 0 l 89 0 m 406 -431 l 331 -381 q 372 -312 358 -350 q 385 -239 385 -274 l 421 -258 l 300 -258 l 300 -97 l 482 -97 l 482 -221 q 465 -335 482 -282 q 406 -431 449 -389 z "},"ṅ":{"ha":792,"x_min":89,"x_max":704,"o":"m 89 0 l 89 699 l 275 699 l 275 568 l 285 568 q 366 674 311 633 q 493 714 421 714 q 605 685 557 714 q 678 598 653 657 q 704 449 704 539 l 704 0 l 496 0 l 496 433 q 486 494 496 471 q 457 529 476 518 q 410 540 438 540 q 355 524 381 540 q 313 480 329 508 q 297 413 297 451 l 297 0 l 89 0 m 306 838 l 306 1022 l 494 1022 l 494 838 l 306 838 z "},"ṇ":{"ha":792,"x_min":89,"x_max":704,"o":"m 89 0 l 89 699 l 275 699 l 275 568 l 285 568 q 366 674 311 633 q 493 714 421 714 q 605 685 557 714 q 678 598 653 657 q 704 449 704 539 l 704 0 l 496 0 l 496 433 q 486 494 496 471 q 457 529 476 518 q 410 540 438 540 q 355 524 381 540 q 313 480 329 508 q 297 413 297 451 l 297 0 l 89 0 m 297 -297 l 297 -114 l 486 -114 l 486 -297 l 297 -297 z "},"ǌ":{"ha":1154,"x_min":89,"x_max":1085,"o":"m 89 0 l 89 699 l 275 699 l 275 568 l 285 568 q 366 674 311 633 q 493 714 421 714 q 605 685 557 714 q 678 598 653 657 q 704 449 704 539 l 704 0 l 496 0 l 496 433 q 486 494 496 471 q 457 529 476 518 q 410 540 438 540 q 355 524 381 540 q 313 480 329 508 q 297 413 297 451 l 297 0 l 89 0 m 865 831 l 865 1028 l 1085 1028 l 1085 831 l 865 831 m 757 -268 l 739 -108 l 796 -100 q 849 -76 828 -94 q 871 1 871 -57 l 871 699 l 1079 699 l 1079 4 q 1069 -101 1079 -54 q 1033 -179 1060 -147 q 956 -231 1007 -211 q 822 -261 904 -250 l 757 -268 z "},"ṉ":{"ha":792,"x_min":89,"x_max":704,"o":"m 89 0 l 89 699 l 275 699 l 275 568 l 285 568 q 366 674 311 633 q 493 714 421 714 q 605 685 557 714 q 678 598 653 657 q 704 449 704 539 l 704 0 l 496 0 l 496 433 q 486 494 496 471 q 457 529 476 518 q 410 540 438 540 q 355 524 381 540 q 313 480 329 508 q 297 413 297 451 l 297 0 l 89 0 m 181 -261 l 181 -117 l 604 -117 l 604 -261 l 181 -261 z "},"ñ":{"ha":792,"x_min":89,"x_max":704,"o":"m 89 0 l 89 699 l 275 699 l 275 568 l 285 568 q 366 674 311 633 q 493 714 421 714 q 605 685 557 714 q 678 598 653 657 q 704 449 704 539 l 704 0 l 496 0 l 496 433 q 486 494 496 471 q 457 529 476 518 q 410 540 438 540 q 355 524 381 540 q 313 480 329 508 q 297 413 297 451 l 297 0 l 89 0 m 261 810 l 160 818 q 194 965 160 908 q 299 1022 229 1022 q 369 1005 339 1022 q 418 978 399 988 q 453 958 432 971 q 494 946 474 946 q 528 967 519 946 q 539 1025 538 989 l 640 1019 q 606 869 642 926 q 501 813 571 813 q 430 830 460 813 q 382 857 400 847 q 347 877 367 865 q 306 889 326 889 q 273 868 282 889 q 261 810 264 847 z "},"ŋ":{"ha":792,"x_min":89,"x_max":704,"o":"m 382 -268 l 365 -108 l 421 -100 q 475 -76 454 -94 q 496 1 496 -57 l 496 433 q 486 494 496 471 q 457 529 476 518 q 410 540 438 540 q 354 524 379 540 q 313 480 329 508 q 297 413 297 451 l 297 0 l 89 0 l 89 699 l 275 699 l 275 568 l 285 568 q 365 674 311 633 q 492 714 419 714 q 604 685 557 714 q 678 597 651 656 q 704 449 704 539 l 704 -11 q 692 -110 703 -67 q 654 -183 682 -153 q 576 -232 626 -212 q 449 -261 526 -251 l 382 -268 z "},"o":{"ha":767,"x_min":63,"x_max":704,"o":"m 383 -15 q 210 28 282 -15 q 100 154 138 72 q 63 350 63 236 q 100 547 63 465 q 210 671 138 628 q 383 714 282 714 q 558 671 486 714 q 667 547 629 628 q 704 350 704 465 q 667 154 704 236 q 558 28 629 72 q 383 -15 486 -15 m 383 151 q 475 201 446 151 q 504 351 504 250 q 475 501 504 454 q 383 547 446 547 q 292 501 322 547 q 263 351 263 454 q 292 201 263 250 q 383 151 322 151 z "},"ó":{"ha":767,"x_min":63,"x_max":704,"o":"m 383 -15 q 210 28 282 -15 q 100 154 138 72 q 63 350 63 236 q 100 547 63 465 q 210 671 138 628 q 383 714 282 714 q 558 671 486 714 q 667 547 629 628 q 704 350 704 465 q 667 154 704 236 q 558 28 629 72 q 383 -15 486 -15 m 383 151 q 475 201 446 151 q 504 351 504 250 q 475 501 504 454 q 383 547 446 547 q 292 501 322 547 q 263 351 263 454 q 292 201 263 250 q 383 151 322 151 m 297 779 l 411 1049 l 625 1049 l 450 779 l 297 779 z "},"ŏ":{"ha":767,"x_min":63,"x_max":704,"o":"m 383 -15 q 210 28 282 -15 q 100 154 138 72 q 63 350 63 236 q 100 547 63 465 q 210 671 138 628 q 383 714 282 714 q 558 671 486 714 q 667 547 629 628 q 704 350 704 465 q 667 154 704 236 q 558 28 629 72 q 383 -15 486 -15 m 383 151 q 475 201 446 151 q 504 351 504 250 q 475 501 504 454 q 383 547 446 547 q 292 501 322 547 q 263 351 263 454 q 292 201 263 250 q 383 151 322 151 m 383 778 q 258 810 304 778 q 190 903 211 842 q 167 1049 169 964 l 292 1058 q 313 949 296 986 q 383 911 331 911 q 453 949 435 911 q 475 1058 471 986 l 600 1049 q 577 903 599 964 q 509 810 556 842 q 383 778 463 778 z "},"ô":{"ha":767,"x_min":63,"x_max":704,"o":"m 383 -15 q 210 28 282 -15 q 100 154 138 72 q 63 350 63 236 q 100 547 63 465 q 210 671 138 628 q 383 714 282 714 q 558 671 486 714 q 667 547 629 628 q 704 350 704 465 q 667 154 704 236 q 558 28 629 72 q 383 -15 486 -15 m 383 151 q 475 201 446 151 q 504 351 504 250 q 475 501 504 454 q 383 547 446 547 q 292 501 322 547 q 263 351 263 454 q 292 201 263 250 q 383 151 322 151 m 160 783 l 293 1049 l 474 1049 l 607 783 l 458 783 l 383 938 l 310 783 l 160 783 z "},"ố":{"ha":767,"x_min":63,"x_max":756,"o":"m 383 -15 q 210 28 282 -15 q 100 154 138 72 q 63 350 63 236 q 100 547 63 465 q 210 671 138 628 q 383 714 282 714 q 558 671 486 714 q 667 547 629 628 q 704 350 704 465 q 667 154 704 236 q 558 28 629 72 q 383 -15 486 -15 m 383 151 q 475 201 446 151 q 504 351 504 250 q 475 501 504 454 q 383 547 446 547 q 292 501 322 547 q 263 351 263 454 q 292 201 263 250 q 383 151 322 151 m 167 792 l 300 1031 l 474 1031 l 607 792 l 463 792 l 388 929 l 311 792 l 167 792 m 535 978 l 604 1190 l 754 1190 l 649 978 l 535 978 z "},"ộ":{"ha":767,"x_min":63,"x_max":704,"o":"m 383 -15 q 210 28 282 -15 q 100 154 138 72 q 63 350 63 236 q 100 547 63 465 q 210 671 138 628 q 383 714 282 714 q 558 671 486 714 q 667 547 629 628 q 704 350 704 465 q 667 154 704 236 q 558 28 629 72 q 383 -15 486 -15 m 383 151 q 475 201 446 151 q 504 351 504 250 q 475 501 504 454 q 383 547 446 547 q 292 501 322 547 q 263 351 263 454 q 292 201 263 250 q 383 151 322 151 m 289 -299 l 289 -115 l 478 -115 l 478 -299 l 289 -299 m 160 783 l 293 1049 l 474 1049 l 607 783 l 458 783 l 383 938 l 310 783 l 160 783 z "},"ồ":{"ha":767,"x_min":63,"x_max":704,"o":"m 383 -15 q 210 28 282 -15 q 100 154 138 72 q 63 350 63 236 q 100 547 63 465 q 210 671 138 628 q 383 714 282 714 q 558 671 486 714 q 667 547 629 628 q 704 350 704 465 q 667 154 704 236 q 558 28 629 72 q 383 -15 486 -15 m 383 151 q 475 201 446 151 q 504 351 504 250 q 475 501 504 454 q 383 547 446 547 q 292 501 322 547 q 263 351 263 454 q 292 201 263 250 q 383 151 322 151 m 167 792 l 300 1031 l 474 1031 l 607 792 l 463 792 l 388 929 l 311 792 l 167 792 m 571 978 l 467 1190 l 617 1190 l 685 978 l 571 978 z "},"ổ":{"ha":767,"x_min":63,"x_max":719,"o":"m 383 -15 q 210 28 282 -15 q 100 154 138 72 q 63 350 63 236 q 100 547 63 465 q 210 671 138 628 q 383 714 282 714 q 558 671 486 714 q 667 547 629 628 q 704 350 704 465 q 667 154 704 236 q 558 28 629 72 q 383 -15 486 -15 m 383 151 q 475 201 446 151 q 504 351 504 250 q 475 501 504 454 q 383 547 446 547 q 292 501 322 547 q 263 351 263 454 q 292 201 263 250 q 383 151 322 151 m 167 800 l 300 1039 l 474 1039 l 607 800 l 463 800 l 388 938 l 311 800 l 167 800 m 532 988 q 539 1022 532 1007 q 555 1050 546 1038 q 570 1074 564 1063 q 576 1097 576 1086 q 567 1117 576 1111 q 538 1124 557 1124 q 510 1119 525 1124 q 483 1104 496 1114 l 458 1183 q 519 1207 485 1199 q 594 1215 553 1215 q 687 1194 654 1215 q 719 1135 719 1172 q 708 1092 719 1110 q 683 1058 697 1074 q 656 1026 668 1043 q 643 988 644 1010 l 532 988 z "},"ỗ":{"ha":767,"x_min":63,"x_max":704,"o":"m 383 -15 q 210 28 282 -15 q 100 154 138 72 q 63 350 63 236 q 100 547 63 465 q 210 671 138 628 q 383 714 282 714 q 558 671 486 714 q 667 547 629 628 q 704 350 704 465 q 667 154 704 236 q 558 28 629 72 q 383 -15 486 -15 m 383 151 q 475 201 446 151 q 504 351 504 250 q 475 501 504 454 q 383 547 446 547 q 292 501 322 547 q 263 351 263 454 q 292 201 263 250 q 383 151 322 151 m 164 792 l 297 1008 l 471 1008 l 604 792 l 457 792 l 385 914 l 311 792 l 164 792 m 254 1051 l 154 1057 q 170 1144 158 1107 q 211 1203 182 1181 q 292 1225 240 1225 q 358 1210 331 1225 q 404 1185 386 1196 q 431 1169 413 1179 q 469 1158 449 1158 q 500 1177 489 1158 q 514 1226 511 1196 l 613 1219 q 577 1099 608 1146 q 469 1053 546 1053 q 406 1066 431 1053 q 364 1088 381 1079 q 331 1108 346 1100 q 299 1117 315 1117 q 268 1099 279 1117 q 254 1051 257 1082 z "},"ȍ":{"ha":767,"x_min":63,"x_max":704,"o":"m 383 -15 q 210 28 282 -15 q 100 154 138 72 q 63 350 63 236 q 100 547 63 465 q 210 671 138 628 q 383 714 282 714 q 558 671 486 714 q 667 547 629 628 q 704 350 704 465 q 667 154 704 236 q 558 28 629 72 q 383 -15 486 -15 m 383 151 q 475 201 446 151 q 504 351 504 250 q 475 501 504 454 q 383 547 446 547 q 292 501 322 547 q 263 351 263 454 q 292 201 263 250 q 383 151 322 151 m 435 779 l 326 1049 l 503 1049 l 550 779 l 435 779 m 226 779 l 118 1049 l 293 1049 l 340 779 l 226 779 z "},"ö":{"ha":767,"x_min":63,"x_max":704,"o":"m 383 -15 q 210 28 282 -15 q 100 154 138 72 q 63 350 63 236 q 100 547 63 465 q 210 671 138 628 q 383 714 282 714 q 558 671 486 714 q 667 547 629 628 q 704 350 704 465 q 667 154 704 236 q 558 28 629 72 q 383 -15 486 -15 m 383 151 q 475 201 446 151 q 504 351 504 250 q 475 501 504 454 q 383 547 446 547 q 292 501 322 547 q 263 351 263 454 q 292 201 263 250 q 383 151 322 151 m 428 828 l 428 1017 l 615 1017 l 615 828 l 428 828 m 151 828 l 151 1017 l 339 1017 l 339 828 l 151 828 z "},"ȫ":{"ha":767,"x_min":63,"x_max":704,"o":"m 383 -15 q 210 28 282 -15 q 100 154 138 72 q 63 350 63 236 q 100 547 63 465 q 210 671 138 628 q 383 714 282 714 q 558 671 486 714 q 667 547 629 628 q 704 350 704 465 q 667 154 704 236 q 558 28 629 72 q 383 -15 486 -15 m 383 151 q 475 201 446 151 q 504 351 504 250 q 475 501 504 454 q 383 547 446 547 q 292 501 322 547 q 263 351 263 454 q 292 201 263 250 q 383 151 322 151 m 171 1028 l 171 1161 l 596 1161 l 596 1028 l 171 1028 m 160 803 l 160 950 l 349 950 l 349 803 l 160 803 m 418 803 l 418 950 l 607 950 l 607 803 l 418 803 z "},"ȱ":{"ha":767,"x_min":63,"x_max":704,"o":"m 383 -15 q 210 28 282 -15 q 100 154 138 72 q 63 350 63 236 q 100 547 63 465 q 210 671 138 628 q 383 714 282 714 q 558 671 486 714 q 667 547 629 628 q 704 350 704 465 q 667 154 704 236 q 558 28 629 72 q 383 -15 486 -15 m 383 151 q 475 201 446 151 q 504 351 504 250 q 475 501 504 454 q 383 547 446 547 q 292 501 322 547 q 263 351 263 454 q 292 201 263 250 q 383 151 322 151 m 175 1044 l 175 1178 l 592 1178 l 592 1044 l 175 1044 m 288 801 l 288 967 l 479 967 l 479 801 l 288 801 z "},"ọ":{"ha":767,"x_min":63,"x_max":704,"o":"m 383 -15 q 210 28 282 -15 q 100 154 138 72 q 63 350 63 236 q 100 547 63 465 q 210 671 138 628 q 383 714 282 714 q 558 671 486 714 q 667 547 629 628 q 704 350 704 465 q 667 154 704 236 q 558 28 629 72 q 383 -15 486 -15 m 383 151 q 475 201 446 151 q 504 351 504 250 q 475 501 504 454 q 383 547 446 547 q 292 501 322 547 q 263 351 263 454 q 292 201 263 250 q 383 151 322 151 m 289 -299 l 289 -115 l 478 -115 l 478 -299 l 289 -299 z "},"ò":{"ha":767,"x_min":63,"x_max":704,"o":"m 383 -15 q 210 28 282 -15 q 100 154 138 72 q 63 350 63 236 q 100 547 63 465 q 210 671 138 628 q 383 714 282 714 q 558 671 486 714 q 667 547 629 628 q 704 350 704 465 q 667 154 704 236 q 558 28 629 72 q 383 -15 486 -15 m 383 151 q 475 201 446 151 q 504 351 504 250 q 475 501 504 454 q 383 547 446 547 q 292 501 322 547 q 263 351 263 454 q 292 201 263 250 q 383 151 322 151 m 317 789 l 142 1049 l 356 1049 l 469 789 l 317 789 z "},"ỏ":{"ha":767,"x_min":63,"x_max":704,"o":"m 383 -15 q 210 28 282 -15 q 100 154 138 72 q 63 350 63 236 q 100 547 63 465 q 210 671 138 628 q 383 714 282 714 q 558 671 486 714 q 667 547 629 628 q 704 350 704 465 q 667 154 704 236 q 558 28 629 72 q 383 -15 486 -15 m 383 151 q 475 201 446 151 q 504 351 504 250 q 475 501 504 454 q 383 547 446 547 q 292 501 322 547 q 263 351 263 454 q 292 201 263 250 q 383 151 322 151 m 313 789 l 313 821 q 322 865 313 847 q 343 898 332 883 q 364 928 354 913 q 374 961 374 943 q 363 988 374 979 q 329 997 353 997 q 296 993 315 997 q 258 979 276 989 l 225 1069 q 299 1095 257 1086 q 386 1104 340 1104 q 510 1076 468 1104 q 551 993 551 1047 q 536 933 551 957 q 502 893 521 910 q 468 858 483 876 q 453 813 453 839 l 453 789 l 313 789 z "},"ơ":{"ha":767,"x_min":63,"x_max":735,"o":"m 383 -15 q 210 28 282 -15 q 100 154 138 72 q 63 350 63 236 q 100 547 63 465 q 210 671 138 628 q 383 714 282 714 q 558 671 486 714 q 667 547 629 628 q 704 350 704 465 q 667 154 704 236 q 558 28 629 72 q 383 -15 486 -15 m 383 151 q 475 201 446 151 q 504 351 504 250 q 475 501 504 454 q 383 547 446 547 q 292 501 322 547 q 263 351 263 454 q 292 201 263 250 q 383 151 322 151 m 593 599 l 469 678 l 469 699 q 524 713 504 699 q 551 756 543 726 q 560 839 560 786 l 560 863 l 735 863 l 735 813 q 717 708 735 754 q 668 635 700 663 q 593 599 636 607 z "},"ớ":{"ha":767,"x_min":63,"x_max":735,"o":"m 383 -15 q 210 28 282 -15 q 100 154 138 72 q 63 350 63 236 q 100 547 63 465 q 210 671 138 628 q 383 714 282 714 q 558 671 486 714 q 667 547 629 628 q 704 350 704 465 q 667 154 704 236 q 558 28 629 72 q 383 -15 486 -15 m 383 151 q 475 201 446 151 q 504 351 504 250 q 475 501 504 454 q 383 547 446 547 q 292 501 322 547 q 263 351 263 454 q 292 201 263 250 q 383 151 322 151 m 593 599 l 469 678 l 469 699 q 524 713 504 699 q 551 756 543 726 q 560 839 560 786 l 560 863 l 735 863 l 735 813 q 717 708 735 754 q 668 635 700 663 q 593 599 636 607 m 297 779 l 411 1049 l 625 1049 l 450 779 l 297 779 z "},"ợ":{"ha":767,"x_min":63,"x_max":735,"o":"m 383 -15 q 210 28 282 -15 q 100 154 138 72 q 63 350 63 236 q 100 547 63 465 q 210 671 138 628 q 383 714 282 714 q 558 671 486 714 q 667 547 629 628 q 704 350 704 465 q 667 154 704 236 q 558 28 629 72 q 383 -15 486 -15 m 383 151 q 475 201 446 151 q 504 351 504 250 q 475 501 504 454 q 383 547 446 547 q 292 501 322 547 q 263 351 263 454 q 292 201 263 250 q 383 151 322 151 m 593 599 l 469 678 l 469 699 q 524 713 504 699 q 551 756 543 726 q 560 839 560 786 l 560 863 l 735 863 l 735 813 q 717 708 735 754 q 668 635 700 663 q 593 599 636 607 m 289 -297 l 289 -114 l 478 -114 l 478 -297 l 289 -297 z "},"ờ":{"ha":767,"x_min":63,"x_max":735,"o":"m 383 -15 q 210 28 282 -15 q 100 154 138 72 q 63 350 63 236 q 100 547 63 465 q 210 671 138 628 q 383 714 282 714 q 558 671 486 714 q 667 547 629 628 q 704 350 704 465 q 667 154 704 236 q 558 28 629 72 q 383 -15 486 -15 m 383 151 q 475 201 446 151 q 504 351 504 250 q 475 501 504 454 q 383 547 446 547 q 292 501 322 547 q 263 351 263 454 q 292 201 263 250 q 383 151 322 151 m 593 599 l 469 678 l 469 699 q 524 713 504 699 q 551 756 543 726 q 560 839 560 786 l 560 863 l 735 863 l 735 813 q 717 708 735 754 q 668 635 700 663 q 593 599 636 607 m 317 789 l 142 1049 l 356 1049 l 469 789 l 317 789 z "},"ở":{"ha":767,"x_min":63,"x_max":735,"o":"m 383 -15 q 210 28 282 -15 q 100 154 138 72 q 63 350 63 236 q 100 547 63 465 q 210 671 138 628 q 383 714 282 714 q 558 671 486 714 q 667 547 629 628 q 704 350 704 465 q 667 154 704 236 q 558 28 629 72 q 383 -15 486 -15 m 383 151 q 475 201 446 151 q 504 351 504 250 q 475 501 504 454 q 383 547 446 547 q 292 501 322 547 q 263 351 263 454 q 292 201 263 250 q 383 151 322 151 m 593 599 l 469 678 l 469 699 q 524 713 504 699 q 551 756 543 726 q 560 839 560 786 l 560 863 l 735 863 l 735 813 q 717 708 735 754 q 668 635 700 663 q 593 599 636 607 m 313 789 l 313 821 q 322 865 313 847 q 343 898 332 883 q 364 928 354 913 q 374 961 374 943 q 363 988 374 979 q 329 997 353 997 q 296 993 315 997 q 258 979 276 989 l 225 1069 q 299 1095 257 1086 q 386 1104 340 1104 q 510 1076 468 1104 q 551 993 551 1047 q 536 933 551 957 q 502 893 521 910 q 468 858 483 876 q 453 813 453 839 l 453 789 l 313 789 z "}}}
